<svg width="18" height="18" viewBox="0 0 18 18" fill="none" xmlns="http://www.w3.org/2000/svg">
<g clip-path="url(#clip0)">
<path d="M5.74196 14.0006C4.7041 14.0006 3.86279 14.842 3.86279 15.8798C3.86279 16.9176 4.70414 17.7589 5.74196 17.7589C6.77982 17.7589 7.62113 16.9176 7.62113 15.8798C7.62117 14.842 6.77982 14.0006 5.74196 14.0006ZM5.74196 16.9238C5.16538 16.9238 4.69799 16.4564 4.69799 15.8798C4.69799 15.3032 5.16538 14.8358 5.74196 14.8358C6.31854 14.8358 6.78593 15.3032 6.78593 15.8798C6.78597 16.4564 6.31854 16.9238 5.74196 16.9238Z" fill="white"/>
<path d="M13.6763 14.0006C12.6384 14.0006 11.7971 14.842 11.7971 15.8798C11.7971 16.9176 12.6385 17.7589 13.6763 17.7589C14.7141 17.7589 15.5555 16.9176 15.5555 15.8798C15.5555 14.842 14.7141 14.0006 13.6763 14.0006ZM13.6763 16.9238C13.0997 16.9238 12.6323 16.4564 12.6323 15.8798C12.6323 15.3032 13.0997 14.8358 13.6763 14.8358C14.2529 14.8358 14.7203 15.3032 14.7203 15.8798C14.7203 16.4564 14.2529 16.9238 13.6763 16.9238Z" fill="white"/>
<path d="M17.9149 3.03877C17.8279 2.94378 17.7089 2.88431 17.5808 2.87172L3.98806 2.6838L3.61222 1.5354C3.34745 0.767707 2.62856 0.249437 1.81654 0.240845H0.417597C0.186958 0.240845 0 0.427802 0 0.658442C0 0.889081 0.186958 1.07604 0.417597 1.07604H1.81654C2.27059 1.08607 2.6704 1.37762 2.81879 1.80684L5.47053 9.80382L5.26175 10.284C5.02887 10.8846 5.09881 11.5604 5.44967 12.1006C5.79717 12.6311 6.38178 12.9585 7.01567 12.9775H15.1379C15.3686 12.9775 15.5555 12.7906 15.5555 12.5599C15.5555 12.3293 15.3686 12.1423 15.1379 12.1423H7.01563C6.65766 12.1334 6.32814 11.9451 6.13867 11.6412C5.95131 11.3411 5.91283 10.9713 6.03428 10.639L6.20133 10.2631L14.9917 9.34441C15.9573 9.23807 16.7516 8.5358 16.9753 7.5905L17.9776 3.39367C18.0227 3.27281 17.9988 3.13689 17.9149 3.03877ZM16.161 7.40262C16.0254 8.01113 15.5088 8.45998 14.8874 8.50926L6.20133 9.40708L4.2595 3.519L17.0588 3.70691L16.161 7.40262Z" fill="white"/>
</g>
<defs>
<clipPath id="clip0">
<rect width="18" height="18" fill="white"/>
</clipPath>
</defs>
</svg>
