<svg width="65" height="20" viewBox="0 0 65 20" fill="none" xmlns="http://www.w3.org/2000/svg">
<g clip-path="url(#clip0)">
<path d="M14.371 7.1141C13.3816 6.53128 12.2645 6.23975 11.0195 6.2395C9.77447 6.23925 8.65299 6.53079 7.65503 7.1141C6.65731 7.69717 5.87263 8.51161 5.301 9.55742C4.72936 10.6032 4.44366 11.7863 4.44391 13.1067C4.44391 14.4273 4.74241 15.6106 5.33942 16.6564C5.93642 17.7022 6.76789 18.521 7.83383 19.1127C8.89977 19.7042 10.1237 19.9999 11.5056 19.9999C12.58 19.9999 13.5651 19.8114 14.4611 19.4343C15.3296 19.0769 16.0981 18.5118 16.6999 17.788L15.6762 16.6048C15.1779 17.1785 14.5569 17.6313 13.8597 17.9295C13.1597 18.2288 12.392 18.3785 11.5566 18.3785C10.0727 18.3785 8.84461 17.9452 7.87226 17.0786C6.89991 16.2121 6.36263 15.076 6.26042 13.6705H17.5182L17.5437 13.1045C17.5437 11.7675 17.2623 10.5802 16.6995 9.54257C16.1367 8.50493 15.3606 7.69544 14.371 7.1141ZM6.26042 12.3097C6.37987 10.9728 6.87885 9.8882 7.75736 9.05606C8.63588 8.22391 9.72324 7.80809 11.0195 7.80859C12.3327 7.80859 13.4287 8.22441 14.3074 9.05606C15.1862 9.8877 15.6852 10.9723 15.8044 12.3097H6.26042Z" fill="#29304A"/>
<path d="M23.441 8.49007C24.2168 8.05308 25.0911 7.83446 26.064 7.83421C26.8345 7.82714 27.5964 7.99884 28.2902 8.33595C28.9721 8.67019 29.535 9.17168 29.9789 9.84041L31.3347 8.91456C30.821 8.05423 30.0703 7.36192 29.1735 6.92136C28.2605 6.46703 27.2242 6.23975 26.0647 6.2395C24.7347 6.2395 23.545 6.53103 22.4956 7.1141C21.4625 7.68174 20.6075 8.52791 20.0267 9.55742C19.4294 10.6037 19.1309 11.7868 19.1312 13.1067C19.1314 14.4266 19.4294 15.6144 20.0252 16.6701C20.6028 17.7053 21.4584 18.5563 22.4941 19.1261C23.5433 19.7096 24.733 20.0012 26.0632 20.0007C27.206 20.0007 28.238 19.7735 29.1591 19.3192C30.0616 18.8818 30.8175 18.1891 31.3339 17.326L29.9781 16.3997C29.5348 17.0682 28.9719 17.5655 28.2894 17.8916C27.607 18.2177 26.8649 18.38 26.0632 18.3785C25.0914 18.3785 24.217 18.1599 23.4402 17.7226C22.6709 17.2927 22.0404 16.6499 21.6237 15.8705C21.1893 15.0743 20.9721 14.153 20.9721 13.1067C20.9721 12.0782 21.1895 11.1609 21.6245 10.3548C22.0594 9.54863 22.6649 8.92706 23.441 8.49007Z" fill="#29304A"/>
<path d="M61.2034 7.1141C60.2141 6.53128 59.0969 6.23975 57.8519 6.2395C56.6069 6.23925 55.4853 6.53079 54.4871 7.1141C53.4891 7.69717 52.7046 8.51161 52.1334 9.55742C51.5623 10.6032 51.2766 11.7863 51.2763 13.1067C51.2763 14.4273 51.5748 15.6106 52.1718 16.6564C52.7689 17.7022 53.6003 18.521 54.6663 19.1127C55.7322 19.7042 56.956 19.9999 58.3377 19.9999C59.4123 19.9999 60.3974 19.8114 61.2932 19.4343C62.1889 19.0572 62.9352 18.5085 63.5319 17.788L62.5086 16.6048C62.0103 17.1785 61.3893 17.6313 60.6921 17.9295C59.9917 18.2288 59.2237 18.3785 58.3883 18.3785C56.9044 18.3785 55.6763 17.9452 54.7039 17.0786C53.7316 16.2121 53.1943 15.076 53.0921 13.6705H64.3495L64.3754 13.1045C64.3754 11.7675 64.0939 10.5802 63.5308 9.54257C62.9678 8.50493 62.192 7.69544 61.2034 7.1141ZM53.0928 12.3097C53.2118 10.9728 53.7107 9.8882 54.5894 9.05606C55.4682 8.22391 56.5557 7.80809 57.8519 7.80859C59.1649 7.80859 60.2609 8.22441 61.1399 9.05606C62.0189 9.8877 62.5177 10.9723 62.6364 12.3097H53.0928Z" fill="#29304A"/>
<path d="M61.2034 7.1141C60.2141 6.53128 59.0969 6.23975 57.8519 6.2395C56.6069 6.23925 55.4853 6.53079 54.4871 7.1141C53.4891 7.69717 52.7046 8.51161 52.1334 9.55742C51.5623 10.6032 51.2766 11.7863 51.2763 13.1067C51.2763 14.4273 51.5748 15.6106 52.1718 16.6564C52.7689 17.7022 53.6003 18.521 54.6663 19.1127C55.7322 19.7042 56.956 19.9999 58.3377 19.9999C59.4123 19.9999 60.3974 19.8114 61.2932 19.4343C62.1889 19.0572 62.9352 18.5085 63.5319 17.788L62.5086 16.6048C62.0103 17.1785 61.3893 17.6313 60.6921 17.9295C59.9917 18.2288 59.2237 18.3785 58.3883 18.3785C56.9044 18.3785 55.6763 17.9452 54.7039 17.0786C53.7316 16.2121 53.1943 15.076 53.0921 13.6705H64.3495L64.3754 13.1045C64.3754 11.7675 64.0939 10.5802 63.5308 9.54257C62.9678 8.50493 62.192 7.69544 61.2034 7.1141ZM53.0928 12.3097C53.2118 10.9728 53.7107 9.8882 54.5894 9.05606C55.4682 8.22391 56.5557 7.80809 57.8519 7.80859C59.1649 7.80859 60.2609 8.22441 61.1399 9.05606C62.0189 9.8877 62.5177 10.9723 62.6364 12.3097H53.0928Z" fill="#29304A"/>
<path d="M2.52476 6.34277H0.708252V19.8715H2.52476V6.34277Z" fill="#29304A"/>
<path d="M40.6788 12.1147C40.8085 10.6199 40.9374 9.13884 41.0671 7.63697H37.8921C37.7857 7.11704 37.6816 6.6049 37.5722 6.06751H41.2052C41.3031 4.96637 41.3992 3.88973 41.496 2.80381H43.1104C43.0916 3.10463 43.0794 3.39802 43.0539 3.69513C43.0029 4.28191 42.943 4.86795 42.8898 5.45436C42.8706 5.65862 42.8603 5.86288 42.8296 6.06751C42.8082 6.20827 42.8499 6.26694 43.0055 6.30074C44.631 6.65281 46.054 7.36661 47.2292 8.47332C48.397 9.57298 49.1639 10.8791 49.3741 12.4334C49.6579 14.5343 48.9678 16.3329 47.37 17.8236C46.0995 19.0087 44.5438 19.6805 42.7709 19.9063C40.197 20.2313 37.8674 19.6604 35.8329 18.1497C34.3966 17.0831 33.4586 15.7063 33.0792 14.0166C33.0762 14.0043 33.0858 13.9894 33.0928 13.9642H34.7553C34.9496 14.379 35.1096 14.8009 35.3357 15.1898C36.0952 16.4933 37.2637 17.3716 38.723 17.9235C39.9347 18.3814 41.1982 18.5366 42.489 18.3561C44.542 18.0687 46.2014 17.1826 47.193 15.4196C47.8621 14.2312 47.9367 12.9726 47.459 11.7058C46.8332 10.0446 45.5775 8.93086 43.8755 8.22969C43.5061 8.07631 43.1134 7.96527 42.6848 7.81895C42.5481 9.35944 42.4162 10.8464 42.2821 12.3624H42.5777C43.5171 12.3624 44.457 12.365 45.3965 12.3591C45.5609 12.3591 45.6336 12.3918 45.6617 12.5615C45.7356 13.0071 45.8405 13.4491 45.938 13.9185H42.1495C42.1044 14.4362 42.0597 14.9357 42.0176 15.4356C41.9707 15.9927 41.9286 16.5527 41.8757 17.1109C41.8717 17.1562 41.8019 17.2324 41.7649 17.2331C41.2636 17.2413 40.7619 17.2387 40.2296 17.2387C40.333 16.0502 40.4339 14.8964 40.5358 13.728C40.1812 13.6218 39.8154 13.5301 39.4645 13.4038C37.0975 12.5518 35.3353 11.0916 34.5004 8.82613C33.6481 6.5128 34.1217 4.38404 35.8326 2.52008C36.864 1.39628 38.1892 0.70031 39.7046 0.297732C40.6625 0.0416636 41.6568 -0.0491297 42.6449 0.0292222C45.5808 0.261335 47.9359 1.4479 49.5389 3.80729C49.7174 4.06985 49.857 4.35619 50.0029 4.63658C50.0853 4.79479 50.1437 4.96377 50.2268 5.16097C49.6246 5.16097 49.0557 5.16357 48.4868 5.15577C48.4387 5.15577 48.3759 5.09115 48.3471 5.04436C47.353 3.24947 45.7478 2.19772 43.6708 1.76209C41.6585 1.3402 39.76 1.62505 38.0617 2.75368C36.7794 3.60785 35.9984 4.76099 35.8329 6.24726C35.6648 7.75507 36.2149 9.03559 37.2556 10.1564C38.1685 11.1384 39.3292 11.7578 40.6788 12.1147Z" fill="#29304A"/>
<path d="M1.64398 3.73547C2.55193 3.73547 3.28796 2.99555 3.28796 2.08282C3.28796 1.17009 2.55193 0.430176 1.64398 0.430176C0.736036 0.430176 0 1.17009 0 2.08282C0 2.99555 0.736036 3.73547 1.64398 3.73547Z" fill="#29304A"/>
<path d="M37.5907 1.32959H1.64398V2.8374H37.5907V1.32959Z" fill="#29304A"/>
</g>
<defs>
<clipPath id="clip0">
<rect width="64.375" height="20" fill="white"/>
</clipPath>
</defs>
</svg>
