<svg width="1440" height="900" viewBox="0 0 1440 900" fill="none" xmlns="http://www.w3.org/2000/svg">
<g clip-path="url(#clip0)">
<rect width="1440" height="900" fill="url(#paint0_radial)"/>
<line x1="-4" y1="900" x2="1435" y2="900" stroke="white" stroke-opacity="0.09" stroke-width="2"/>
<line x1="53.5" y1="879.823" x2="53.5" y2="848.823" stroke="#E5E5E5"/>
<line x1="49" y1="844.5" x2="18" y2="844.5" stroke="#E5E5E5"/>
<line x1="18.0884" y1="50.4114" x2="49.0884" y2="50.4114" stroke="#E5E5E5"/>
<line x1="53.4111" y1="45.9114" x2="53.4111" y2="14.9114" stroke="#E5E5E5"/>
<line x1="1386.41" y1="15.0886" x2="1386.41" y2="46.0886" stroke="#E5E5E5"/>
<line x1="1390.91" y1="50.4114" x2="1421.91" y2="50.4114" stroke="#E5E5E5"/>
<line x1="1421.82" y1="843.5" x2="1390.82" y2="843.5" stroke="#E5E5E5"/>
<line x1="1386.5" y1="848" x2="1386.5" y2="879" stroke="#E5E5E5"/>
<path d="M15.5 1333H14V-78H15.5V-76.2362H17V-10.8047H14V-7.27014H17V59.9182H14V63.4563H17V130.648H14V134.183H17V201.375H14V204.909H17V272.097H14V275.635H17V342.827H14V346.362H17V413.554H14V417.088H17V484.28H14V487.815H17V555.006H14V558.541H17V625.733H14V629.267H17V696.459H14V699.994H17V767.185H14V770.724H17V837.908H14V841.446H17V908.638H14V912.173H17V979.365H14V982.899H17V1050.09H14V1053.63H17V1120.82H14V1124.36H17V1191.54H14V1195.08H17V1262.27H14V1265.8H17V1331.24H15.5V1333Z" fill="#8D8D8D" fill-opacity="0.13"/>
<path d="M86 1331H82V1265.59H86V1331ZM86 1262.06H82V1194.89H86V1262.06ZM86 1191.35H82V1124.19H86V1191.35ZM86 1120.65H82V1053.48H86V1120.65ZM86 1049.95H82V982.78H86V1049.95ZM86 979.246H82V912.077H86V979.246ZM86 908.544H82V841.375H86V908.544ZM86 837.838H82V770.675H86V837.838ZM86 767.139H82V699.969H86V767.139ZM86 696.436H82V629.267H86V696.436ZM86 625.733H82V558.564H86V625.733ZM86 555.031H82V487.861H86V555.031ZM86 484.328H82V417.159H86V484.328ZM86 413.625H82V346.456H86V413.625ZM86 342.923H82V275.754H86V342.923ZM86 272.217H82V205.051H86V272.217ZM86 201.518H82V134.348H86V201.518ZM86 130.815H82V63.6456H86V130.815ZM86 60.1088H82V-7.05701H86V60.1088ZM86 -10.5903H82V-76H86V-10.5903Z" fill="#484848" fill-opacity="0.14"/>
<path d="M156 1331H152V1265.59H156V1331ZM156 1262.06H152V1194.89H156V1262.06ZM156 1191.35H152V1124.19H156V1191.35ZM156 1120.65H152V1053.48H156V1120.65ZM156 1049.95H152V982.78H156V1049.95ZM156 979.246H152V912.077H156V979.246ZM156 908.544H152V841.375H156V908.544ZM156 837.838H152V770.675H156V837.838ZM156 767.139H152V699.969H156V767.139ZM156 696.436H152V629.267H156V696.436ZM156 625.733H152V558.564H156V625.733ZM156 555.031H152V487.861H156V555.031ZM156 484.328H152V417.159H156V484.328ZM156 413.625H152V346.456H156V413.625ZM156 342.923H152V275.754H156V342.923ZM156 272.217H152V205.051H156V272.217ZM156 201.518H152V134.348H156V201.518ZM156 130.815H152V63.6456H156V130.815ZM156 60.1088H152V-7.05701H156V60.1088ZM156 -10.5903H152V-76H156V-10.5903Z" fill="#484848" fill-opacity="0.14"/>
<path d="M228 1331H225V1265.59H228V1331ZM228 1262.06H225V1194.89H228V1262.06ZM228 1191.35H225V1124.19H228V1191.35ZM228 1120.65H225V1053.48H228V1120.65ZM228 1049.95H225V982.78H228V1049.95ZM228 979.246H225V912.077H228V979.246ZM228 908.544H225V841.375H228V908.544ZM228 837.838H225V770.675H228V837.838ZM228 767.139H225V699.969H228V767.139ZM228 696.436H225V629.267H228V696.436ZM228 625.733H225V558.564H228V625.733ZM228 555.031H225V487.861H228V555.031ZM228 484.328H225V417.159H228V484.328ZM228 413.625H225V346.456H228V413.625ZM228 342.923H225V275.754H228V342.923ZM228 272.217H225V205.051H228V272.217ZM228 201.518H225V134.348H228V201.518ZM228 130.815H225V63.6456H228V130.815ZM228 60.1088H225V-7.05701H228V60.1088ZM228 -10.5903H225V-76H228V-10.5903Z" fill="#484848" fill-opacity="0.14"/>
<path d="M298 1331H295V1265.59H298V1331ZM298 1262.06H295V1194.89H298V1262.06ZM298 1191.35H295V1124.19H298V1191.35ZM298 1120.65H295V1053.48H298V1120.65ZM298 1049.95H295V982.78H298V1049.95ZM298 979.246H295V912.077H298V979.246ZM298 908.544H295V841.375H298V908.544ZM298 837.838H295V770.675H298V837.838ZM298 767.139H295V699.969H298V767.139ZM298 696.436H295V629.267H298V696.436ZM298 625.733H295V558.564H298V625.733ZM298 555.031H295V487.861H298V555.031ZM298 484.328H295V417.159H298V484.328ZM298 413.625H295V346.456H298V413.625ZM298 342.923H295V275.754H298V342.923ZM298 272.217H295V205.051H298V272.217ZM298 201.518H295V134.348H298V201.518ZM298 130.815H295V63.6456H298V130.815ZM298 60.1088H295V-7.05701H298V60.1088ZM298 -10.5903H295V-76H298V-10.5903Z" fill="#484848" fill-opacity="0.14"/>
<path d="M369 1331H365V1265.59H369V1331ZM369 1262.06H365V1194.89H369V1262.06ZM369 1191.35H365V1124.19H369V1191.35ZM369 1120.65H365V1053.48H369V1120.65ZM369 1049.95H365V982.78H369V1049.95ZM369 979.246H365V912.077H369V979.246ZM369 908.544H365V841.375H369V908.544ZM369 837.838H365V770.675H369V837.838ZM369 767.139H365V699.969H369V767.139ZM369 696.436H365V629.267H369V696.436ZM369 625.733H365V558.564H369V625.733ZM369 555.031H365V487.861H369V555.031ZM369 484.328H365V417.159H369V484.328ZM369 413.625H365V346.456H369V413.625ZM369 342.923H365V275.754H369V342.923ZM369 272.217H365V205.051H369V272.217ZM369 201.518H365V134.348H369V201.518ZM369 130.815H365V63.6456H369V130.815ZM369 60.1088H365V-7.05701H369V60.1088ZM369 -10.5903H365V-76H369V-10.5903Z" fill="#8D8D8D" fill-opacity="0.13"/>
<path d="M439 1331H436V1265.59H439V1331ZM439 1262.06H436V1194.89H439V1262.06ZM439 1191.35H436V1124.19H439V1191.35ZM439 1120.65H436V1053.48H439V1120.65ZM439 1049.95H436V982.78H439V1049.95ZM439 979.246H436V912.077H439V979.246ZM439 908.544H436V841.375H439V908.544ZM439 837.838H436V770.675H439V837.838ZM439 767.139H436V699.969H439V767.139ZM439 696.436H436V629.267H439V696.436ZM439 625.733H436V558.564H439V625.733ZM439 555.031H436V487.861H439V555.031ZM439 484.328H436V417.159H439V484.328ZM439 413.625H436V346.456H439V413.625ZM439 342.923H436V275.754H439V342.923ZM439 272.217H436V205.051H439V272.217ZM439 201.518H436V134.348H439V201.518ZM439 130.815H436V63.6456H439V130.815ZM439 60.1088H436V-7.05701H439V60.1088ZM439 -10.5903H436V-76H439V-10.5903Z" fill="#484848" fill-opacity="0.14"/>
<path d="M509 1331H506V1265.59H509V1331ZM509 1262.06H506V1194.89H509V1262.06ZM509 1191.35H506V1124.19H509V1191.35ZM509 1120.65H506V1053.48H509V1120.65ZM509 1049.95H506V982.78H509V1049.95ZM509 979.246H506V912.077H509V979.246ZM509 908.544H506V841.375H509V908.544ZM509 837.838H506V770.675H509V837.838ZM509 767.139H506V699.969H509V767.139ZM509 696.436H506V629.267H509V696.436ZM509 625.733H506V558.564H509V625.733ZM509 555.031H506V487.861H509V555.031ZM509 484.328H506V417.159H509V484.328ZM509 413.625H506V346.456H509V413.625ZM509 342.923H506V275.754H509V342.923ZM509 272.217H506V205.051H509V272.217ZM509 201.518H506V134.348H509V201.518ZM509 130.815H506V63.6456H509V130.815ZM509 60.1088H506V-7.05701H509V60.1088ZM509 -10.5903H506V-76H509V-10.5903Z" fill="#484848" fill-opacity="0.14"/>
<path d="M582 1331H578V1265.59H582V1331ZM582 1262.06H578V1194.89H582V1262.06ZM582 1191.35H578V1124.19H582V1191.35ZM582 1120.65H578V1053.48H582V1120.65ZM582 1049.95H578V982.78H582V1049.95ZM582 979.246H578V912.077H582V979.246ZM582 908.544H578V841.375H582V908.544ZM582 837.838H578V770.675H582V837.838ZM582 767.139H578V699.969H582V767.139ZM582 696.436H578V629.267H582V696.436ZM582 625.733H578V558.564H582V625.733ZM582 555.031H578V487.861H582V555.031ZM582 484.328H578V417.159H582V484.328ZM582 413.625H578V346.456H582V413.625ZM582 342.923H578V275.754H582V342.923ZM582 272.217H578V205.051H582V272.217ZM582 201.518H578V134.348H582V201.518ZM582 130.815H578V63.6456H582V130.815ZM582 60.1088H578V-7.05701H582V60.1088ZM582 -10.5903H578V-76H582V-10.5903Z" fill="#484848" fill-opacity="0.14"/>
<path d="M652 1331H648V1265.59H652V1331ZM652 1262.06H648V1194.89H652V1262.06ZM652 1191.35H648V1124.19H652V1191.35ZM652 1120.65H648V1053.48H652V1120.65ZM652 1049.95H648V982.78H652V1049.95ZM652 979.246H648V912.077H652V979.246ZM652 908.544H648V841.375H652V908.544ZM652 837.838H648V770.675H652V837.838ZM652 767.139H648V699.969H652V767.139ZM652 696.436H648V629.267H652V696.436ZM652 625.733H648V558.564H652V625.733ZM652 555.031H648V487.861H652V555.031ZM652 484.328H648V417.159H652V484.328ZM652 413.625H648V346.456H652V413.625ZM652 342.923H648V275.754H652V342.923ZM652 272.217H648V205.051H652V272.217ZM652 201.518H648V134.348H652V201.518ZM652 130.815H648V63.6456H652V130.815ZM652 60.1088H648V-7.05701H652V60.1088ZM652 -10.5903H648V-76H652V-10.5903Z" fill="#484848" fill-opacity="0.14"/>
<path d="M722 1331H719V1265.59H722V1331ZM722 1262.06H719V1194.89H722V1262.06ZM722 1191.35H719V1124.19H722V1191.35ZM722 1120.65H719V1053.48H722V1120.65ZM722 1049.95H719V982.78H722V1049.95ZM722 979.246H719V912.077H722V979.246ZM722 908.544H719V841.375H722V908.544ZM722 837.838H719V770.675H722V837.838ZM722 767.139H719V699.969H722V767.139ZM722 696.436H719V629.267H722V696.436ZM722 625.733H719V558.564H722V625.733ZM722 555.031H719V487.861H722V555.031ZM722 484.328H719V417.159H722V484.328ZM722 413.625H719V346.456H722V413.625ZM722 342.923H719V275.754H722V342.923ZM722 272.217H719V205.051H722V272.217ZM722 201.518H719V134.348H722V201.518ZM722 130.815H719V63.6456H722V130.815ZM722 60.1088H719V-7.05701H722V60.1088ZM722 -10.5903H719V-76H722V-10.5903Z" fill="#8D8D8D" fill-opacity="0.13"/>
<path d="M793 1331H789V1265.59H793V1331ZM793 1262.06H789V1194.89H793V1262.06ZM793 1191.35H789V1124.19H793V1191.35ZM793 1120.65H789V1053.48H793V1120.65ZM793 1049.95H789V982.78H793V1049.95ZM793 979.246H789V912.077H793V979.246ZM793 908.544H789V841.375H793V908.544ZM793 837.838H789V770.675H793V837.838ZM793 767.139H789V699.969H793V767.139ZM793 696.436H789V629.267H793V696.436ZM793 625.733H789V558.564H793V625.733ZM793 555.031H789V487.861H793V555.031ZM793 484.328H789V417.159H793V484.328ZM793 413.625H789V346.456H793V413.625ZM793 342.923H789V275.754H793V342.923ZM793 272.217H789V205.051H793V272.217ZM793 201.518H789V134.348H793V201.518ZM793 130.815H789V63.6456H793V130.815ZM793 60.1088H789V-7.05701H793V60.1088ZM793 -10.5903H789V-76H793V-10.5903Z" fill="#484848" fill-opacity="0.14"/>
<path d="M863 1331H859V1265.59H863V1331ZM863 1262.06H859V1194.89H863V1262.06ZM863 1191.35H859V1124.19H863V1191.35ZM863 1120.65H859V1053.48H863V1120.65ZM863 1049.95H859V982.78H863V1049.95ZM863 979.246H859V912.077H863V979.246ZM863 908.544H859V841.375H863V908.544ZM863 837.838H859V770.675H863V837.838ZM863 767.139H859V699.969H863V767.139ZM863 696.436H859V629.267H863V696.436ZM863 625.733H859V558.564H863V625.733ZM863 555.031H859V487.861H863V555.031ZM863 484.328H859V417.159H863V484.328ZM863 413.625H859V346.456H863V413.625ZM863 342.923H859V275.754H863V342.923ZM863 272.217H859V205.051H863V272.217ZM863 201.518H859V134.348H863V201.518ZM863 130.815H859V63.6456H863V130.815ZM863 60.1088H859V-7.05701H863V60.1088ZM863 -10.5903H859V-76H863V-10.5903Z" fill="#484848" fill-opacity="0.14"/>
<path d="M935 1331H932V1265.59H935V1331ZM935 1262.06H932V1194.89H935V1262.06ZM935 1191.35H932V1124.19H935V1191.35ZM935 1120.65H932V1053.48H935V1120.65ZM935 1049.95H932V982.78H935V1049.95ZM935 979.246H932V912.077H935V979.246ZM935 908.544H932V841.375H935V908.544ZM935 837.838H932V770.675H935V837.838ZM935 767.139H932V699.969H935V767.139ZM935 696.436H932V629.267H935V696.436ZM935 625.733H932V558.564H935V625.733ZM935 555.031H932V487.861H935V555.031ZM935 484.328H932V417.159H935V484.328ZM935 413.625H932V346.456H935V413.625ZM935 342.923H932V275.754H935V342.923ZM935 272.217H932V205.051H935V272.217ZM935 201.518H932V134.348H935V201.518ZM935 130.815H932V63.6456H935V130.815ZM935 60.1088H932V-7.05701H935V60.1088ZM935 -10.5903H932V-76H935V-10.5903Z" fill="#484848" fill-opacity="0.14"/>
<path d="M1005 1331H1002V1265.59H1005V1331ZM1005 1262.06H1002V1194.89H1005V1262.06ZM1005 1191.35H1002V1124.19H1005V1191.35ZM1005 1120.65H1002V1053.48H1005V1120.65ZM1005 1049.95H1002V982.78H1005V1049.95ZM1005 979.246H1002V912.077H1005V979.246ZM1005 908.544H1002V841.375H1005V908.544ZM1005 837.838H1002V770.675H1005V837.838ZM1005 767.139H1002V699.969H1005V767.139ZM1005 696.436H1002V629.267H1005V696.436ZM1005 625.733H1002V558.564H1005V625.733ZM1005 555.031H1002V487.861H1005V555.031ZM1005 484.328H1002V417.159H1005V484.328ZM1005 413.625H1002V346.456H1005V413.625ZM1005 342.923H1002V275.754H1005V342.923ZM1005 272.217H1002V205.051H1005V272.217ZM1005 201.518H1002V134.348H1005V201.518ZM1005 130.815H1002V63.6456H1005V130.815ZM1005 60.1088H1002V-7.05701H1005V60.1088ZM1005 -10.5903H1002V-76H1005V-10.5903Z" fill="#484848" fill-opacity="0.14"/>
<path d="M1076 1331H1072V1265.59H1076V1331ZM1076 1262.06H1072V1194.89H1076V1262.06ZM1076 1191.35H1072V1124.19H1076V1191.35ZM1076 1120.65H1072V1053.48H1076V1120.65ZM1076 1049.95H1072V982.78H1076V1049.95ZM1076 979.246H1072V912.077H1076V979.246ZM1076 908.544H1072V841.375H1076V908.544ZM1076 837.838H1072V770.675H1076V837.838ZM1076 767.139H1072V699.969H1076V767.139ZM1076 696.436H1072V629.267H1076V696.436ZM1076 625.733H1072V558.564H1076V625.733ZM1076 555.031H1072V487.861H1076V555.031ZM1076 484.328H1072V417.159H1076V484.328ZM1076 413.625H1072V346.456H1076V413.625ZM1076 342.923H1072V275.754H1076V342.923ZM1076 272.217H1072V205.051H1076V272.217ZM1076 201.518H1072V134.348H1076V201.518ZM1076 130.815H1072V63.6456H1076V130.815ZM1076 60.1088H1072V-7.05701H1076V60.1088ZM1076 -10.5903H1072V-76H1076V-10.5903Z" fill="#8D8D8D" fill-opacity="0.13"/>
<path d="M1146 1331H1143V1265.59H1146V1331ZM1146 1262.06H1143V1194.89H1146V1262.06ZM1146 1191.35H1143V1124.19H1146V1191.35ZM1146 1120.65H1143V1053.48H1146V1120.65ZM1146 1049.95H1143V982.78H1146V1049.95ZM1146 979.246H1143V912.077H1146V979.246ZM1146 908.544H1143V841.375H1146V908.544ZM1146 837.838H1143V770.675H1146V837.838ZM1146 767.139H1143V699.969H1146V767.139ZM1146 696.436H1143V629.267H1146V696.436ZM1146 625.733H1143V558.564H1146V625.733ZM1146 555.031H1143V487.861H1146V555.031ZM1146 484.328H1143V417.159H1146V484.328ZM1146 413.625H1143V346.456H1146V413.625ZM1146 342.923H1143V275.754H1146V342.923ZM1146 272.217H1143V205.051H1146V272.217ZM1146 201.518H1143V134.348H1146V201.518ZM1146 130.815H1143V63.6456H1146V130.815ZM1146 60.1088H1143V-7.05701H1146V60.1088ZM1146 -10.5903H1143V-76H1146V-10.5903Z" fill="#484848" fill-opacity="0.14"/>
<path d="M1216 1331H1213V1265.59H1216V1331ZM1216 1262.06H1213V1194.89H1216V1262.06ZM1216 1191.35H1213V1124.19H1216V1191.35ZM1216 1120.65H1213V1053.48H1216V1120.65ZM1216 1049.95H1213V982.78H1216V1049.95ZM1216 979.246H1213V912.077H1216V979.246ZM1216 908.544H1213V841.375H1216V908.544ZM1216 837.838H1213V770.675H1216V837.838ZM1216 767.139H1213V699.969H1216V767.139ZM1216 696.436H1213V629.267H1216V696.436ZM1216 625.733H1213V558.564H1216V625.733ZM1216 555.031H1213V487.861H1216V555.031ZM1216 484.328H1213V417.159H1216V484.328ZM1216 413.625H1213V346.456H1216V413.625ZM1216 342.923H1213V275.754H1216V342.923ZM1216 272.217H1213V205.051H1216V272.217ZM1216 201.518H1213V134.348H1216V201.518ZM1216 130.815H1213V63.6456H1216V130.815ZM1216 60.1088H1213V-7.05701H1216V60.1088ZM1216 -10.5903H1213V-76H1216V-10.5903Z" fill="#484848" fill-opacity="0.14"/>
<path d="M1289 1331H1285V1265.59H1289V1331ZM1289 1262.06H1285V1194.89H1289V1262.06ZM1289 1191.35H1285V1124.19H1289V1191.35ZM1289 1120.65H1285V1053.48H1289V1120.65ZM1289 1049.95H1285V982.78H1289V1049.95ZM1289 979.246H1285V912.077H1289V979.246ZM1289 908.544H1285V841.375H1289V908.544ZM1289 837.838H1285V770.675H1289V837.838ZM1289 767.139H1285V699.969H1289V767.139ZM1289 696.436H1285V629.267H1289V696.436ZM1289 625.733H1285V558.564H1289V625.733ZM1289 555.031H1285V487.861H1289V555.031ZM1289 484.328H1285V417.159H1289V484.328ZM1289 413.625H1285V346.456H1289V413.625ZM1289 342.923H1285V275.754H1289V342.923ZM1289 272.217H1285V205.051H1289V272.217ZM1289 201.518H1285V134.348H1289V201.518ZM1289 130.815H1285V63.6456H1289V130.815ZM1289 60.1088H1285V-7.05701H1289V60.1088ZM1289 -10.5903H1285V-76H1289V-10.5903Z" fill="#484848" fill-opacity="0.14"/>
<path d="M1359 1331H1355V1265.59H1359V1331ZM1359 1262.06H1355V1194.89H1359V1262.06ZM1359 1191.35H1355V1124.19H1359V1191.35ZM1359 1120.65H1355V1053.48H1359V1120.65ZM1359 1049.95H1355V982.78H1359V1049.95ZM1359 979.246H1355V912.077H1359V979.246ZM1359 908.544H1355V841.375H1359V908.544ZM1359 837.838H1355V770.675H1359V837.838ZM1359 767.139H1355V699.969H1359V767.139ZM1359 696.436H1355V629.267H1359V696.436ZM1359 625.733H1355V558.564H1359V625.733ZM1359 555.031H1355V487.861H1359V555.031ZM1359 484.328H1355V417.159H1359V484.328ZM1359 413.625H1355V346.456H1359V413.625ZM1359 342.923H1355V275.754H1359V342.923ZM1359 272.217H1355V205.051H1359V272.217ZM1359 201.518H1355V134.348H1359V201.518ZM1359 130.815H1355V63.6456H1359V130.815ZM1359 60.1088H1355V-7.05701H1359V60.1088ZM1359 -10.5903H1355V-76H1359V-10.5903Z" fill="#484848" fill-opacity="0.14"/>
<path d="M1427 1336H1425.5V1334.24H1424V1268.8H1427V1336ZM1427 1265.27H1424V1198.08H1427V1265.27ZM1427 1194.54H1424V1127.36H1427V1194.54ZM1427 1123.82H1424V1056.63H1427V1123.82ZM1427 1053.09H1424V985.899H1427V1053.09ZM1427 982.365H1424V915.173H1427V982.365ZM1427 911.638H1424V844.446H1427V911.638ZM1427 840.908H1424V773.724H1427V840.908ZM1427 770.185H1424V702.994H1427V770.185ZM1427 699.459H1424V632.267H1427V699.459ZM1427 628.733H1424V561.541H1427V628.733ZM1427 558.006H1424V490.815H1427V558.006ZM1427 487.28H1424V420.088H1427V487.28ZM1427 416.554H1424V349.362H1427V416.554ZM1427 345.827H1424V278.635H1427V345.827ZM1427 275.097H1424V207.909H1427V275.097ZM1427 204.375H1424V137.183H1427V204.375ZM1427 133.648H1424V66.4563H1427V133.648ZM1427 62.9182H1424V-4.27014H1427V62.9182ZM1427 -7.80469H1424V-73.2362H1425.5V-75H1427V-7.80469Z" fill="#8D8D8D" fill-opacity="0.13"/>
<path d="M1424 63H1358.59V59H1424V63ZM1355.06 63H1287.89V59H1355.06V63ZM1284.35 63H1217.19V59H1284.35V63ZM1213.65 63H1146.48V59H1213.65V63ZM1142.95 63H1075.78V59H1142.95V63ZM1072.25 63H1005.08V59H1072.25V63ZM1001.54 63H934.375V59H1001.54V63ZM930.838 63H863.675V59H930.838V63ZM860.139 63H792.969V59H860.139V63ZM789.436 63H722.267V59H789.436V63ZM718.733 63H651.564V59H718.733V63ZM648.031 63H580.861V59H648.031V63ZM577.328 63H510.159V59H577.328V63ZM506.625 63H439.456V59H506.625V63ZM435.923 63H368.754V59H435.923V63ZM365.217 63H298.051V59H365.217V63ZM294.518 63H227.349V59H294.518V63ZM223.814 63H156.646V59H223.814V63ZM153.11 63H85.9437V59H153.11V63ZM82.4089 63H17V59H82.4089V63Z" fill="#484848" fill-opacity="0.14"/>
<path d="M14 63H17V59H14V63Z" fill="#A4A4A4" fill-opacity="0.03"/>
<path d="M82 63H86V59H82V63Z" fill="#6D6D6D" fill-opacity="0.21"/>
<path d="M152 63H156V59H152V63Z" fill="#6D6D6D" fill-opacity="0.21"/>
<path d="M225 63H228V59H225V63Z" fill="#6D6D6D" fill-opacity="0.01"/>
<path d="M295 63H298V59H295V63Z" fill="#6D6D6D" fill-opacity="0.01"/>
<path d="M365 63H369V59H365V63Z" fill="#A4A4A4" fill-opacity="0.03"/>
<path d="M436 63H439V59H436V63Z" fill="#6D6D6D" fill-opacity="0.01"/>
<path d="M506 63H509V59H506V63Z" fill="#6D6D6D" fill-opacity="0.01"/>
<path d="M578 63H582V59H578V63Z" fill="#6D6D6D" fill-opacity="0.01"/>
<path d="M648 63H652V59H648V63Z" fill="#6D6D6D" fill-opacity="0.01"/>
<path d="M719 63H722V59H719V63Z" fill="#A4A4A4" fill-opacity="0.03"/>
<path d="M789 63H793V59H789V63Z" fill="#6D6D6D" fill-opacity="0.01"/>
<path d="M859 63H863V59H859V63Z" fill="#6D6D6D" fill-opacity="0.01"/>
<path d="M932 63H935V59H932V63Z" fill="#6D6D6D" fill-opacity="0.01"/>
<path d="M1002 63H1005V59H1002V63Z" fill="#6D6D6D" fill-opacity="0.01"/>
<path d="M1072 63H1076V59H1072V63Z" fill="#A4A4A4" fill-opacity="0.03"/>
<path d="M1143 63H1146V59H1143V63Z" fill="#6D6D6D" fill-opacity="0.01"/>
<path d="M1213 63H1216V59H1213V63Z" fill="#6D6D6D" fill-opacity="0.01"/>
<path d="M1285 63H1289V59H1285V63Z" fill="#6D6D6D" fill-opacity="0.01"/>
<path d="M1355 63H1359V59H1355V63Z" fill="#6D6D6D" fill-opacity="0.01"/>
<path d="M1424 66H1427V62H1424V66Z" fill="#A4A4A4" fill-opacity="0.12"/>
<path d="M1424 135H1358.59V132H1424V135ZM1355.06 135H1287.89V132H1355.06V135ZM1284.35 135H1217.19V132H1284.35V135ZM1213.65 135H1146.48V132H1213.65V135ZM1142.95 135H1075.78V132H1142.95V135ZM1072.25 135H1005.08V132H1072.25V135ZM1001.54 135H934.375V132H1001.54V135ZM930.838 135H863.675V132H930.838V135ZM860.139 135H792.969V132H860.139V135ZM789.436 135H722.267V132H789.436V135ZM718.733 135H651.564V132H718.733V135ZM648.031 135H580.861V132H648.031V135ZM577.328 135H510.159V132H577.328V135ZM506.625 135H439.456V132H506.625V135ZM435.923 135H368.754V132H435.923V135ZM365.217 135H298.051V132H365.217V135ZM294.518 135H227.349V132H294.518V135ZM223.814 135H156.646V132H223.814V135ZM153.11 135H85.9437V132H153.11V135ZM82.4089 135H17V132H82.4089V135Z" fill="#484848" fill-opacity="0.14"/>
<path d="M14 135H17V132H14V135Z" fill="#A4A4A4" fill-opacity="0.03"/>
<path d="M82 135H86V132H82V135Z" fill="#6D6D6D" fill-opacity="0.21"/>
<path d="M152 135H156V132H152V135Z" fill="#6D6D6D" fill-opacity="0.21"/>
<path d="M225 135H228V132H225V135Z" fill="#6D6D6D" fill-opacity="0.01"/>
<path d="M295 135H298V132H295V135Z" fill="#6D6D6D" fill-opacity="0.01"/>
<path d="M365 135H369V132H365V135Z" fill="#A4A4A4" fill-opacity="0.03"/>
<path d="M436 135H439V132H436V135Z" fill="#6D6D6D" fill-opacity="0.01"/>
<path d="M506 135H509V132H506V135Z" fill="#6D6D6D" fill-opacity="0.01"/>
<path d="M578 135H582V132H578V135Z" fill="#6D6D6D" fill-opacity="0.01"/>
<path d="M648 135H652V132H648V135Z" fill="#6D6D6D" fill-opacity="0.01"/>
<path d="M719 135H722V132H719V135Z" fill="#A4A4A4" fill-opacity="0.03"/>
<path d="M789 135H793V132H789V135Z" fill="#6D6D6D" fill-opacity="0.01"/>
<path d="M859 135H863V132H859V135Z" fill="#6D6D6D" fill-opacity="0.01"/>
<path d="M932 135H935V132H932V135Z" fill="#6D6D6D" fill-opacity="0.01"/>
<path d="M1002 135H1005V132H1002V135Z" fill="#6D6D6D" fill-opacity="0.01"/>
<path d="M1072 135H1076V132H1072V135Z" fill="#A4A4A4" fill-opacity="0.03"/>
<path d="M1143 135H1146V132H1143V135Z" fill="#6D6D6D" fill-opacity="0.01"/>
<path d="M1213 135H1216V132H1213V135Z" fill="#6D6D6D" fill-opacity="0.01"/>
<path d="M1285 135H1289V132H1285V135Z" fill="#6D6D6D" fill-opacity="0.01"/>
<path d="M1355 135H1359V132H1355V135Z" fill="#6D6D6D" fill-opacity="0.01"/>
<path d="M1424 138H1427V135H1424V138Z" fill="#A4A4A4" fill-opacity="0.12"/>
<path d="M1424 205H1358.59V202H1424V205ZM1355.06 205H1287.89V202H1355.06V205ZM1284.35 205H1217.19V202H1284.35V205ZM1213.65 205H1146.48V202H1213.65V205ZM1142.95 205H1075.78V202H1142.95V205ZM1072.25 205H1005.08V202H1072.25V205ZM1001.54 205H934.375V202H1001.54V205ZM930.838 205H863.675V202H930.838V205ZM860.139 205H792.969V202H860.139V205ZM789.436 205H722.267V202H789.436V205ZM718.733 205H651.564V202H718.733V205ZM648.031 205H580.861V202H648.031V205ZM577.328 205H510.159V202H577.328V205ZM506.625 205H439.456V202H506.625V205ZM435.923 205H368.754V202H435.923V205ZM365.217 205H298.051V202H365.217V205ZM294.518 205H227.349V202H294.518V205ZM223.814 205H156.646V202H223.814V205ZM153.11 205H85.9437V202H153.11V205ZM82.4089 205H17V202H82.4089V205Z" fill="#484848" fill-opacity="0.14"/>
<path d="M14 205H17V202H14V205Z" fill="#A4A4A4" fill-opacity="0.03"/>
<path d="M82 205H86V202H82V205Z" fill="#6D6D6D" fill-opacity="0.21"/>
<path d="M152 205H156V202H152V205Z" fill="#6D6D6D" fill-opacity="0.21"/>
<path d="M225 205H228V202H225V205Z" fill="#6D6D6D" fill-opacity="0.01"/>
<path d="M295 205H298V202H295V205Z" fill="#6D6D6D" fill-opacity="0.01"/>
<path d="M365 205H369V202H365V205Z" fill="#A4A4A4" fill-opacity="0.03"/>
<path d="M436 205H439V202H436V205Z" fill="#6D6D6D" fill-opacity="0.01"/>
<path d="M506 205H509V202H506V205Z" fill="#6D6D6D" fill-opacity="0.01"/>
<path d="M578 205H582V202H578V205Z" fill="#6D6D6D" fill-opacity="0.01"/>
<path d="M648 205H652V202H648V205Z" fill="#6D6D6D" fill-opacity="0.01"/>
<path d="M719 205H722V202H719V205Z" fill="#A4A4A4" fill-opacity="0.03"/>
<path d="M789 205H793V202H789V205Z" fill="#6D6D6D" fill-opacity="0.01"/>
<path d="M859 205H863V202H859V205Z" fill="#6D6D6D" fill-opacity="0.01"/>
<path d="M932 205H935V202H932V205Z" fill="#6D6D6D" fill-opacity="0.01"/>
<path d="M1002 205H1005V202H1002V205Z" fill="#6D6D6D" fill-opacity="0.01"/>
<path d="M1072 205H1076V202H1072V205Z" fill="#A4A4A4" fill-opacity="0.03"/>
<path d="M1143 205H1146V202H1143V205Z" fill="#6D6D6D" fill-opacity="0.01"/>
<path d="M1213 205H1216V202H1213V205Z" fill="#6D6D6D" fill-opacity="0.01"/>
<path d="M1285 205H1289V202H1285V205Z" fill="#6D6D6D" fill-opacity="0.01"/>
<path d="M1355 205H1359V202H1355V205Z" fill="#6D6D6D" fill-opacity="0.01"/>
<path d="M1424 208H1427V205H1424V208Z" fill="#A4A4A4" fill-opacity="0.12"/>
<path d="M1424 276H1358.59V272H1424V276ZM1355.06 276H1287.89V272H1355.06V276ZM1284.35 276H1217.19V272H1284.35V276ZM1213.65 276H1146.48V272H1213.65V276ZM1142.95 276H1075.78V272H1142.95V276ZM1072.25 276H1005.08V272H1072.25V276ZM1001.54 276H934.375V272H1001.54V276ZM930.838 276H863.675V272H930.838V276ZM860.139 276H792.969V272H860.139V276ZM789.436 276H722.267V272H789.436V276ZM718.733 276H651.564V272H718.733V276ZM648.031 276H580.861V272H648.031V276ZM577.328 276H510.159V272H577.328V276ZM506.625 276H439.456V272H506.625V276ZM435.923 276H368.754V272H435.923V276ZM365.217 276H298.051V272H365.217V276ZM294.518 276H227.349V272H294.518V276ZM223.814 276H156.646V272H223.814V276ZM153.11 276H85.9437V272H153.11V276ZM82.4089 276H17V272H82.4089V276Z" fill="#8D8D8D" fill-opacity="0.15"/>
<path d="M14 276H17V272H14V276Z" fill="#C6C6C6" fill-opacity="0.13"/>
<path d="M82 276H86V272H82V276Z" fill="#A4A4A4" fill-opacity="0.03"/>
<path d="M152 276H156V272H152V276Z" fill="#A4A4A4" fill-opacity="0.03"/>
<path d="M225 276H228V272H225V276Z" fill="#A4A4A4" fill-opacity="0.03"/>
<path d="M295 276H298V272H295V276Z" fill="#A4A4A4" fill-opacity="0.03"/>
<path d="M365 276H369V272H365V276Z" fill="#C6C6C6" fill-opacity="0.04"/>
<path d="M436 276H439V272H436V276Z" fill="#A4A4A4" fill-opacity="0.03"/>
<path d="M506 276H509V272H506V276Z" fill="#A4A4A4" fill-opacity="0.03"/>
<path d="M578 276H582V272H578V276Z" fill="#A4A4A4" fill-opacity="0.03"/>
<path d="M648 276H652V272H648V276Z" fill="#A4A4A4" fill-opacity="0.03"/>
<path d="M719 276H722V272H719V276Z" fill="#C6C6C6" fill-opacity="0.04"/>
<path d="M789 276H793V272H789V276Z" fill="#A4A4A4" fill-opacity="0.03"/>
<path d="M859 276H863V272H859V276Z" fill="#A4A4A4" fill-opacity="0.03"/>
<path d="M932 276H935V272H932V276Z" fill="#A4A4A4" fill-opacity="0.03"/>
<path d="M1002 276H1005V272H1002V276Z" fill="#A4A4A4" fill-opacity="0.03"/>
<path d="M1072 276H1076V272H1072V276Z" fill="#C6C6C6" fill-opacity="0.04"/>
<path d="M1143 276H1146V272H1143V276Z" fill="#A4A4A4" fill-opacity="0.03"/>
<path d="M1213 276H1216V272H1213V276Z" fill="#A4A4A4" fill-opacity="0.03"/>
<path d="M1285 276H1289V272H1285V276Z" fill="#A4A4A4" fill-opacity="0.03"/>
<path d="M1355 276H1359V272H1355V276Z" fill="#A4A4A4" fill-opacity="0.03"/>
<path d="M1424 279H1427V275H1424V279Z" fill="#C6C6C6" fill-opacity="0.29"/>
<path d="M1424 346H1358.59V343H1424V346ZM1355.06 346H1287.89V343H1355.06V346ZM1284.35 346H1217.19V343H1284.35V346ZM1213.65 346H1146.48V343H1213.65V346ZM1142.95 346H1075.78V343H1142.95V346ZM1072.25 346H1005.08V343H1072.25V346ZM1001.54 346H934.375V343H1001.54V346ZM930.838 346H863.675V343H930.838V346ZM860.139 346H792.969V343H860.139V346ZM789.436 346H722.267V343H789.436V346ZM718.733 346H651.564V343H718.733V346ZM648.031 346H580.861V343H648.031V346ZM577.328 346H510.159V343H577.328V346ZM506.625 346H439.456V343H506.625V346ZM435.923 346H368.754V343H435.923V346ZM365.217 346H298.051V343H365.217V346ZM294.518 346H227.349V343H294.518V346ZM223.814 346H156.646V343H223.814V346ZM153.11 346H85.9437V343H153.11V346ZM82.4089 346H17V343H82.4089V346Z" fill="#484848" fill-opacity="0.14"/>
<path d="M14 346H17V343H14V346Z" fill="#A4A4A4" fill-opacity="0.03"/>
<path d="M82 346H86V343H82V346Z" fill="#6D6D6D" fill-opacity="0.21"/>
<path d="M152 346H156V343H152V346Z" fill="#6D6D6D" fill-opacity="0.21"/>
<path d="M225 346H228V343H225V346Z" fill="#6D6D6D" fill-opacity="0.01"/>
<path d="M295 346H298V343H295V346Z" fill="#6D6D6D" fill-opacity="0.01"/>
<path d="M365 346H369V343H365V346Z" fill="#A4A4A4" fill-opacity="0.03"/>
<path d="M436 346H439V343H436V346Z" fill="#6D6D6D" fill-opacity="0.01"/>
<path d="M506 346H509V343H506V346Z" fill="#6D6D6D" fill-opacity="0.01"/>
<path d="M578 346H582V343H578V346Z" fill="#6D6D6D" fill-opacity="0.01"/>
<path d="M648 346H652V343H648V346Z" fill="#6D6D6D" fill-opacity="0.01"/>
<path d="M719 346H722V343H719V346Z" fill="#A4A4A4" fill-opacity="0.03"/>
<path d="M789 346H793V343H789V346Z" fill="#6D6D6D" fill-opacity="0.01"/>
<path d="M859 346H863V343H859V346Z" fill="#6D6D6D" fill-opacity="0.01"/>
<path d="M932 346H935V343H932V346Z" fill="#6D6D6D" fill-opacity="0.01"/>
<path d="M1002 346H1005V343H1002V346Z" fill="#6D6D6D" fill-opacity="0.01"/>
<path d="M1072 346H1076V343H1072V346Z" fill="#A4A4A4" fill-opacity="0.03"/>
<path d="M1143 346H1146V343H1143V346Z" fill="#6D6D6D" fill-opacity="0.01"/>
<path d="M1213 346H1216V343H1213V346Z" fill="#6D6D6D" fill-opacity="0.01"/>
<path d="M1285 346H1289V343H1285V346Z" fill="#6D6D6D" fill-opacity="0.01"/>
<path d="M1355 346H1359V343H1355V346Z" fill="#6D6D6D" fill-opacity="0.01"/>
<path d="M1424 349H1427V346H1424V349Z" fill="#A4A4A4" fill-opacity="0.12"/>
<path d="M1424 416H1358.59V413H1424V416ZM1355.06 416H1287.89V413H1355.06V416ZM1284.35 416H1217.19V413H1284.35V416ZM1213.65 416H1146.48V413H1213.65V416ZM1142.95 416H1075.78V413H1142.95V416ZM1072.25 416H1005.08V413H1072.25V416ZM1001.54 416H934.375V413H1001.54V416ZM930.838 416H863.675V413H930.838V416ZM860.139 416H792.969V413H860.139V416ZM789.436 416H722.267V413H789.436V416ZM718.733 416H651.564V413H718.733V416ZM648.031 416H580.861V413H648.031V416ZM577.328 416H510.159V413H577.328V416ZM506.625 416H439.456V413H506.625V416ZM435.923 416H368.754V413H435.923V416ZM365.217 416H298.051V413H365.217V416ZM294.518 416H227.349V413H294.518V416ZM223.814 416H156.646V413H223.814V416ZM153.11 416H85.9437V413H153.11V416ZM82.4089 416H17V413H82.4089V416Z" fill="#484848" fill-opacity="0.14"/>
<path d="M14 416H17V413H14V416Z" fill="#A4A4A4" fill-opacity="0.03"/>
<path d="M82 416H86V413H82V416Z" fill="#6D6D6D" fill-opacity="0.21"/>
<path d="M152 416H156V413H152V416Z" fill="#6D6D6D" fill-opacity="0.21"/>
<path d="M225 416H228V413H225V416Z" fill="#6D6D6D" fill-opacity="0.01"/>
<path d="M295 416H298V413H295V416Z" fill="#6D6D6D" fill-opacity="0.01"/>
<path d="M365 416H369V413H365V416Z" fill="#A4A4A4" fill-opacity="0.03"/>
<path d="M436 416H439V413H436V416Z" fill="#6D6D6D" fill-opacity="0.01"/>
<path d="M506 416H509V413H506V416Z" fill="#6D6D6D" fill-opacity="0.01"/>
<path d="M578 416H582V413H578V416Z" fill="#6D6D6D" fill-opacity="0.01"/>
<path d="M648 416H652V413H648V416Z" fill="#6D6D6D" fill-opacity="0.01"/>
<path d="M719 416H722V413H719V416Z" fill="#A4A4A4" fill-opacity="0.03"/>
<path d="M789 416H793V413H789V416Z" fill="#6D6D6D" fill-opacity="0.01"/>
<path d="M859 416H863V413H859V416Z" fill="#6D6D6D" fill-opacity="0.01"/>
<path d="M932 416H935V413H932V416Z" fill="#6D6D6D" fill-opacity="0.01"/>
<path d="M1002 416H1005V413H1002V416Z" fill="#6D6D6D" fill-opacity="0.01"/>
<path d="M1072 416H1076V413H1072V416Z" fill="#A4A4A4" fill-opacity="0.03"/>
<path d="M1143 416H1146V413H1143V416Z" fill="#6D6D6D" fill-opacity="0.01"/>
<path d="M1213 416H1216V413H1213V416Z" fill="#6D6D6D" fill-opacity="0.01"/>
<path d="M1285 416H1289V413H1285V416Z" fill="#6D6D6D" fill-opacity="0.01"/>
<path d="M1355 416H1359V413H1355V416Z" fill="#6D6D6D" fill-opacity="0.01"/>
<path d="M1424 419H1427V416H1424V419Z" fill="#A4A4A4" fill-opacity="0.12"/>
<path d="M1424 489H1358.59V485H1424V489ZM1355.06 489H1287.89V485H1355.06V489ZM1284.35 489H1217.19V485H1284.35V489ZM1213.65 489H1146.48V485H1213.65V489ZM1142.95 489H1075.78V485H1142.95V489ZM1072.25 489H1005.08V485H1072.25V489ZM1001.54 489H934.375V485H1001.54V489ZM930.838 489H863.675V485H930.838V489ZM860.139 489H792.969V485H860.139V489ZM789.436 489H722.267V485H789.436V489ZM718.733 489H651.564V485H718.733V489ZM648.031 489H580.861V485H648.031V489ZM577.328 489H510.159V485H577.328V489ZM506.625 489H439.456V485H506.625V489ZM435.923 489H368.754V485H435.923V489ZM365.217 489H298.051V485H365.217V489ZM294.518 489H227.349V485H294.518V489ZM223.814 489H156.646V485H223.814V489ZM153.11 489H85.9437V485H153.11V489ZM82.4089 489H17V485H82.4089V489Z" fill="#484848" fill-opacity="0.14"/>
<path d="M14 489H17V485H14V489Z" fill="#A4A4A4" fill-opacity="0.03"/>
<path d="M82 489H86V485H82V489Z" fill="#6D6D6D" fill-opacity="0.21"/>
<path d="M152 489H156V485H152V489Z" fill="#6D6D6D" fill-opacity="0.21"/>
<path d="M225 489H228V485H225V489Z" fill="#6D6D6D" fill-opacity="0.01"/>
<path d="M295 489H298V485H295V489Z" fill="#6D6D6D" fill-opacity="0.01"/>
<path d="M365 489H369V485H365V489Z" fill="#A4A4A4" fill-opacity="0.03"/>
<path d="M436 489H439V485H436V489Z" fill="#6D6D6D" fill-opacity="0.01"/>
<path d="M506 489H509V485H506V489Z" fill="#6D6D6D" fill-opacity="0.01"/>
<path d="M578 489H582V485H578V489Z" fill="#6D6D6D" fill-opacity="0.01"/>
<path d="M648 489H652V485H648V489Z" fill="#6D6D6D" fill-opacity="0.01"/>
<path d="M719 489H722V485H719V489Z" fill="#A4A4A4" fill-opacity="0.03"/>
<path d="M789 489H793V485H789V489Z" fill="#6D6D6D" fill-opacity="0.01"/>
<path d="M859 489H863V485H859V489Z" fill="#6D6D6D" fill-opacity="0.01"/>
<path d="M932 489H935V485H932V489Z" fill="#6D6D6D" fill-opacity="0.01"/>
<path d="M1002 489H1005V485H1002V489Z" fill="#6D6D6D" fill-opacity="0.01"/>
<path d="M1072 489H1076V485H1072V489Z" fill="#A4A4A4" fill-opacity="0.03"/>
<path d="M1143 489H1146V485H1143V489Z" fill="#6D6D6D" fill-opacity="0.01"/>
<path d="M1213 489H1216V485H1213V489Z" fill="#6D6D6D" fill-opacity="0.01"/>
<path d="M1285 489H1289V485H1285V489Z" fill="#6D6D6D" fill-opacity="0.01"/>
<path d="M1355 489H1359V485H1355V489Z" fill="#6D6D6D" fill-opacity="0.01"/>
<path d="M1424 492H1427V488H1424V492Z" fill="#A4A4A4" fill-opacity="0.12"/>
<path d="M1424 559H1358.59V555H1424V559ZM1355.06 559H1287.89V555H1355.06V559ZM1284.35 559H1217.19V555H1284.35V559ZM1213.65 559H1146.48V555H1213.65V559ZM1142.95 559H1075.78V555H1142.95V559ZM1072.25 559H1005.08V555H1072.25V559ZM1001.54 559H934.375V555H1001.54V559ZM930.838 559H863.675V555H930.838V559ZM860.139 559H792.969V555H860.139V559ZM789.436 559H722.267V555H789.436V559ZM718.733 559H651.564V555H718.733V559ZM648.031 559H580.861V555H648.031V559ZM577.328 559H510.159V555H577.328V559ZM506.625 559H439.456V555H506.625V559ZM435.923 559H368.754V555H435.923V559ZM365.217 559H298.051V555H365.217V559ZM294.518 559H227.349V555H294.518V559ZM223.814 559H156.646V555H223.814V559ZM153.11 559H85.9437V555H153.11V559ZM82.4089 559H17V555H82.4089V559Z" fill="#484848" fill-opacity="0.14"/>
<path d="M14 559H17V555H14V559Z" fill="#A4A4A4" fill-opacity="0.03"/>
<path d="M82 559H86V555H82V559Z" fill="#6D6D6D" fill-opacity="0.21"/>
<path d="M152 559H156V555H152V559Z" fill="#6D6D6D" fill-opacity="0.21"/>
<path d="M225 559H228V555H225V559Z" fill="#6D6D6D" fill-opacity="0.01"/>
<path d="M295 559H298V555H295V559Z" fill="#6D6D6D" fill-opacity="0.01"/>
<path d="M365 559H369V555H365V559Z" fill="#A4A4A4" fill-opacity="0.03"/>
<path d="M436 559H439V555H436V559Z" fill="#6D6D6D" fill-opacity="0.01"/>
<path d="M506 559H509V555H506V559Z" fill="#6D6D6D" fill-opacity="0.01"/>
<path d="M578 559H582V555H578V559Z" fill="#6D6D6D" fill-opacity="0.01"/>
<path d="M648 559H652V555H648V559Z" fill="#6D6D6D" fill-opacity="0.01"/>
<path d="M719 559H722V555H719V559Z" fill="#A4A4A4" fill-opacity="0.03"/>
<path d="M789 559H793V555H789V559Z" fill="#6D6D6D" fill-opacity="0.01"/>
<path d="M859 559H863V555H859V559Z" fill="#6D6D6D" fill-opacity="0.01"/>
<path d="M932 559H935V555H932V559Z" fill="#6D6D6D" fill-opacity="0.01"/>
<path d="M1002 559H1005V555H1002V559Z" fill="#6D6D6D" fill-opacity="0.01"/>
<path d="M1072 559H1076V555H1072V559Z" fill="#A4A4A4" fill-opacity="0.03"/>
<path d="M1143 559H1146V555H1143V559Z" fill="#6D6D6D" fill-opacity="0.01"/>
<path d="M1213 559H1216V555H1213V559Z" fill="#6D6D6D" fill-opacity="0.01"/>
<path d="M1285 559H1289V555H1285V559Z" fill="#6D6D6D" fill-opacity="0.01"/>
<path d="M1355 559H1359V555H1355V559Z" fill="#6D6D6D" fill-opacity="0.01"/>
<path d="M1424 562H1427V558H1424V562Z" fill="#A4A4A4" fill-opacity="0.12"/>
<path d="M1424 629H1358.59V626H1424V629ZM1355.06 629H1287.89V626H1355.06V629ZM1284.35 629H1217.19V626H1284.35V629ZM1213.65 629H1146.48V626H1213.65V629ZM1142.95 629H1075.78V626H1142.95V629ZM1072.25 629H1005.08V626H1072.25V629ZM1001.54 629H934.375V626H1001.54V629ZM930.838 629H863.675V626H930.838V629ZM860.139 629H792.969V626H860.139V629ZM789.436 629H722.267V626H789.436V629ZM718.733 629H651.564V626H718.733V629ZM648.031 629H580.861V626H648.031V629ZM577.328 629H510.159V626H577.328V629ZM506.625 629H439.456V626H506.625V629ZM435.923 629H368.754V626H435.923V629ZM365.217 629H298.051V626H365.217V629ZM294.518 629H227.349V626H294.518V629ZM223.814 629H156.646V626H223.814V629ZM153.11 629H85.9437V626H153.11V629ZM82.4089 629H17V626H82.4089V629Z" fill="#8D8D8D" fill-opacity="0.15"/>
<path d="M14 629H17V626H14V629Z" fill="#C6C6C6" fill-opacity="0.13"/>
<path d="M82 629H86V626H82V629Z" fill="#A4A4A4" fill-opacity="0.03"/>
<path d="M152 629H156V626H152V629Z" fill="#A4A4A4" fill-opacity="0.03"/>
<path d="M225 629H228V626H225V629Z" fill="#A4A4A4" fill-opacity="0.03"/>
<path d="M295 629H298V626H295V629Z" fill="#A4A4A4" fill-opacity="0.03"/>
<path d="M365 629H369V626H365V629Z" fill="#C6C6C6" fill-opacity="0.04"/>
<path d="M436 629H439V626H436V629Z" fill="#A4A4A4" fill-opacity="0.03"/>
<path d="M506 629H509V626H506V629Z" fill="#A4A4A4" fill-opacity="0.03"/>
<path d="M578 629H582V626H578V629Z" fill="#A4A4A4" fill-opacity="0.03"/>
<path d="M648 629H652V626H648V629Z" fill="#A4A4A4" fill-opacity="0.03"/>
<path d="M719 629H722V626H719V629Z" fill="#C6C6C6" fill-opacity="0.04"/>
<path d="M789 629H793V626H789V629Z" fill="#A4A4A4" fill-opacity="0.03"/>
<path d="M859 629H863V626H859V629Z" fill="#A4A4A4" fill-opacity="0.03"/>
<path d="M932 629H935V626H932V629Z" fill="#A4A4A4" fill-opacity="0.03"/>
<path d="M1002 629H1005V626H1002V629Z" fill="#A4A4A4" fill-opacity="0.03"/>
<path d="M1072 629H1076V626H1072V629Z" fill="#C6C6C6" fill-opacity="0.04"/>
<path d="M1143 629H1146V626H1143V629Z" fill="#A4A4A4" fill-opacity="0.03"/>
<path d="M1213 629H1216V626H1213V629Z" fill="#A4A4A4" fill-opacity="0.03"/>
<path d="M1285 629H1289V626H1285V629Z" fill="#A4A4A4" fill-opacity="0.03"/>
<path d="M1355 629H1359V626H1355V629Z" fill="#A4A4A4" fill-opacity="0.03"/>
<path d="M1424 632H1427V629H1424V632Z" fill="#C6C6C6" fill-opacity="0.29"/>
<path d="M1424 700H1358.59V696H1424V700ZM1355.06 700H1287.89V696H1355.06V700ZM1284.35 700H1217.19V696H1284.35V700ZM1213.65 700H1146.48V696H1213.65V700ZM1142.95 700H1075.78V696H1142.95V700ZM1072.25 700H1005.08V696H1072.25V700ZM1001.54 700H934.375V696H1001.54V700ZM930.838 700H863.675V696H930.838V700ZM860.139 700H792.969V696H860.139V700ZM789.436 700H722.267V696H789.436V700ZM718.733 700H651.564V696H718.733V700ZM648.031 700H580.861V696H648.031V700ZM577.328 700H510.159V696H577.328V700ZM506.625 700H439.456V696H506.625V700ZM435.923 700H368.754V696H435.923V700ZM365.217 700H298.051V696H365.217V700ZM294.518 700H227.349V696H294.518V700ZM223.814 700H156.646V696H223.814V700ZM153.11 700H85.9437V696H153.11V700ZM82.4089 700H17V696H82.4089V700Z" fill="#484848" fill-opacity="0.14"/>
<path d="M14 700H17V696H14V700Z" fill="#A4A4A4" fill-opacity="0.03"/>
<path d="M82 700H86V696H82V700Z" fill="#6D6D6D" fill-opacity="0.21"/>
<path d="M152 700H156V696H152V700Z" fill="#6D6D6D" fill-opacity="0.21"/>
<path d="M225 700H228V696H225V700Z" fill="#6D6D6D" fill-opacity="0.01"/>
<path d="M295 700H298V696H295V700Z" fill="#6D6D6D" fill-opacity="0.01"/>
<path d="M365 700H369V696H365V700Z" fill="#A4A4A4" fill-opacity="0.03"/>
<path d="M436 700H439V696H436V700Z" fill="#6D6D6D" fill-opacity="0.01"/>
<path d="M506 700H509V696H506V700Z" fill="#6D6D6D" fill-opacity="0.01"/>
<path d="M578 700H582V696H578V700Z" fill="#6D6D6D" fill-opacity="0.01"/>
<path d="M648 700H652V696H648V700Z" fill="#6D6D6D" fill-opacity="0.01"/>
<path d="M719 700H722V696H719V700Z" fill="#A4A4A4" fill-opacity="0.03"/>
<path d="M789 700H793V696H789V700Z" fill="#6D6D6D" fill-opacity="0.01"/>
<path d="M859 700H863V696H859V700Z" fill="#6D6D6D" fill-opacity="0.01"/>
<path d="M932 700H935V696H932V700Z" fill="#6D6D6D" fill-opacity="0.01"/>
<path d="M1002 700H1005V696H1002V700Z" fill="#6D6D6D" fill-opacity="0.01"/>
<path d="M1072 700H1076V696H1072V700Z" fill="#A4A4A4" fill-opacity="0.03"/>
<path d="M1143 700H1146V696H1143V700Z" fill="#6D6D6D" fill-opacity="0.01"/>
<path d="M1213 700H1216V696H1213V700Z" fill="#6D6D6D" fill-opacity="0.01"/>
<path d="M1285 700H1289V696H1285V700Z" fill="#6D6D6D" fill-opacity="0.01"/>
<path d="M1355 700H1359V696H1355V700Z" fill="#6D6D6D" fill-opacity="0.01"/>
<path d="M1424 703H1427V699H1424V703Z" fill="#A4A4A4" fill-opacity="0.12"/>
<path d="M1424 770H1358.59V766H1424V770ZM1355.06 770H1287.89V766H1355.06V770ZM1284.35 770H1217.19V766H1284.35V770ZM1213.65 770H1146.48V766H1213.65V770ZM1142.95 770H1075.78V766H1142.95V770ZM1072.25 770H1005.08V766H1072.25V770ZM1001.54 770H934.375V766H1001.54V770ZM930.838 770H863.675V766H930.838V770ZM860.139 770H792.969V766H860.139V770ZM789.436 770H722.267V766H789.436V770ZM718.733 770H651.564V766H718.733V770ZM648.031 770H580.861V766H648.031V770ZM577.328 770H510.159V766H577.328V770ZM506.625 770H439.456V766H506.625V770ZM435.923 770H368.754V766H435.923V770ZM365.217 770H298.051V766H365.217V770ZM294.518 770H227.349V766H294.518V770ZM223.814 770H156.646V766H223.814V770ZM153.11 770H85.9437V766H153.11V770ZM82.4089 770H17V766H82.4089V770Z" fill="#484848" fill-opacity="0.14"/>
<path d="M14 770H17V766H14V770Z" fill="#A4A4A4" fill-opacity="0.03"/>
<path d="M82 770H86V766H82V770Z" fill="#6D6D6D" fill-opacity="0.21"/>
<path d="M152 770H156V766H152V770Z" fill="#6D6D6D" fill-opacity="0.21"/>
<path d="M225 770H228V766H225V770Z" fill="#6D6D6D" fill-opacity="0.01"/>
<path d="M295 770H298V766H295V770Z" fill="#6D6D6D" fill-opacity="0.01"/>
<path d="M365 770H369V766H365V770Z" fill="#A4A4A4" fill-opacity="0.03"/>
<path d="M436 770H439V766H436V770Z" fill="#6D6D6D" fill-opacity="0.01"/>
<path d="M506 770H509V766H506V770Z" fill="#6D6D6D" fill-opacity="0.01"/>
<path d="M578 770H582V766H578V770Z" fill="#6D6D6D" fill-opacity="0.01"/>
<path d="M648 770H652V766H648V770Z" fill="#6D6D6D" fill-opacity="0.01"/>
<path d="M719 770H722V766H719V770Z" fill="#A4A4A4" fill-opacity="0.03"/>
<path d="M789 770H793V766H789V770Z" fill="#6D6D6D" fill-opacity="0.01"/>
<path d="M859 770H863V766H859V770Z" fill="#6D6D6D" fill-opacity="0.01"/>
<path d="M932 770H935V766H932V770Z" fill="#6D6D6D" fill-opacity="0.01"/>
<path d="M1002 770H1005V766H1002V770Z" fill="#6D6D6D" fill-opacity="0.01"/>
<path d="M1072 770H1076V766H1072V770Z" fill="#A4A4A4" fill-opacity="0.03"/>
<path d="M1143 770H1146V766H1143V770Z" fill="#6D6D6D" fill-opacity="0.01"/>
<path d="M1213 770H1216V766H1213V770Z" fill="#6D6D6D" fill-opacity="0.01"/>
<path d="M1285 770H1289V766H1285V770Z" fill="#6D6D6D" fill-opacity="0.01"/>
<path d="M1355 770H1359V766H1355V770Z" fill="#6D6D6D" fill-opacity="0.01"/>
<path d="M1424 773H1427V769H1424V773Z" fill="#A4A4A4" fill-opacity="0.12"/>
<path d="M1424 842H1358.59V839H1424V842ZM1355.06 842H1287.89V839H1355.06V842ZM1284.35 842H1217.19V839H1284.35V842ZM1213.65 842H1146.48V839H1213.65V842ZM1142.95 842H1075.78V839H1142.95V842ZM1072.25 842H1005.08V839H1072.25V842ZM1001.54 842H934.375V839H1001.54V842ZM930.838 842H863.675V839H930.838V842ZM860.139 842H792.969V839H860.139V842ZM789.436 842H722.267V839H789.436V842ZM718.733 842H651.564V839H718.733V842ZM648.031 842H580.861V839H648.031V842ZM577.328 842H510.159V839H577.328V842ZM506.625 842H439.456V839H506.625V842ZM435.923 842H368.754V839H435.923V842ZM365.217 842H298.051V839H365.217V842ZM294.518 842H227.349V839H294.518V842ZM223.814 842H156.646V839H223.814V842ZM153.11 842H85.9437V839H153.11V842ZM82.4089 842H17V839H82.4089V842Z" fill="#484848" fill-opacity="0.14"/>
<path d="M14 842H17V839H14V842Z" fill="#A4A4A4" fill-opacity="0.03"/>
<path d="M82 842H86V839H82V842Z" fill="#6D6D6D" fill-opacity="0.21"/>
<path d="M152 842H156V839H152V842Z" fill="#6D6D6D" fill-opacity="0.21"/>
<path d="M225 842H228V839H225V842Z" fill="#6D6D6D" fill-opacity="0.01"/>
<path d="M295 842H298V839H295V842Z" fill="#6D6D6D" fill-opacity="0.01"/>
<path d="M365 842H369V839H365V842Z" fill="#A4A4A4" fill-opacity="0.03"/>
<path d="M436 842H439V839H436V842Z" fill="#6D6D6D" fill-opacity="0.01"/>
<path d="M506 842H509V839H506V842Z" fill="#6D6D6D" fill-opacity="0.01"/>
<path d="M578 842H582V839H578V842Z" fill="#6D6D6D" fill-opacity="0.01"/>
<path d="M648 842H652V839H648V842Z" fill="#6D6D6D" fill-opacity="0.01"/>
<path d="M719 842H722V839H719V842Z" fill="#A4A4A4" fill-opacity="0.03"/>
<path d="M789 842H793V839H789V842Z" fill="#6D6D6D" fill-opacity="0.01"/>
<path d="M859 842H863V839H859V842Z" fill="#6D6D6D" fill-opacity="0.01"/>
<path d="M932 842H935V839H932V842Z" fill="#6D6D6D" fill-opacity="0.01"/>
<path d="M1002 842H1005V839H1002V842Z" fill="#6D6D6D" fill-opacity="0.01"/>
<path d="M1072 842H1076V839H1072V842Z" fill="#A4A4A4" fill-opacity="0.03"/>
<path d="M1143 842H1146V839H1143V842Z" fill="#6D6D6D" fill-opacity="0.01"/>
<path d="M1213 842H1216V839H1213V842Z" fill="#6D6D6D" fill-opacity="0.01"/>
<path d="M1285 842H1289V839H1285V842Z" fill="#6D6D6D" fill-opacity="0.01"/>
<path d="M1355 842H1359V839H1355V842Z" fill="#6D6D6D" fill-opacity="0.01"/>
<path d="M1424 845H1427V842H1424V845Z" fill="#A4A4A4" fill-opacity="0.12"/>
<path d="M17 288H14V262H17V288Z" fill="white" fill-opacity="0.17"/>
<path d="M3 278V274H28V278H3Z" fill="white" fill-opacity="0.17"/>
<path d="M1427 289H1424V263H1427V289Z" fill="white" fill-opacity="0.24"/>
<path d="M1413 276V272H1438V276H1413Z" fill="white" fill-opacity="0.24"/>
<path d="M17 640H14V615H17V640Z" fill="white" fill-opacity="0.17"/>
<path d="M3 629V626H28V629H3Z" fill="white" fill-opacity="0.17"/>
<path d="M1427 643H1424V618H1427V643Z" fill="white" fill-opacity="0.24"/>
<path d="M1413 629V626H1438V629H1413Z" fill="white" fill-opacity="0.24"/>
<path d="M369 286H365V260H369V286Z" fill="white" fill-opacity="0.17"/>
<path d="M353 276V272H379V276H353Z" fill="white" fill-opacity="0.17"/>
<path d="M369 640H365V615H369V640Z" fill="white" fill-opacity="0.17"/>
<path d="M355 629V626H381V629H355Z" fill="white" fill-opacity="0.17"/>
<path d="M722 288H719V262H722V288Z" fill="white" fill-opacity="0.17"/>
<path d="M708 276V272H733V276H708Z" fill="white" fill-opacity="0.17"/>
<path d="M722 640H719V615H722V640Z" fill="white" fill-opacity="0.17"/>
<path d="M708 629V626H733V629H708Z" fill="white" fill-opacity="0.17"/>
<path d="M1076 288H1072V262H1076V288Z" fill="white" fill-opacity="0.17"/>
<path d="M1060 276V272H1086V276H1060Z" fill="white" fill-opacity="0.17"/>
<path d="M1076 640H1072V615H1076V640Z" fill="white" fill-opacity="0.17"/>
<path d="M1061 629V626H1087V629H1061Z" fill="white" fill-opacity="0.17"/>
<path d="M193 100H189V96H193V100Z" fill="white" fill-opacity="0.17"/>
<path d="M546 100H543V96H546V100Z" fill="white" fill-opacity="0.17"/>
<path d="M898 100H895V96H898V100Z" fill="white" fill-opacity="0.17"/>
<path d="M1252 100H1248V96H1252V100Z" fill="white" fill-opacity="0.17"/>
<path d="M193 453H189V450H193V453Z" fill="white" fill-opacity="0.17"/>
<path d="M546 453H543V450H546V453Z" fill="white" fill-opacity="0.17"/>
<path d="M898 453H895V450H898V453Z" fill="white" fill-opacity="0.17"/>
<path d="M1252 453H1248V450H1252V453Z" fill="white" fill-opacity="0.17"/>
<path d="M193 805H189V802H193V805Z" fill="white" fill-opacity="0.17"/>
<path d="M546 805H543V802H546V805Z" fill="white" fill-opacity="0.17"/>
<path d="M898 805H895V802H898V805Z" fill="white" fill-opacity="0.17"/>
<path d="M1252 805H1248V802H1252V805Z" fill="white" fill-opacity="0.17"/>
<circle r="277.5" transform="matrix(1 0 0 -1 711.5 1149.5)" stroke="white" stroke-opacity="0.06" stroke-width="2"/>
<circle r="347" transform="matrix(1 0 0 -1 711 1149)" stroke="white" stroke-opacity="0.06" stroke-width="2"/>
<circle r="449" transform="matrix(1 0 0 -1 711 1149)" stroke="white" stroke-opacity="0.06" stroke-width="2"/>
<circle r="593" transform="matrix(1 0 0 -1 711 1149)" stroke="white" stroke-opacity="0.06" stroke-width="2"/>
<path d="M816.767 970.249L1012.82 637.589" stroke="white" stroke-opacity="0.06" stroke-width="2"/>
<line y1="-1" x2="385.352" y2="-1" transform="matrix(-0.5 -0.866025 -0.866025 0.5 606.944 967.996)" stroke="white" stroke-opacity="0.06" stroke-width="2"/>
<path d="M529.214 1042.2L198.5 851" stroke="white" stroke-opacity="0.06" stroke-width="2"/>
<path d="M894.805 1042.03L1225.9 854.155" stroke="white" stroke-opacity="0.06" stroke-width="2"/>
<circle cx="720.5" cy="-246.5" r="277.5" stroke="white" stroke-opacity="0.06" stroke-width="2"/>
<circle cx="720" cy="-246" r="347" stroke="white" stroke-opacity="0.06" stroke-width="2"/>
<circle cx="720" cy="-246" r="449" stroke="white" stroke-opacity="0.06" stroke-width="2"/>
<circle cx="720" cy="-246" r="593" stroke="white" stroke-opacity="0.06" stroke-width="2"/>
<path d="M816.767 -67.2489L1012.82 265.411" stroke="white" stroke-opacity="0.06" stroke-width="2"/>
<line x1="607.81" y1="-64.4958" x2="415.134" y2="269.229" stroke="white" stroke-opacity="0.06" stroke-width="2"/>
<path d="M529.214 -139.198L198.5 52" stroke="white" stroke-opacity="0.06" stroke-width="2"/>
<path d="M894.805 -139.031L1225.9 48.8445" stroke="white" stroke-opacity="0.06" stroke-width="2"/>
</g>
<defs>
<radialGradient id="paint0_radial" cx="0" cy="0" r="1" gradientUnits="userSpaceOnUse" gradientTransform="translate(720 450) rotate(90) scale(450 720)">
<stop stop-color="#010304" stop-opacity="0.9"/>
<stop offset="1" stop-color="#070707"/>
</radialGradient>
<clipPath id="clip0">
<rect width="1440" height="900" fill="white"/>
</clipPath>
</defs>
</svg>
