<svg width="41" height="41" viewBox="0 0 41 41" fill="none" xmlns="http://www.w3.org/2000/svg">
<g clip-path="url(#clip0)">
<path d="M18.7724 27.5728C18.7479 27.5728 18.7225 27.5718 18.698 27.5694C13.6331 27.1258 10.096 24.8947 10.096 22.144C10.096 21.295 10.2339 20.6533 10.9406 19.8865C11.2572 19.5429 11.7922 19.5201 12.1366 19.8366C12.4804 20.1532 12.5031 20.689 12.1865 21.0326C11.8387 21.4101 11.7888 21.609 11.7888 22.144C11.7888 23.8943 14.8883 25.5363 18.8452 25.8824C19.3108 25.9232 19.6561 26.3335 19.6146 26.7991C19.5764 27.24 19.2067 27.5728 18.7724 27.5728Z" fill="#A70379"/>
<path d="M22.1437 27.5323C21.718 27.5323 21.3515 27.2115 21.3033 26.778C21.2524 26.3133 21.5876 25.8952 22.0523 25.8436C26.0388 25.4061 28.7167 23.6861 28.7167 22.3556C28.7167 21.6895 28.6008 21.4812 28.2352 20.9244C27.9787 20.5333 28.088 20.0086 28.4781 19.7521C28.87 19.4956 29.3948 19.6049 29.6504 19.9949C30.1227 20.7153 30.4096 21.2332 30.4096 22.3556C30.4096 24.8313 26.9724 27.0058 22.2376 27.5272C22.2063 27.5306 22.175 27.5323 22.1437 27.5323Z" fill="#A70379"/>
<path d="M20.0666 26.3505L17.9505 24.2345C17.7693 24.0533 17.4959 23.9993 17.2589 24.0966C17.022 24.1947 16.8672 24.4267 16.8672 24.6832L16.8672 28.9151C16.8672 29.1716 17.022 29.4036 17.2589 29.5017C17.3377 29.5339 17.4198 29.5499 17.502 29.5499C17.667 29.5499 17.8294 29.4856 17.9505 29.3638L20.0666 27.2478C20.3145 26.9997 20.3145 26.5986 20.0666 26.3505V26.3505Z" fill="#A70379"/>
</g>
<defs>
<clipPath id="clip0">
<rect width="20.3136" height="20.3136" fill="white" transform="translate(10.096 10.0959)"/>
</clipPath>
</defs>
</svg>
