<svg width="329" height="215" viewBox="0 0 329 215" fill="none" xmlns="http://www.w3.org/2000/svg">
<path fill-rule="evenodd" clip-rule="evenodd" d="M5.14255 4.90791L4 3L6.18547 3.4114C24.4951 6.85809 37.8972 8.71032 51.0247 8.85512C64.1459 8.99984 77.0329 7.43901 94.3058 4.01914L94.6942 5.98105C94.5595 6.00772 94.4251 6.03428 94.2909 6.06072C102.673 30.3847 123.009 46.728 145.881 53.0546C149.307 42.6426 151.274 34.9454 152.485 29.5102C152.507 24.4993 154.046 20.7342 156.431 18.0608C158.822 15.38 162 13.8694 165.16 13.2523C168.312 12.6368 171.512 12.8966 174.008 13.8296C176.215 14.6546 178.104 16.1127 178.62 18.1667C179.131 18.3191 179.623 18.4641 180.095 18.6034L180.096 18.6036L180.102 18.6053C181.597 19.0466 182.895 19.4297 184.016 19.8035C185.634 20.3429 186.972 20.89 188.109 21.6257C190.45 23.1404 191.758 25.3375 193.232 29.2701L193.929 31.1278L192.021 30.5827C188.711 29.6369 186.34 29.4416 184.048 29.9997C181.865 30.5313 179.651 31.77 176.708 33.9331L183.169 54.3255C205.541 49.4993 225.449 34.0355 234.034 6.04179L235.946 6.62817C227.154 35.2969 206.744 51.2004 183.834 56.2254L190.722 73.3873C225.207 66.4608 256.018 45.6058 268.806 10.3584C258.521 9.77271 247.761 8.14504 234.306 5.48105L234.694 3.51914C251.975 6.94058 264.692 8.62567 277.643 8.60506C290.597 8.58444 303.826 6.85728 322.131 3.4114L324.316 3L323.174 4.90791C315.152 18.3038 309.107 27.6404 300.172 33.7268C291.649 39.5332 280.614 42.3112 263.019 43.1248C264.08 43.9477 265.045 44.7074 265.941 45.4129C268.931 47.7665 271.156 49.5187 273.648 51.0134C277.309 53.2092 281.529 54.8262 289.563 56.7887L291.626 57.2925L289.924 58.5618C277.888 67.5368 268.336 72.9222 257.924 75.0687C247.93 77.129 237.253 76.1828 222.978 72.7581C225.128 78.5425 227.375 82.7084 230.194 86.3164C233.295 90.2869 237.124 93.6289 242.395 97.7225L244.189 99.1153L241.95 99.498C230.573 101.443 221.831 101.59 213.719 98.5225C205.614 95.4578 198.281 89.2394 189.587 78.7753L191.126 77.4972C199.739 87.8644 206.803 93.7689 214.426 96.6518C221.527 99.3371 229.238 99.4483 239.372 97.8909C234.949 94.3695 231.498 91.2348 228.618 87.5476C225.351 83.3658 222.855 78.5206 220.462 71.6741L219.851 69.9264L221.647 70.3738C236.731 74.1302 247.54 75.1672 257.52 73.1099C267.023 71.1509 275.881 66.3644 287.028 58.2143C280.194 56.4487 276.185 54.8672 272.62 52.7285C270.017 51.1677 267.642 49.2984 264.579 46.8874C263.114 45.7347 261.492 44.4581 259.613 43.0321L257.37 41.3306L260.184 41.236C279.288 40.594 290.56 37.8551 299.046 32.0739C307.152 26.552 312.835 18.184 320.314 5.78486C303.077 8.96917 290.254 10.585 277.646 10.6051C275.289 10.6088 272.94 10.5568 270.573 10.449L270.862 10.5518C257.418 48.2256 223.983 69.8026 187.28 76.0567L188.208 76.8418C178.643 88.146 171.424 104.203 166.524 115.104L166.524 115.105L166.52 115.112C166.011 116.245 165.527 117.322 165.068 118.332L164.451 119.69L164.88 120.137C181.944 137.935 194.504 153.058 200.47 176.756L198.53 177.244C192.783 154.415 180.808 139.703 164.183 122.302C146.702 141.914 136.41 158.074 132.482 178.383L130.518 178.004C134.601 156.897 145.397 140.247 163.413 120.162L163.956 119.557L163.294 118.422C161.563 115.455 160.088 112.193 158.63 108.791C158.245 107.893 157.861 106.986 157.475 106.071L157.474 106.07L157.473 106.067L157.472 106.066C156.388 103.501 155.278 100.874 154.034 98.2077C150.666 90.992 146.366 83.5981 139.218 76.9269L140.238 75.8342C103.408 69.2243 70.1502 47.3662 57.5354 10.7873C55.3517 10.8566 53.1809 10.879 51.0026 10.855C38.2334 10.7142 25.2482 8.9784 8.00301 5.78536C15.4814 18.1842 21.1647 26.5521 29.2702 32.0739C37.7566 37.8551 49.0283 40.594 68.1326 41.236L70.9461 41.3306L68.7035 43.0321C66.8241 44.458 65.2022 45.7346 63.7376 46.8873L63.7374 46.8874L63.7373 46.8875L63.7373 46.8876C60.674 49.2985 58.299 51.1677 55.6968 52.7285C52.1311 54.8672 48.1227 56.4487 41.2885 58.2143C52.4359 66.3644 61.2937 71.1509 70.7963 73.1099C80.776 75.1672 91.5856 74.1302 106.669 70.3738L108.466 69.9264L107.855 71.6741C105.462 78.5206 102.965 83.3658 99.6989 87.5476C96.8187 91.2348 93.3675 94.3695 88.944 97.8909C99.078 99.4483 106.79 99.3371 113.89 96.6518C121.514 93.7689 128.577 87.8644 137.191 77.4972L138.729 78.7753C130.035 89.2394 122.702 95.4578 114.598 98.5225C106.485 101.59 97.7437 101.443 86.366 99.498L84.1278 99.1153L85.9212 97.7225C91.1921 93.6289 95.0213 90.2869 98.1228 86.3164C100.941 82.7084 103.188 78.5425 105.338 72.7581C91.0631 76.1828 80.3866 77.129 70.3925 75.0687C59.9806 72.9222 50.4282 67.5368 38.3925 58.5618L36.6905 57.2925L38.7531 56.7887C46.787 54.8262 51.0073 53.2092 54.6681 51.0134C57.1601 49.5187 59.3856 47.7665 62.3751 45.4129L62.3751 45.4129C63.2713 44.7074 64.2361 43.9477 65.2974 43.1248C47.7026 42.3112 36.6677 39.5332 28.1442 33.7268C19.2099 27.6404 13.1646 18.3038 5.14255 4.90791ZM181.197 54.7222L174.587 33.8578L174.372 33.1819L174.939 32.7561C178.217 30.2946 180.842 28.7219 183.575 28.0565C185.805 27.5134 188.029 27.5921 190.637 28.1665C189.516 25.5749 188.497 24.2586 187.023 23.3049C186.098 22.7065 184.949 22.2227 183.384 21.7008C182.297 21.3385 181.051 20.971 179.577 20.5358L179.576 20.5357C178.917 20.3411 178.212 20.133 177.454 19.9058L176.809 19.7123L176.746 19.0418C176.626 17.7621 175.475 16.5132 173.308 15.7031C171.19 14.9117 168.369 14.6635 165.544 15.2152C162.727 15.7652 159.971 17.0969 157.923 19.3923C155.886 21.6755 154.484 24.9846 154.484 29.6212V29.731L154.461 29.8381C153.241 35.325 151.264 43.0817 147.818 53.5651C153.078 54.8821 158.456 55.6726 163.84 55.9124C169.671 56.1721 175.504 55.7855 181.197 54.7222ZM147.187 55.4671C152.626 56.84 158.188 57.6626 163.751 57.9104C169.826 58.1809 175.908 57.7661 181.843 56.6336L188.722 73.7727C180.363 75.3151 171.807 76.0463 163.254 75.9727C155.611 75.9069 147.983 75.1985 140.513 73.8544C143.176 66.9952 145.371 60.8852 147.187 55.4671ZM145.25 54.9534C121.844 48.4463 100.985 31.6869 92.382 6.66006L93.9045 6.13671C80.6649 8.73459 69.9338 10.2405 59.6254 10.7068C71.8521 45.4005 103.255 66.5707 138.513 73.4787C141.207 66.5581 143.422 60.4027 145.25 54.9534ZM163.237 77.9726C155.826 77.9088 148.417 77.2477 141.141 75.9931C148.214 82.766 152.508 90.2098 155.846 97.3619C157.108 100.065 158.239 102.743 159.328 105.318L159.329 105.321L159.329 105.321L159.33 105.324L159.331 105.327C159.714 106.233 160.092 107.126 160.468 108.003C161.635 110.728 162.791 113.307 164.065 115.696C164.272 115.235 164.484 114.763 164.702 114.279C169.485 103.632 176.625 87.7422 186.094 76.2533C178.557 77.4676 170.89 78.0385 163.237 77.9726ZM165.942 142.447C165.57 141.725 165.194 140.988 164.814 140.235C164.438 140.991 164.066 141.729 163.696 142.451C155.451 158.524 148.311 166.441 134.51 177.258C133.949 177.697 133.377 178.141 132.794 178.591C133.439 178.948 134.069 179.303 134.687 179.656C148.794 187.713 155.874 194.714 165.073 209.014C165.477 209.643 165.885 210.285 166.298 210.942C166.669 210.26 167.036 209.594 167.4 208.942C175.334 194.761 182.098 187.529 196.665 178.632C197.31 178.237 197.972 177.839 198.649 177.437C197.958 177.063 197.283 176.69 196.624 176.318C181.323 167.661 174.56 159.154 165.942 142.447ZM164.821 144.627C160.909 152.101 157.167 157.867 152.77 163.051C148.238 168.393 143.058 173.062 136.387 178.326C143.19 182.26 148.437 186.019 153.116 190.561C157.747 195.056 161.764 200.26 166.177 207.039C169.992 200.324 173.63 195.085 178.08 190.444C182.545 185.786 187.766 181.793 194.676 177.507C187.371 173.278 181.936 168.997 177.276 163.723C172.682 158.524 168.903 152.426 164.821 144.627Z" fill="white"/>
<path d="M4 3L4.36999 1.03452L-0.000957012 0.211719L2.28414 4.02754L4 3ZM5.14255 4.90791L6.85841 3.88037L6.8584 3.88037L5.14255 4.90791ZM6.18547 3.4114L6.55546 1.44592L6.55546 1.44592L6.18547 3.4114ZM51.0247 8.85512L51.0468 6.85524L51.0247 8.85512ZM94.3058 4.01914L96.2677 3.6307L95.8792 1.66878L93.9173 2.05722L94.3058 4.01914ZM94.6942 5.98105L95.0826 7.94297L97.0446 7.55453L96.6561 5.59261L94.6942 5.98105ZM94.2909 6.06072L93.9042 4.09847L91.6523 4.54232L92.4 6.71231L94.2909 6.06072ZM145.881 53.0546L145.348 54.9822L147.185 55.4904L147.781 53.6797L145.881 53.0546ZM152.485 29.5102L154.437 29.9452L154.484 29.7347L154.485 29.5191L152.485 29.5102ZM156.431 18.0608L154.938 16.7294L156.431 18.0608ZM165.16 13.2523L164.777 11.2893L165.16 13.2523ZM174.008 13.8296L173.308 15.7031L174.008 13.8296ZM178.62 18.1667L176.68 18.6533L176.957 19.7584L178.049 20.0835L178.62 18.1667ZM180.095 18.6034L179.529 20.5216L179.535 20.5234L180.095 18.6034ZM180.096 18.6036L180.661 16.6851L180.656 16.6836L180.096 18.6036ZM180.102 18.6053L180.668 16.6871L180.666 16.6868L180.102 18.6053ZM184.016 19.8035L184.649 17.9061L184.649 17.9061L184.016 19.8035ZM188.109 21.6257L187.023 23.3049L187.023 23.3049L188.109 21.6257ZM193.232 29.2701L191.36 29.9723V29.9723L193.232 29.2701ZM193.929 31.1278L193.38 33.0508L197.195 34.1409L195.802 30.4255L193.929 31.1278ZM192.021 30.5827L192.571 28.6597L192.021 30.5827ZM184.048 29.9997L184.521 31.9429L184.048 29.9997ZM176.708 33.9331L175.524 32.3217L174.369 33.1707L174.802 34.5372L176.708 33.9331ZM183.169 54.3255L181.262 54.9295L181.812 56.6642L183.591 56.2805L183.169 54.3255ZM234.034 6.04179L234.62 4.12968L232.708 3.5433L232.122 5.45541L234.034 6.04179ZM235.946 6.62817L237.858 7.21455L238.445 5.30244L236.533 4.71606L235.946 6.62817ZM183.834 56.2254L183.405 54.2718L181.098 54.7779L181.978 56.9704L183.834 56.2254ZM190.722 73.3873L188.866 74.1322L189.485 75.6756L191.116 75.3481L190.722 73.3873ZM268.806 10.3584L270.686 11.0405L271.602 8.51444L268.919 8.36166L268.806 10.3584ZM234.306 5.48105L232.344 5.09263L231.955 7.05453L233.917 7.44297L234.306 5.48105ZM234.694 3.51914L235.083 1.55722L233.121 1.16878L232.732 3.13071L234.694 3.51914ZM277.643 8.60506L277.646 10.6051L277.643 8.60506ZM322.131 3.4114L322.501 5.37688L322.131 3.4114ZM324.316 3L326.032 4.02752L328.317 0.211726L323.946 1.03452L324.316 3ZM323.174 4.90791L324.89 5.93544L324.89 5.93542L323.174 4.90791ZM300.172 33.7268L299.046 32.0739L300.172 33.7268ZM263.019 43.1248L262.927 41.1269L257.502 41.3777L261.793 44.7053L263.019 43.1248ZM265.941 45.4129L264.704 46.9843V46.9843L265.941 45.4129ZM273.648 51.0134L274.677 49.2983L273.648 51.0134ZM289.563 56.7887L289.089 58.7315V58.7315L289.563 56.7887ZM291.626 57.2925L292.822 58.8958L296.226 56.3573L292.101 55.3496L291.626 57.2925ZM289.924 58.5618L291.119 60.1651L289.924 58.5618ZM257.924 75.0687L258.328 77.0275L257.924 75.0687ZM222.978 72.7581L223.445 70.8133L219.796 69.938L221.103 73.455L222.978 72.7581ZM230.194 86.3164L231.77 85.0852V85.0852L230.194 86.3164ZM242.395 97.7225L241.168 99.3021L241.168 99.3021L242.395 97.7225ZM244.189 99.1153L244.526 101.087L249.002 100.321L245.415 97.5357L244.189 99.1153ZM241.95 99.498L241.613 97.5266L241.95 99.498ZM213.719 98.5225L213.011 100.393L213.719 98.5225ZM189.587 78.7753L188.309 77.2369L186.771 78.515L188.049 80.0534L189.587 78.7753ZM191.126 77.4972L192.664 76.219L191.386 74.6807L189.848 75.9588L191.126 77.4972ZM214.426 96.6518L213.719 98.5225L214.426 96.6518ZM239.372 97.8909L239.676 99.8677L244.195 99.1734L240.618 96.3262L239.372 97.8909ZM228.618 87.5476L230.194 86.3164L228.618 87.5476ZM220.462 71.6741L218.574 72.334L218.574 72.3341L220.462 71.6741ZM219.851 69.9264L220.334 67.9857L216.741 67.0909L217.963 70.5863L219.851 69.9264ZM221.647 70.3738L221.164 72.3145L221.647 70.3738ZM257.52 73.1099L257.116 71.1511L257.52 73.1099ZM287.028 58.2143L288.208 59.8288L291.619 57.3348L287.528 56.2779L287.028 58.2143ZM272.62 52.7285L271.591 54.4437V54.4437L272.62 52.7285ZM264.579 46.8874L263.342 48.459L263.342 48.4591L264.579 46.8874ZM259.613 43.0321L260.822 41.4388V41.4388L259.613 43.0321ZM257.37 41.3306L257.303 39.3317L251.676 39.5208L256.161 42.9239L257.37 41.3306ZM260.184 41.236L260.117 39.2372L260.184 41.236ZM299.046 32.0739L300.172 33.7268V33.7268L299.046 32.0739ZM320.314 5.78486L322.026 6.81781L324.323 3.01035L319.95 3.81814L320.314 5.78486ZM277.646 10.6051L277.649 12.6051L277.646 10.6051ZM270.573 10.449L270.664 8.4511L269.901 12.3327L270.573 10.449ZM270.862 10.5518L272.745 11.224L273.417 9.34031L271.534 8.66815L270.862 10.5518ZM187.28 76.0567L186.944 74.0851L182.707 74.8071L185.988 77.5834L187.28 76.0567ZM188.208 76.8418L189.735 78.1337L191.027 76.6069L189.5 75.315L188.208 76.8418ZM166.524 115.104L164.7 114.284L164.693 114.3L164.686 114.316L166.524 115.104ZM166.524 115.105L168.346 115.929L168.354 115.911L168.362 115.893L166.524 115.105ZM166.52 115.112L164.698 114.288L164.696 114.292L166.52 115.112ZM165.068 118.332L166.889 119.16V119.16L165.068 118.332ZM164.451 119.69L162.63 118.863L162.069 120.096L163.007 121.074L164.451 119.69ZM164.88 120.137L166.323 118.753L166.323 118.753L164.88 120.137ZM200.47 176.756L200.958 178.695L202.897 178.207L202.409 176.268L200.47 176.756ZM198.53 177.244L196.591 177.732L197.079 179.672L199.019 179.184L198.53 177.244ZM164.183 122.302L165.629 120.92L164.132 119.353L162.69 120.971L164.183 122.302ZM132.482 178.383L132.102 180.347L134.066 180.727L134.445 178.763L132.482 178.383ZM130.518 178.004L128.555 177.624L128.175 179.587L130.138 179.967L130.518 178.004ZM163.413 120.162L161.925 118.826V118.826L163.413 120.162ZM163.956 119.557L165.445 120.893L166.418 119.808L165.683 118.549L163.956 119.557ZM163.294 118.422L161.566 119.43V119.43L163.294 118.422ZM158.63 108.791L160.468 108.003L158.63 108.791ZM157.475 106.071L155.629 106.842L155.632 106.85L157.475 106.071ZM157.474 106.07L159.319 105.299L159.319 105.298L157.474 106.07ZM157.473 106.067L159.318 105.296L159.313 105.284L159.309 105.273L157.473 106.067ZM157.472 106.066L155.63 106.844L155.633 106.852L155.637 106.859L157.472 106.066ZM154.034 98.2077L152.221 99.0535L154.034 98.2077ZM139.218 76.9269L137.756 75.5623L136.391 77.0244L137.853 78.389L139.218 76.9269ZM140.238 75.8342L141.7 77.1988L144.206 74.5143L140.591 73.8656L140.238 75.8342ZM57.5354 10.7873L59.4261 10.1353L58.9454 8.74155L57.4719 8.78832L57.5354 10.7873ZM51.0026 10.855L50.9806 12.8549L51.0026 10.855ZM8.00301 5.78536L8.36713 3.81878L3.9927 3.00884L6.29041 6.81832L8.00301 5.78536ZM29.2702 32.0739L30.3963 30.421L29.2702 32.0739ZM68.1326 41.236L68.1998 39.2372L68.1326 41.236ZM70.9461 41.3306L72.155 42.9239L76.6403 39.5208L71.0133 39.3317L70.9461 41.3306ZM68.7035 43.0321L67.4946 41.4388H67.4946L68.7035 43.0321ZM63.7376 46.8873L64.9203 48.5001L64.9478 48.48L64.9745 48.4589L63.7376 46.8873ZM63.7374 46.8874L62.5547 45.2746L62.5208 45.2995L62.488 45.3257L63.7374 46.8874ZM63.7373 46.8875L64.9373 48.4875L64.9623 48.4687L64.9867 48.4492L63.7373 46.8875ZM63.7373 46.8876L62.5373 45.2876L62.5186 45.3015L62.5003 45.3159L63.7373 46.8876ZM55.6968 52.7285L54.6681 51.0134L55.6968 52.7285ZM41.2885 58.2143L40.7882 56.2779L36.697 57.3348L40.1081 59.8288L41.2885 58.2143ZM70.7963 73.1099L71.2001 71.1511L70.7963 73.1099ZM106.669 70.3738L107.152 72.3145L106.669 70.3738ZM108.466 69.9264L110.354 70.5863L111.575 67.0908L107.982 67.9857L108.466 69.9264ZM107.855 71.6741L105.967 71.0142V71.0142L107.855 71.6741ZM99.6989 87.5476L101.275 88.7787H101.275L99.6989 87.5476ZM88.944 97.8909L87.6984 96.3262L84.1219 99.1734L88.6402 99.8677L88.944 97.8909ZM113.89 96.6518L114.598 98.5225L113.89 96.6518ZM137.191 77.4972L138.469 75.9588L136.931 74.6807L135.652 76.219L137.191 77.4972ZM138.729 78.7753L140.267 80.0534L141.546 78.515L140.007 77.2369L138.729 78.7753ZM114.598 98.5225L115.305 100.393L114.598 98.5225ZM86.366 99.498L86.7031 97.5266L86.366 99.498ZM84.1278 99.1153L82.9011 97.5357L79.3143 100.321L83.7907 101.087L84.1278 99.1153ZM85.9212 97.7225L87.1479 99.3021L87.1479 99.3021L85.9212 97.7225ZM98.1228 86.3164L96.5466 85.0852L98.1228 86.3164ZM105.338 72.7581L107.213 73.455L108.52 69.938L104.872 70.8133L105.338 72.7581ZM70.3925 75.0687L69.9887 77.0275L70.3925 75.0687ZM38.3925 58.5618L37.197 60.1651L38.3925 58.5618ZM36.6905 57.2925L36.2159 55.3496L32.0907 56.3573L35.4949 58.8958L36.6905 57.2925ZM38.7531 56.7887L39.2276 58.7315V58.7315L38.7531 56.7887ZM54.6681 51.0134L53.6393 49.2983L54.6681 51.0134ZM62.3751 45.4129L61.2657 43.7488L61.1999 43.7927L61.1379 43.8415L62.3751 45.4129ZM62.3751 45.4129L63.4845 47.077L63.5502 47.0332L63.6123 46.9843L62.3751 45.4129ZM65.2974 43.1248L66.523 44.7053L70.8141 41.3777L65.3898 41.1269L65.2974 43.1248ZM28.1442 33.7268L27.0182 35.3797L28.1442 33.7268ZM174.587 33.8578L172.68 34.4618V34.4618L174.587 33.8578ZM181.197 54.7222L181.564 56.6882L183.786 56.2732L183.103 54.1182L181.197 54.7222ZM174.372 33.1819L173.171 31.5826L172.038 32.4341L172.466 33.7859L174.372 33.1819ZM174.939 32.7561L173.738 31.1569L174.939 32.7561ZM183.575 28.0565L183.101 26.1133L183.575 28.0565ZM190.637 28.1665L190.207 30.1196L194.024 30.9605L192.473 27.3727L190.637 28.1665ZM187.023 23.3049L185.936 24.984V24.984L187.023 23.3049ZM183.384 21.7008L184.016 19.8035L184.016 19.8035L183.384 21.7008ZM179.577 20.5358L179.007 22.4531L179.011 22.454L179.577 20.5358ZM179.576 20.5357L180.145 18.6184L180.142 18.6175L179.576 20.5357ZM177.454 19.9058L178.029 17.9902L177.454 19.9058ZM176.809 19.7123L174.818 19.8998L174.944 21.2409L176.235 21.628L176.809 19.7123ZM176.746 19.0418L174.755 19.2292V19.2293L176.746 19.0418ZM173.308 15.7031L172.607 17.5765V17.5765L173.308 15.7031ZM165.544 15.2152L165.16 13.2523L165.544 15.2152ZM157.923 19.3923L156.431 18.0608V18.0608L157.923 19.3923ZM154.484 29.731L156.437 30.1647L156.484 29.9504V29.731H154.484ZM154.461 29.8381L156.413 30.272L156.413 30.2718L154.461 29.8381ZM147.818 53.5651L145.918 52.9407L145.247 54.983L147.333 55.5052L147.818 53.5651ZM163.84 55.9124L163.751 57.9104L163.84 55.9124ZM163.751 57.9104L163.662 59.9084L163.751 57.9104ZM147.187 55.4671L147.677 53.5279L145.88 53.0743L145.291 54.8316L147.187 55.4671ZM181.843 56.6336L183.699 55.8886L183.085 54.3604L181.468 54.6691L181.843 56.6336ZM188.722 73.7727L189.085 75.7395L191.488 75.2959L190.578 73.0277L188.722 73.7727ZM163.254 75.9727L163.237 77.9726L163.254 75.9727ZM140.513 73.8544L138.649 73.1305L137.77 75.393L140.159 75.8228L140.513 73.8544ZM145.25 54.9534L147.146 55.5896L147.817 53.5911L145.786 53.0265L145.25 54.9534ZM92.382 6.66006L91.7319 4.76869L89.8405 5.41885L90.4907 7.31022L92.382 6.66006ZM93.9045 6.13671L94.5547 8.02808L93.5194 4.17413L93.9045 6.13671ZM59.6254 10.7068L59.535 8.70888L56.8436 8.83063L57.7391 11.3716L59.6254 10.7068ZM138.513 73.4787L138.129 75.4414L139.77 75.763L140.377 74.204L138.513 73.4787ZM141.141 75.9931L141.481 74.0222L135.03 72.9098L139.758 77.4376L141.141 75.9931ZM163.237 77.9726L163.22 79.9725L163.237 77.9726ZM155.846 97.3619L154.034 98.2077L155.846 97.3619ZM159.328 105.318L157.485 106.096L157.488 106.102L159.328 105.318ZM159.329 105.321L161.201 104.618L161.186 104.577L161.169 104.536L159.329 105.321ZM159.329 105.321L157.456 106.023L157.47 106.059L157.485 106.094L159.329 105.321ZM159.33 105.324L157.486 106.097L157.49 106.108L159.33 105.324ZM159.331 105.327L161.174 104.548L161.171 104.542L159.331 105.327ZM160.468 108.003L158.63 108.791V108.791L160.468 108.003ZM164.065 115.696L162.299 116.637L164.216 120.233L165.888 116.517L164.065 115.696ZM164.702 114.279L162.877 113.459L162.877 113.459L164.702 114.279ZM186.094 76.2533L187.637 77.5253L191.008 73.4358L185.776 74.2787L186.094 76.2533ZM164.814 140.235L166.599 139.334L164.8 135.768L163.023 139.345L164.814 140.235ZM165.942 142.447L167.719 141.53L165.942 142.447ZM163.696 142.451L161.916 141.538V141.538L163.696 142.451ZM134.51 177.258L135.743 178.832L134.51 177.258ZM132.794 178.591L131.572 177.007L129.163 178.866L131.825 180.341L132.794 178.591ZM134.687 179.656L135.679 177.919H135.679L134.687 179.656ZM165.073 209.014L163.391 210.096V210.096L165.073 209.014ZM166.298 210.942L164.605 212.006L166.424 214.9L168.056 211.897L166.298 210.942ZM167.4 208.942L165.655 207.966V207.966L167.4 208.942ZM196.665 178.632L197.707 180.338L196.665 178.632ZM198.649 177.437L199.67 179.158L202.705 177.357L199.601 175.678L198.649 177.437ZM196.624 176.318L197.609 174.577L197.609 174.577L196.624 176.318ZM152.77 163.051L154.295 164.344L152.77 163.051ZM164.821 144.627L166.593 143.7L164.821 140.314L163.049 143.7L164.821 144.627ZM136.387 178.326L135.148 176.756L132.834 178.582L135.386 180.057L136.387 178.326ZM153.116 190.561L154.509 189.126L153.116 190.561ZM166.177 207.039L164.501 208.131L166.293 210.884L167.916 208.027L166.177 207.039ZM178.08 190.444L176.636 189.06H176.636L178.08 190.444ZM194.676 177.507L195.73 179.207L198.566 177.448L195.678 175.776L194.676 177.507ZM177.276 163.723L175.777 165.047L177.276 163.723ZM2.28414 4.02754L3.42669 5.93544L6.8584 3.88037L5.71586 1.97246L2.28414 4.02754ZM6.55546 1.44592L4.36999 1.03452L3.63001 4.96548L5.81548 5.37688L6.55546 1.44592ZM51.0468 6.85524C38.0955 6.71239 24.8291 4.88584 6.55546 1.44592L5.81548 5.37688C24.1611 8.83034 37.699 10.7083 51.0026 10.855L51.0468 6.85524ZM93.9173 2.05722C76.7182 5.46249 63.9792 6.99788 51.0468 6.85524L51.0026 10.855C64.3125 11.0018 77.3476 9.41553 94.6942 5.98105L93.9173 2.05722ZM96.6561 5.59261L96.2677 3.6307L92.3438 4.40758L92.7323 6.3695L96.6561 5.59261ZM94.6777 8.02297C94.8124 7.99642 94.9474 7.96975 95.0826 7.94297L94.3058 4.01914C94.1716 4.0457 94.0378 4.07214 93.9042 4.09847L94.6777 8.02297ZM92.4 6.71231C101.027 31.7489 121.938 48.5068 145.348 54.9822L146.414 51.127C124.081 44.9492 104.318 29.0206 96.1818 5.40914L92.4 6.71231ZM150.533 29.0752C149.335 34.4484 147.386 42.0821 143.981 52.4295L147.781 53.6797C151.228 43.2032 153.212 35.4425 154.437 29.9452L150.533 29.0752ZM154.938 16.7294C152.191 19.8093 150.509 24.0624 150.485 29.5012L154.485 29.5191C154.505 24.9363 155.901 21.659 157.923 19.3923L154.938 16.7294ZM164.777 11.2893C161.274 11.9734 157.674 13.663 154.938 16.7294L157.923 19.3923C159.971 17.097 162.726 15.7653 165.544 15.2152L164.777 11.2893ZM174.708 11.9562C171.833 10.8815 168.255 10.6102 164.777 11.2893L165.544 15.2152C168.369 14.6635 171.19 14.9117 173.308 15.7031L174.708 11.9562ZM180.56 17.68C179.81 14.6934 177.178 12.8793 174.708 11.9562L173.308 15.7031C175.252 16.4298 176.399 17.532 176.68 18.6533L180.56 17.68ZM180.661 16.6852C180.189 16.5458 179.7 16.4014 179.19 16.2499L178.049 20.0835C178.563 20.2367 179.057 20.3824 179.529 20.5216L180.661 16.6852ZM180.656 16.6836L180.655 16.6834L179.535 20.5234L179.536 20.5236L180.656 16.6836ZM180.666 16.6868L180.661 16.6851L179.531 20.5222L179.537 20.5239L180.666 16.6868ZM184.649 17.9061C183.487 17.519 182.153 17.1254 180.668 16.6871L179.535 20.5236C181.041 20.9678 182.302 21.3404 183.384 21.7008L184.649 17.9061ZM189.196 19.9466C187.846 19.0735 186.32 18.4632 184.649 17.9061L183.384 21.7008C184.949 22.2226 186.098 22.7064 187.023 23.3049L189.196 19.9466ZM195.105 28.5678C193.592 24.5321 192.094 21.8222 189.196 19.9466L187.023 23.3049C188.806 24.4586 189.924 26.1429 191.36 29.9723L195.105 28.5678ZM195.802 30.4255L195.105 28.5678L191.36 29.9723L192.056 31.83L195.802 30.4255ZM191.472 32.5058L193.38 33.0508L194.479 29.2047L192.571 28.6597L191.472 32.5058ZM184.521 31.9429C186.343 31.4992 188.333 31.6088 191.472 32.5058L192.571 28.6597C189.089 27.6649 186.336 27.384 183.575 28.0565L184.521 31.9429ZM177.893 35.5445C180.773 33.4273 182.729 32.3793 184.521 31.9429L183.575 28.0565C181.001 28.6833 178.529 30.1127 175.524 32.3217L177.893 35.5445ZM185.076 53.7214L178.615 33.3291L174.802 34.5372L181.262 54.9295L185.076 53.7214ZM183.591 56.2805C206.642 51.308 227.14 35.3425 235.946 6.62817L232.122 5.45541C223.758 32.7285 204.441 47.6907 182.747 52.3704L183.591 56.2805ZM233.448 7.9539L235.36 8.54028L236.533 4.71606L234.62 4.12968L233.448 7.9539ZM234.034 6.04179C225.463 33.9912 205.641 49.3948 183.405 54.2718L184.262 58.1789C207.847 53.006 228.846 36.6026 237.858 7.21455L234.034 6.04179ZM192.578 72.6423L185.69 55.4804L181.978 56.9704L188.866 74.1322L192.578 72.6423ZM266.926 9.67635C254.43 44.1191 224.299 64.6034 190.328 71.4264L191.116 75.3481C226.116 68.3183 257.607 47.0924 270.686 11.0405L266.926 9.67635ZM233.917 7.44297C247.414 10.1153 258.276 11.762 268.692 12.3552L268.919 8.36166C258.766 7.78341 248.107 6.17481 234.694 3.51914L233.917 7.44297ZM232.732 3.13071L232.344 5.09263L236.268 5.86948L236.656 3.90757L232.732 3.13071ZM277.64 6.60506C264.877 6.62537 252.306 4.96721 235.083 1.55722L234.306 5.48105C251.644 8.91396 264.507 10.626 277.646 10.6051L277.64 6.60506ZM321.761 1.44592C303.5 4.88341 290.411 6.58473 277.64 6.60506L277.646 10.6051C290.782 10.5841 304.151 8.83115 322.501 5.37688L321.761 1.44592ZM323.946 1.03452L321.761 1.44592L322.501 5.37688L324.686 4.96548L323.946 1.03452ZM324.89 5.93542L326.032 4.02752L322.601 1.97248L321.458 3.88039L324.89 5.93542ZM301.298 35.3797C310.653 29.007 316.902 19.2742 324.89 5.93544L321.458 3.88037C313.402 17.3333 307.56 26.2738 299.046 32.0739L301.298 35.3797ZM263.111 45.1227C280.842 44.3028 292.32 41.4956 301.298 35.3797L299.046 32.0739C290.977 37.5709 280.385 40.3196 262.927 41.1269L263.111 45.1227ZM267.178 43.8415C266.283 43.1363 265.312 42.3724 264.245 41.5443L261.793 44.7053C262.848 45.5231 263.807 46.2784 264.704 46.9843L267.178 43.8415ZM274.677 49.2983C272.314 47.8809 270.191 46.2131 267.178 43.8415L264.704 46.9843C267.671 49.3199 269.998 51.1564 272.62 52.7285L274.677 49.2983ZM290.038 54.8458C282.087 52.9036 278.089 51.3446 274.677 49.2983L272.62 52.7285C276.53 55.0738 280.972 56.7489 289.089 58.7315L290.038 54.8458ZM292.101 55.3496L290.038 54.8458L289.089 58.7315L291.151 59.2354L292.101 55.3496ZM291.119 60.1651L292.822 58.8958L290.43 55.6892L288.728 56.9585L291.119 60.1651ZM258.328 77.0275C269.171 74.7922 279.006 69.198 291.119 60.1651L288.728 56.9585C276.77 65.8756 267.501 71.0523 257.52 73.1099L258.328 77.0275ZM222.512 74.703C236.908 78.1567 247.917 79.1737 258.328 77.0275L257.52 73.1099C247.943 75.0842 237.599 74.209 223.445 70.8133L222.512 74.703ZM231.77 85.0852C229.108 81.6771 226.951 77.7046 224.853 72.0612L221.103 73.455C223.306 79.3803 225.643 83.7396 228.618 87.5476L231.77 85.0852ZM243.622 96.1429C238.382 92.0735 234.714 88.8542 231.77 85.0852L228.618 87.5476C231.876 91.7196 235.866 95.1843 241.168 99.3021L243.622 96.1429ZM245.415 97.5357L243.622 96.1429L241.168 99.3021L242.962 100.695L245.415 97.5357ZM242.287 101.469L244.526 101.087L243.852 97.1439L241.613 97.5266L242.287 101.469ZM213.011 100.393C221.621 103.649 230.787 103.436 242.287 101.469L241.613 97.5266C230.359 99.4509 222.041 99.5316 214.426 96.6518L213.011 100.393ZM188.049 80.0534C196.824 90.6145 204.426 97.1467 213.011 100.393L214.426 96.6518C206.803 93.7689 199.739 87.8644 191.126 77.4972L188.049 80.0534ZM189.848 75.9588L188.309 77.2369L190.865 80.3136L192.404 79.0355L189.848 75.9588ZM215.134 94.7811C207.991 92.0801 201.197 86.4895 192.664 76.219L189.587 78.7753C198.281 89.2394 205.614 95.4578 213.719 98.5225L215.134 94.7811ZM239.069 95.9142C229.082 97.4488 221.769 97.2903 215.134 94.7811L213.719 98.5225C221.285 101.384 229.394 101.448 239.676 99.8677L239.069 95.9142ZM227.041 88.7787C230.063 92.6466 233.654 95.8948 238.127 99.4557L240.618 96.3262C236.244 92.8442 232.933 89.823 230.194 86.3164L227.041 88.7787ZM218.574 72.3341C221.015 79.3186 223.602 84.376 227.041 88.7787L230.194 86.3164C227.1 82.3556 224.695 77.7226 222.35 71.0142L218.574 72.3341ZM217.963 70.5863L218.574 72.334L222.35 71.0142L221.739 69.2665L217.963 70.5863ZM222.131 68.4331L220.334 67.9857L219.368 71.8671L221.164 72.3145L222.131 68.4331ZM257.116 71.1511C247.57 73.1191 237.105 72.1622 222.131 68.4331L221.164 72.3145C236.357 76.0982 247.511 77.2153 257.924 75.0687L257.116 71.1511ZM285.848 56.5998C274.79 64.6841 266.207 69.277 257.116 71.1511L257.924 75.0687C267.839 73.0247 276.971 68.0448 288.208 59.8288L285.848 56.5998ZM271.591 54.4437C275.384 56.7185 279.594 58.3595 286.528 60.1507L287.528 56.2779C280.793 54.5378 276.987 53.0159 273.648 51.0134L271.591 54.4437ZM263.342 48.4591C266.382 50.8517 268.86 52.8055 271.591 54.4437L273.648 51.0134C271.175 49.53 268.903 47.7452 265.816 45.3158L263.342 48.4591ZM258.404 44.6254C260.268 46.0394 261.877 47.3059 263.342 48.459L265.816 45.3158C264.352 44.1635 262.717 42.8768 260.822 41.4388L258.404 44.6254ZM256.161 42.9239L258.404 44.6254L260.822 41.4388L258.579 39.7373L256.161 42.9239ZM260.117 39.2372L257.303 39.3317L257.437 43.3294L260.251 43.2349L260.117 39.2372ZM297.92 30.421C289.909 35.8781 279.104 38.5991 260.117 39.2372L260.251 43.2349C279.472 42.589 291.21 39.832 300.172 33.7268L297.92 30.421ZM318.601 4.7519C311.105 17.1806 305.618 25.1767 297.92 30.421L300.172 33.7268C308.685 27.9273 314.566 19.1874 322.026 6.81781L318.601 4.7519ZM277.649 12.6051C290.433 12.5847 303.391 10.945 320.677 7.75157L319.95 3.81814C302.764 6.99331 290.076 8.58527 277.643 8.60506L277.649 12.6051ZM270.483 12.447C272.881 12.5561 275.26 12.6089 277.649 12.6051L277.643 8.60506C275.317 8.60876 273 8.55743 270.664 8.4511L270.483 12.447ZM271.534 8.66815L271.246 8.56537L269.901 12.3327L270.189 12.4355L271.534 8.66815ZM187.616 78.0283C224.845 71.6847 259.001 49.7409 272.745 11.224L268.978 9.87966C255.835 46.7103 223.122 67.9206 186.944 74.0851L187.616 78.0283ZM189.5 75.315L188.572 74.5299L185.988 77.5834L186.916 78.3686L189.5 75.315ZM168.348 115.924C173.274 104.967 180.385 89.1838 189.735 78.1337L186.681 75.5499C176.901 87.1082 169.575 103.44 164.7 114.284L168.348 115.924ZM168.362 115.893L168.362 115.892L164.686 114.316L164.685 114.317L168.362 115.893ZM168.343 115.937L168.346 115.929L164.701 114.281L164.698 114.288L168.343 115.937ZM166.889 119.16C167.35 118.145 167.836 117.064 168.345 115.932L164.696 114.292C164.187 115.426 163.704 116.499 163.247 117.505L166.889 119.16ZM166.271 120.518L166.889 119.16L163.247 117.505L162.63 118.863L166.271 120.518ZM166.323 118.753L165.894 118.306L163.007 121.074L163.436 121.522L166.323 118.753ZM202.409 176.268C196.31 152.041 183.438 136.603 166.323 118.753L163.436 121.522C180.45 139.266 192.697 154.074 198.53 177.244L202.409 176.268ZM199.019 179.184L200.958 178.695L199.981 174.816L198.042 175.305L199.019 179.184ZM162.737 123.683C179.304 141.024 190.975 155.424 196.591 177.732L200.47 176.756C194.591 153.405 182.312 138.382 165.629 120.92L162.737 123.683ZM134.445 178.763C138.274 158.967 148.296 143.131 165.676 123.633L162.69 120.971C145.107 140.697 134.546 157.181 130.518 178.004L134.445 178.763ZM130.138 179.967L132.102 180.347L132.862 176.42L130.898 176.04L130.138 179.967ZM161.925 118.826C143.81 139.021 132.738 155.997 128.555 177.624L132.482 178.383C136.464 157.797 146.984 141.474 164.902 121.497L161.925 118.826ZM162.467 118.222L161.925 118.826L164.902 121.497L165.445 120.893L162.467 118.222ZM161.566 119.43L162.228 120.565L165.683 118.549L165.021 117.414L161.566 119.43ZM156.791 109.579C158.254 112.993 159.77 116.35 161.566 119.43L165.021 117.414C163.356 114.56 161.921 111.394 160.468 108.003L156.791 109.579ZM155.632 106.85C156.019 107.764 156.404 108.676 156.791 109.579L160.468 108.003C160.085 107.111 159.704 106.208 159.317 105.293L155.632 106.85ZM155.629 106.841L155.629 106.842L159.32 105.3L159.319 105.299L155.629 106.841ZM155.628 106.839L155.629 106.841L159.319 105.298L159.318 105.296L155.628 106.839ZM155.637 106.859L155.637 106.861L159.309 105.273L159.308 105.272L155.637 106.859ZM152.221 99.0535C153.448 101.681 154.544 104.275 155.63 106.844L159.314 105.287C158.232 102.727 157.108 100.067 155.846 97.3619L152.221 99.0535ZM137.853 78.389C144.742 84.8185 148.911 91.9607 152.221 99.0535L155.846 97.3619C152.421 90.0233 147.989 82.3777 140.583 75.4648L137.853 78.389ZM138.776 74.4695L137.756 75.5623L140.68 78.2916L141.7 77.1988L138.776 74.4695ZM55.6446 11.4394C68.5576 48.8825 102.55 71.1024 139.885 77.8027L140.591 73.8656C104.266 67.3463 71.7429 45.85 59.4261 10.1353L55.6446 11.4394ZM50.9806 12.8549C53.1873 12.8792 55.3867 12.8565 57.5988 12.7863L57.4719 8.78832C55.3168 8.85673 53.1744 8.87883 51.0247 8.85512L50.9806 12.8549ZM7.63888 7.75193C24.9253 10.9526 38.0414 12.7122 50.9806 12.8549L51.0247 8.85512C38.4253 8.71615 25.5711 7.00419 8.36713 3.81878L7.63888 7.75193ZM30.3963 30.421C22.6982 25.1768 17.2119 17.1808 9.7156 4.7524L6.29041 6.81832C13.751 19.1877 19.6311 27.9274 28.1442 33.7268L30.3963 30.421ZM68.1998 39.2372C49.212 38.5991 38.407 35.8781 30.3963 30.421L28.1442 33.7268C37.1062 39.832 48.8446 42.589 68.0655 43.2349L68.1998 39.2372ZM71.0133 39.3317L68.1998 39.2372L68.0655 43.2349L70.879 43.3294L71.0133 39.3317ZM69.9124 44.6254L72.155 42.9239L69.7373 39.7373L67.4946 41.4388L69.9124 44.6254ZM64.9745 48.4589C66.4397 47.3058 68.0488 46.0393 69.9124 44.6254L67.4946 41.4388C65.5994 42.8767 63.9647 44.1634 62.5006 45.3157L64.9745 48.4589ZM64.9201 48.5002L64.9203 48.5001L62.5548 45.2745L62.5547 45.2746L64.9201 48.5002ZM64.9867 48.4492L64.9868 48.4492L62.488 45.3257L62.488 45.3257L64.9867 48.4492ZM64.9373 48.4876L64.9373 48.4875L62.5373 45.2875L62.5373 45.2876L64.9373 48.4876ZM56.7256 54.4437C59.4568 52.8055 61.9342 50.8518 64.9742 48.4592L62.5003 45.3159C59.4138 47.7452 57.1413 49.53 54.6681 51.0134L56.7256 54.4437ZM41.7888 60.1507C48.722 58.3595 52.9329 56.7185 56.7256 54.4437L54.6681 51.0134C51.3294 53.0159 47.5234 54.5378 40.7882 56.2779L41.7888 60.1507ZM71.2001 71.1511C62.1097 69.277 53.5262 64.6841 42.4689 56.5998L40.1081 59.8288C51.3456 68.0448 60.4777 73.0247 70.3925 75.0687L71.2001 71.1511ZM106.186 68.4331C91.2119 72.1622 80.7466 73.1191 71.2001 71.1511L70.3925 75.0687C80.8055 77.2153 91.9593 76.0982 107.152 72.3145L106.186 68.4331ZM107.982 67.9857L106.186 68.4331L107.152 72.3145L108.949 71.8671L107.982 67.9857ZM109.743 72.3341L110.354 70.5863L106.578 69.2665L105.967 71.0142L109.743 72.3341ZM101.275 88.7787C104.714 84.376 107.301 79.3186 109.743 72.334L105.967 71.0142C103.622 77.7226 101.217 82.3556 98.1228 86.3164L101.275 88.7787ZM90.1897 99.4557C94.6626 95.8948 98.2538 92.6466 101.275 88.7787L98.1228 86.3164C95.3837 89.823 92.0724 92.8442 87.6984 96.3262L90.1897 99.4557ZM113.183 94.7811C106.548 97.2903 99.2341 97.4488 89.2478 95.9142L88.6402 99.8677C98.922 101.448 107.031 101.384 114.598 98.5225L113.183 94.7811ZM135.652 76.219C127.119 86.4895 120.325 92.0801 113.183 94.7811L114.598 98.5225C122.702 95.4578 130.035 89.2394 138.729 78.7753L135.652 76.219ZM140.007 77.2369L138.469 75.9588L135.913 79.0355L137.451 80.3136L140.007 77.2369ZM115.305 100.393C123.89 97.1467 131.493 90.6145 140.267 80.0534L137.191 77.4972C128.577 87.8644 121.514 93.7689 113.89 96.6518L115.305 100.393ZM86.029 101.469C97.5298 103.436 106.695 103.649 115.305 100.393L113.89 96.6518C106.275 99.5316 97.9576 99.4509 86.7031 97.5266L86.029 101.469ZM83.7907 101.087L86.029 101.469L86.7031 97.5266L84.4649 97.1439L83.7907 101.087ZM84.6944 96.1429L82.9011 97.5357L85.3546 100.695L87.1479 99.3021L84.6944 96.1429ZM96.5466 85.0852C93.6026 88.8542 89.9342 92.0735 84.6944 96.1429L87.1479 99.3021C92.45 95.1843 96.44 91.7196 99.6989 87.5476L96.5466 85.0852ZM103.464 72.0612C101.366 77.7046 99.2088 81.6771 96.5466 85.0852L99.6989 87.5476C102.673 83.7396 105.01 79.3803 107.213 73.455L103.464 72.0612ZM69.9887 77.0275C80.3997 79.1737 91.4088 78.1567 105.805 74.703L104.872 70.8133C90.7175 74.209 80.3734 75.0842 70.7963 73.1099L69.9887 77.0275ZM37.197 60.1651C49.3102 69.198 59.1457 74.7922 69.9887 77.0275L70.7963 73.1099C60.8155 71.0523 51.5461 65.8756 39.5881 56.9585L37.197 60.1651ZM35.4949 58.8958L37.197 60.1651L39.5881 56.9585L37.8861 55.6892L35.4949 58.8958ZM38.2785 54.8458L36.2159 55.3496L37.165 59.2354L39.2276 58.7315L38.2785 54.8458ZM53.6393 49.2983C50.2277 51.3446 46.2296 52.9036 38.2785 54.8458L39.2276 58.7315C47.3444 56.7489 51.7868 55.0738 55.6968 52.7285L53.6393 49.2983ZM61.1379 43.8415C58.1255 46.2131 56.0023 47.8809 53.6393 49.2983L55.6968 52.7285C58.3179 51.1564 60.6457 49.3199 63.6123 46.9844L61.1379 43.8415ZM61.2657 43.7488L61.2657 43.7488L63.4845 47.077L63.4845 47.077L61.2657 43.7488ZM64.0718 41.5443C63.0039 42.3724 62.0336 43.1363 61.1379 43.8415L63.6123 46.9843C64.5089 46.2784 65.4683 45.5231 66.523 44.7053L64.0718 41.5443ZM27.0182 35.3797C35.9959 41.4956 47.4739 44.3028 65.205 45.1227L65.3898 41.1269C47.9312 40.3196 37.3395 37.5709 29.2703 32.0739L27.0182 35.3797ZM3.42669 5.93544C11.4145 19.2742 17.6636 29.007 27.0182 35.3797L29.2703 32.0739C20.7561 26.2738 14.9146 17.3333 6.85841 3.88037L3.42669 5.93544ZM172.68 34.4618L179.29 55.3263L183.103 54.1182L176.493 33.2537L172.68 34.4618ZM172.466 33.7859L172.68 34.4618L176.493 33.2537L176.279 32.5778L172.466 33.7859ZM173.738 31.1569L173.171 31.5826L175.573 34.7811L176.14 34.3553L173.738 31.1569ZM183.101 26.1133C179.958 26.8788 177.064 28.6593 173.738 31.1569L176.14 34.3553C179.37 31.93 181.727 30.565 184.048 29.9997L183.101 26.1133ZM191.067 26.2133C188.251 25.593 185.706 25.4791 183.101 26.1133L184.048 29.9997C185.904 29.5477 187.808 29.5912 190.207 30.1196L191.067 26.2133ZM185.936 24.984C186.954 25.6428 187.766 26.5665 188.801 28.9602L192.473 27.3727C191.266 24.5833 190.039 22.8744 188.109 21.6257L185.936 24.984ZM182.751 23.5982C184.264 24.1025 185.224 24.5232 185.936 24.984L188.109 21.6257C186.972 20.8899 185.634 20.3428 184.016 19.8035L182.751 23.5982ZM179.011 22.454C180.495 22.8922 181.704 23.2492 182.751 23.5982L184.016 19.8035C182.889 19.4279 181.607 19.0498 180.143 18.6176L179.011 22.454ZM179.007 22.453L179.007 22.4531L180.146 18.6185L180.145 18.6184L179.007 22.453ZM176.88 21.8215C177.642 22.0502 178.351 22.2595 179.01 22.4539L180.142 18.6175C179.483 18.4228 178.781 18.2159 178.029 17.9902L176.88 21.8215ZM176.235 21.628L176.88 21.8215L178.029 17.9902L177.384 17.7967L176.235 21.628ZM174.755 19.2293L174.818 19.8998L178.8 19.5248L178.737 18.8543L174.755 19.2293ZM172.607 17.5765C174.486 18.2787 174.741 19.0814 174.755 19.2292L178.737 18.8543C178.51 16.4428 176.464 14.7477 174.008 13.8296L172.607 17.5765ZM165.927 17.1781C168.426 16.6901 170.869 16.9267 172.607 17.5765L174.008 13.8296C171.512 12.8966 168.312 12.6368 165.16 13.2523L165.927 17.1781ZM159.415 20.7237C161.119 18.8136 163.454 17.6611 165.927 17.1781L165.16 13.2523C162 13.8694 158.822 15.3802 156.431 18.0608L159.415 20.7237ZM156.484 29.6212C156.484 25.4145 157.744 22.5972 159.415 20.7237L156.431 18.0608C154.028 20.7537 152.484 24.5547 152.484 29.6212H156.484ZM156.484 29.731V29.6212H152.484V29.731H156.484ZM156.413 30.2718L156.437 30.1647L152.532 29.2973L152.508 29.4044L156.413 30.2718ZM149.718 54.1895C153.185 43.6414 155.18 35.8209 156.413 30.272L152.508 29.4043C151.303 34.829 149.342 42.522 145.918 52.9407L149.718 54.1895ZM147.333 55.5052C152.72 56.8543 158.231 57.6646 163.751 57.9104L163.929 53.9143C158.68 53.6806 153.435 52.9098 148.304 51.625L147.333 55.5052ZM163.751 57.9104C169.729 58.1766 175.715 57.7807 181.564 56.6882L180.829 52.7562C175.293 53.7904 169.613 54.1675 163.929 53.9143L163.751 57.9104ZM163.84 55.9124C158.413 55.6707 152.987 54.8682 147.677 53.5279L146.698 57.4063C152.266 58.8119 157.962 59.6546 163.662 59.9084L163.84 55.9124ZM181.468 54.6691C175.692 55.7713 169.765 56.1763 163.84 55.9124L163.662 59.9084C169.886 60.1856 176.125 59.7609 182.218 58.5982L181.468 54.6691ZM179.987 57.3786L186.866 74.5177L190.578 73.0277L183.699 55.8886L179.987 57.3786ZM188.359 71.8059C180.128 73.3247 171.699 74.0453 163.272 73.9728L163.237 77.9726C171.914 78.0473 180.598 77.3056 189.085 75.7395L188.359 71.8059ZM163.272 73.9728C155.74 73.9079 148.224 73.2099 140.867 71.8861L140.159 75.8228C147.741 77.1872 155.482 77.9059 163.237 77.9726L163.272 73.9728ZM142.377 74.5784C145.052 67.6911 147.257 61.5517 149.083 56.1026L145.291 54.8316C143.485 60.2187 141.301 66.2992 138.649 73.1305L142.377 74.5784ZM145.786 53.0265C122.917 46.6688 102.632 30.3243 94.2734 6.0099L90.4907 7.31022C99.3386 33.0495 120.771 50.2238 144.714 56.8803L145.786 53.0265ZM93.0322 8.55144L94.5547 8.02808L93.2544 4.24533L91.7319 4.76869L93.0322 8.55144ZM59.7157 12.7048C70.1586 12.2324 80.9952 10.7079 94.2896 8.09928L93.5194 4.17413C80.3347 6.76125 69.7091 8.24863 59.535 8.70888L59.7157 12.7048ZM138.898 71.516C104.137 64.7055 73.443 43.8976 61.5117 10.0421L57.7391 11.3716C70.2612 46.9035 102.372 68.4359 138.129 75.4414L138.898 71.516ZM143.354 54.3172C141.536 59.7353 139.332 65.8609 136.649 72.7533L140.377 74.204C143.081 67.2553 145.307 61.0702 147.146 55.5896L143.354 54.3172ZM140.802 77.9641C148.185 79.2371 155.701 79.9078 163.22 79.9725L163.254 75.9727C155.95 75.9098 148.649 75.2582 141.481 74.0222L140.802 77.9641ZM157.658 96.5162C154.265 89.245 149.844 81.5582 142.525 74.5487L139.758 77.4376C146.583 83.9738 150.751 91.1745 154.034 98.2077L157.658 96.5162ZM161.17 104.539C160.083 101.969 158.938 99.2581 157.658 96.5162L154.034 98.2077C155.277 100.873 156.395 103.517 157.485 106.096L161.17 104.539ZM161.169 104.536L161.167 104.534L157.488 106.102L157.489 106.105L161.169 104.536ZM161.202 104.619L161.201 104.618L157.456 106.023L157.456 106.023L161.202 104.619ZM161.175 104.55L161.173 104.548L157.485 106.094L157.486 106.097L161.175 104.55ZM161.171 104.542L161.17 104.54L157.49 106.108L157.491 106.111L161.171 104.542ZM162.306 107.216C161.932 106.344 161.557 105.455 161.174 104.548L157.489 106.105C157.872 107.01 158.251 107.908 158.63 108.791L162.306 107.216ZM165.83 114.756C164.598 112.444 163.468 109.927 162.306 107.216L158.63 108.791C159.802 111.528 160.985 114.17 162.299 116.637L165.83 114.756ZM162.877 113.459C162.66 113.943 162.448 114.415 162.241 114.875L165.888 116.517C166.096 116.056 166.309 115.582 166.526 115.099L162.877 113.459ZM184.55 74.9813C174.881 86.7142 167.638 102.863 162.877 113.459L166.526 115.099C171.332 104.402 178.369 88.7702 187.637 77.5253L184.55 74.9813ZM163.22 79.9725C170.983 80.0394 178.762 79.4603 186.412 78.2278L185.776 74.2787C178.351 75.4749 170.797 76.0376 163.254 75.9727L163.22 79.9725ZM163.028 141.136C163.411 141.894 163.789 142.637 164.165 143.364L167.719 141.53C167.35 140.814 166.977 140.082 166.599 139.334L163.028 141.136ZM165.475 143.364C165.85 142.634 166.226 141.888 166.605 141.125L163.023 139.345C162.651 140.094 162.282 140.824 161.916 141.538L165.475 143.364ZM135.743 178.832C149.74 167.862 157.081 159.729 165.475 143.364L161.916 141.538C153.821 157.32 146.883 165.02 133.276 175.683L135.743 178.832ZM134.015 180.175C134.602 179.722 135.178 179.275 135.743 178.832L133.276 175.683C132.72 176.119 132.152 176.561 131.572 177.007L134.015 180.175ZM135.679 177.919C135.053 177.562 134.415 177.203 133.763 176.842L131.825 180.341C132.462 180.694 133.086 181.044 133.695 181.392L135.679 177.919ZM166.755 207.932C157.399 193.388 150.092 186.151 135.679 177.919L133.695 181.392C147.496 189.275 154.348 196.04 163.391 210.096L166.755 207.932ZM167.992 209.878C167.575 209.215 167.163 208.567 166.755 207.932L163.391 210.096C163.791 210.718 164.195 211.355 164.605 212.006L167.992 209.878ZM165.655 207.966C165.286 208.625 164.915 209.299 164.541 209.987L168.056 211.897C168.423 211.222 168.786 210.562 169.146 209.919L165.655 207.966ZM195.622 176.925C188.25 181.428 182.764 185.563 178.102 190.421C173.44 195.279 169.67 200.789 165.655 207.966L169.146 209.919C173.065 202.914 176.644 197.717 180.988 193.19C185.333 188.663 190.512 184.733 197.707 180.338L195.622 176.925ZM197.629 175.717C196.944 176.123 196.276 176.526 195.622 176.925L197.707 180.338C198.345 179.949 198.999 179.555 199.67 179.158L197.629 175.717ZM195.639 178.058C196.31 178.438 196.996 178.817 197.698 179.197L199.601 175.678C198.92 175.31 198.256 174.943 197.609 174.577L195.639 178.058ZM164.165 143.364C168.502 151.772 172.436 158.245 177.278 163.725C182.138 169.225 187.843 173.647 195.639 178.058L197.609 174.577C190.104 170.331 184.777 166.171 180.276 161.077C175.757 155.963 172 149.829 167.719 141.53L164.165 143.364ZM154.295 164.344C158.811 159.02 162.631 153.123 166.593 145.554L163.049 143.7C159.186 151.08 155.523 156.713 151.245 161.757L154.295 164.344ZM137.626 179.896C144.352 174.588 149.645 169.827 154.295 164.344L151.245 161.757C146.832 166.959 141.764 171.535 135.148 176.756L137.626 179.896ZM154.509 189.126C149.679 184.438 144.288 180.584 137.388 176.594L135.386 180.057C142.092 183.935 147.194 187.601 151.723 191.996L154.509 189.126ZM167.853 205.948C163.393 199.098 159.284 193.761 154.509 189.126L151.723 191.996C156.209 196.351 160.134 201.423 164.501 208.131L167.853 205.948ZM176.636 189.06C172.035 193.859 168.303 199.248 164.438 206.051L167.916 208.027C171.681 201.4 175.226 196.311 179.523 191.828L176.636 189.06ZM193.622 175.808C186.621 180.15 181.253 184.244 176.636 189.06L179.523 191.828C183.837 187.329 188.911 183.437 195.73 179.207L193.622 175.808ZM175.777 165.047C180.608 170.515 186.223 174.925 193.674 179.238L195.678 175.776C188.518 171.632 183.264 167.479 178.775 162.399L175.777 165.047ZM163.049 145.555C167.163 153.415 171.029 159.673 175.777 165.047L178.775 162.399C174.335 157.374 170.643 151.438 166.593 143.7L163.049 145.555Z" fill="white"/>
</svg>
