<svg width="375" height="812" viewBox="0 0 375 812" fill="none" xmlns="http://www.w3.org/2000/svg">
<g clip-path="url(#clip0)">
<rect width="375" height="812" fill="url(#paint0_radial)"/>
<path d="M25 8H27V6H25V8Z" fill="#A4A4A4" fill-opacity="0.12"/>
<path d="M65 8H67V6H65V8Z" fill="#A4A4A4" fill-opacity="0.12"/>
<path d="M106 8H108V6H106V8Z" fill="#A4A4A4" fill-opacity="0.12"/>
<path d="M146 8H148V6H146V8Z" fill="#A4A4A4" fill-opacity="0.12"/>
<path d="M186 8H188V6H186V8Z" fill="#C6C6C6" fill-opacity="0.19"/>
<path d="M226 8H228V6H226V8Z" fill="#A4A4A4" fill-opacity="0.12"/>
<path d="M266 8H268V6H266V8Z" fill="#A4A4A4" fill-opacity="0.12"/>
<path d="M307 8H309V6H307V8Z" fill="#A4A4A4" fill-opacity="0.12"/>
<path d="M347 8H349V6H347V8Z" fill="#A4A4A4" fill-opacity="0.12"/>
<path d="M25 47H27V45H25V47Z" fill="#6D6D6D" fill-opacity="0.04"/>
<path d="M65 47H67V45H65V47Z" fill="#6D6D6D" fill-opacity="0.04"/>
<path d="M106 47H108V45H106V47Z" fill="#6D6D6D" fill-opacity="0.04"/>
<path d="M146 47H148V45H146V47Z" fill="#6D6D6D" fill-opacity="0.04"/>
<path d="M186 47H188V45H186V47Z" fill="#A4A4A4" fill-opacity="0.12"/>
<path d="M226 47H228V45H226V47Z" fill="#6D6D6D" fill-opacity="0.04"/>
<path d="M266 47H268V45H266V47Z" fill="#6D6D6D" fill-opacity="0.04"/>
<path d="M307 47H309V45H307V47Z" fill="#6D6D6D" fill-opacity="0.04"/>
<path d="M347 47H349V45H347V47Z" fill="#6D6D6D" fill-opacity="0.04"/>
<path d="M25 810H27V808H25V810Z" fill="#A4A4A4" fill-opacity="0.12"/>
<path d="M65 810H67V808H65V810Z" fill="#A4A4A4" fill-opacity="0.12"/>
<path d="M106 810H108V808H106V810Z" fill="#A4A4A4" fill-opacity="0.12"/>
<path d="M146 810H148V808H146V810Z" fill="#A4A4A4" fill-opacity="0.12"/>
<path d="M186 810H188V808H186V810Z" fill="#C6C6C6" fill-opacity="0.29"/>
<path d="M226 810H228V808H226V810Z" fill="#A4A4A4" fill-opacity="0.12"/>
<path d="M266 810H268V808H266V810Z" fill="#A4A4A4" fill-opacity="0.12"/>
<path d="M307 810H309V808H307V810Z" fill="#A4A4A4" fill-opacity="0.12"/>
<path d="M347 810H349V808H347V810Z" fill="#A4A4A4" fill-opacity="0.12"/>
<path d="M23.6136 814.388H21.6005V776.483H23.6136V814.388ZM23.6136 774.436H21.6005V735.513H23.6136V774.436ZM23.6136 733.463H21.6005V694.544H23.6136V733.463ZM23.6136 692.494H21.6005V653.57H23.6136V692.494ZM23.6136 651.523H21.6005V612.599H23.6136V651.523ZM23.6136 610.552H21.6005V571.628H23.6136V610.552ZM23.6136 569.581H21.6005V530.657H23.6136V569.581ZM23.6136 528.608H21.6005V489.688H23.6136V528.608ZM23.6136 487.639H21.6005V448.715H23.6136V487.639ZM23.6136 446.667H21.6005V407.744H23.6136V446.667ZM23.6136 405.696H21.6005V366.773H23.6136V405.696ZM23.6136 364.725H21.6005V325.802H23.6136V364.725ZM23.6136 323.754H21.6005V284.831H23.6136V323.754ZM23.6136 282.783H21.6005V243.86H23.6136V282.783ZM23.6136 241.812H21.6005V202.888H23.6136V241.812ZM23.6136 200.839H21.6005V161.917H23.6136V200.839ZM23.6136 159.87H21.6005V120.946H23.6136V159.87ZM23.6136 118.899H21.6005V79.9752H23.6136V118.899ZM23.6136 77.9256H21.6005V39.0041H23.6136V77.9256ZM23.6136 36.9566H21.6005V-0.947265H23.6136V36.9566Z" fill="#484848" fill-opacity="0.08"/>
<path d="M63.8771 814.388H61.8639V776.483H63.8771V814.388ZM63.8771 774.436H61.8639V735.513H63.8771V774.436ZM63.8771 733.463H61.8639V694.544H63.8771V733.463ZM63.8771 692.494H61.8639V653.57H63.8771V692.494ZM63.8771 651.523H61.8639V612.599H63.8771V651.523ZM63.8771 610.552H61.8639V571.628H63.8771V610.552ZM63.8771 569.581H61.8639V530.657H63.8771V569.581ZM63.8771 528.608H61.8639V489.688H63.8771V528.608ZM63.8771 487.639H61.8639V448.715H63.8771V487.639ZM63.8771 446.667H61.8639V407.744H63.8771V446.667ZM63.8771 405.696H61.8639V366.773H63.8771V405.696ZM63.8771 364.725H61.8639V325.802H63.8771V364.725ZM63.8771 323.754H61.8639V284.831H63.8771V323.754ZM63.8771 282.783H61.8639V243.86H63.8771V282.783ZM63.8771 241.812H61.8639V202.888H63.8771V241.812ZM63.8771 200.839H61.8639V161.917H63.8771V200.839ZM63.8771 159.87H61.8639V120.946H63.8771V159.87ZM63.8771 118.899H61.8639V79.9752H63.8771V118.899ZM63.8771 77.9256H61.8639V39.0041H63.8771V77.9256ZM63.8771 36.9566H61.8639V-0.947265H63.8771V36.9566Z" fill="#484848" fill-opacity="0.08"/>
<path d="M106.154 814.388H104.141V776.483H106.154V814.388ZM106.154 774.436H104.141V735.513H106.154V774.436ZM106.154 733.463H104.141V694.544H106.154V733.463ZM106.154 692.494H104.141V653.57H106.154V692.494ZM106.154 651.523H104.141V612.599H106.154V651.523ZM106.154 610.552H104.141V571.628H106.154V610.552ZM106.154 569.581H104.141V530.657H106.154V569.581ZM106.154 528.608H104.141V489.688H106.154V528.608ZM106.154 487.639H104.141V448.715H106.154V487.639ZM106.154 446.667H104.141V407.744H106.154V446.667ZM106.154 405.696H104.141V366.773H106.154V405.696ZM106.154 364.725H104.141V325.802H106.154V364.725ZM106.154 323.754H104.141V284.831H106.154V323.754ZM106.154 282.783H104.141V243.86H106.154V282.783ZM106.154 241.812H104.141V202.888H106.154V241.812ZM106.154 200.839H104.141V161.917H106.154V200.839ZM106.154 159.87H104.141V120.946H106.154V159.87ZM106.154 118.899H104.141V79.9752H106.154V118.899ZM106.154 77.9256H104.141V39.0041H106.154V77.9256ZM106.154 36.9566H104.141V-0.947265H106.154V36.9566Z" fill="#484848" fill-opacity="0.08"/>
<path d="M147.424 814.388H145.411V776.483H147.424V814.388ZM147.424 774.436H145.411V735.513H147.424V774.436ZM147.424 733.463H145.411V694.544H147.424V733.463ZM147.424 692.494H145.411V653.57H147.424V692.494ZM147.424 651.523H145.411V612.599H147.424V651.523ZM147.424 610.552H145.411V571.628H147.424V610.552ZM147.424 569.581H145.411V530.657H147.424V569.581ZM147.424 528.608H145.411V489.688H147.424V528.608ZM147.424 487.639H145.411V448.715H147.424V487.639ZM147.424 446.667H145.411V407.744H147.424V446.667ZM147.424 405.696H145.411V366.773H147.424V405.696ZM147.424 364.725H145.411V325.802H147.424V364.725ZM147.424 323.754H145.411V284.831H147.424V323.754ZM147.424 282.783H145.411V243.86H147.424V282.783ZM147.424 241.812H145.411V202.888H147.424V241.812ZM147.424 200.839H145.411V161.917H147.424V200.839ZM147.424 159.87H145.411V120.946H147.424V159.87ZM147.424 118.899H145.411V79.9752H147.424V118.899ZM147.424 77.9256H145.411V39.0041H147.424V77.9256ZM147.424 36.9566H145.411V-0.947265H147.424V36.9566Z" fill="#484848" fill-opacity="0.08"/>
<path d="M189.7 814.388H185.674V776.483H189.7V814.388ZM189.7 774.436H185.674V735.513H189.7V774.436ZM189.7 733.463H185.674V694.544H189.7V733.463ZM189.7 692.494H185.674V653.57H189.7V692.494ZM189.7 651.523H185.674V612.599H189.7V651.523ZM189.7 610.552H185.674V571.628H189.7V610.552ZM189.7 569.581H185.674V530.657H189.7V569.581ZM189.7 528.608H185.674V489.688H189.7V528.608ZM189.7 487.639H185.674V448.715H189.7V487.639ZM189.7 446.667H185.674V407.744H189.7V446.667ZM189.7 405.696H185.674V366.773H189.7V405.696ZM189.7 364.725H185.674V325.802H189.7V364.725ZM189.7 323.754H185.674V284.831H189.7V323.754ZM189.7 282.783H185.674V243.86H189.7V282.783ZM189.7 241.812H185.674V202.888H189.7V241.812ZM189.7 200.839H185.674V161.917H189.7V200.839ZM189.7 159.87H185.674V120.946H189.7V159.87ZM189.7 118.899H185.674V79.9752H189.7V118.899ZM189.7 77.9256H185.674V39.0041H189.7V77.9256ZM189.7 36.9566H185.674V-0.947265H189.7V36.9566Z" fill="#8D8D8D" fill-opacity="0.05"/>
<path d="M229.964 814.388H227.951V776.483H229.964V814.388ZM229.964 774.436H227.951V735.513H229.964V774.436ZM229.964 733.463H227.951V694.544H229.964V733.463ZM229.964 692.494H227.951V653.57H229.964V692.494ZM229.964 651.523H227.951V612.599H229.964V651.523ZM229.964 610.552H227.951V571.628H229.964V610.552ZM229.964 569.581H227.951V530.657H229.964V569.581ZM229.964 528.608H227.951V489.688H229.964V528.608ZM229.964 487.639H227.951V448.715H229.964V487.639ZM229.964 446.667H227.951V407.744H229.964V446.667ZM229.964 405.696H227.951V366.773H229.964V405.696ZM229.964 364.725H227.951V325.802H229.964V364.725ZM229.964 323.754H227.951V284.831H229.964V323.754ZM229.964 282.783H227.951V243.86H229.964V282.783ZM229.964 241.812H227.951V202.888H229.964V241.812ZM229.964 200.839H227.951V161.917H229.964V200.839ZM229.964 159.87H227.951V120.946H229.964V159.87ZM229.964 118.899H227.951V79.9752H229.964V118.899ZM229.964 77.9256H227.951V39.0041H229.964V77.9256ZM229.964 36.9566H227.951V-0.947265H229.964V36.9566Z" fill="#484848" fill-opacity="0.08"/>
<path d="M271.234 814.388H269.221V776.483H271.234V814.388ZM271.234 774.436H269.221V735.513H271.234V774.436ZM271.234 733.463H269.221V694.544H271.234V733.463ZM271.234 692.494H269.221V653.57H271.234V692.494ZM271.234 651.523H269.221V612.599H271.234V651.523ZM271.234 610.552H269.221V571.628H271.234V610.552ZM271.234 569.581H269.221V530.657H271.234V569.581ZM271.234 528.608H269.221V489.688H271.234V528.608ZM271.234 487.639H269.221V448.715H271.234V487.639ZM271.234 446.667H269.221V407.744H271.234V446.667ZM271.234 405.696H269.221V366.773H271.234V405.696ZM271.234 364.725H269.221V325.802H271.234V364.725ZM271.234 323.754H269.221V284.831H271.234V323.754ZM271.234 282.783H269.221V243.86H271.234V282.783ZM271.234 241.812H269.221V202.888H271.234V241.812ZM271.234 200.839H269.221V161.917H271.234V200.839ZM271.234 159.87H269.221V120.946H271.234V159.87ZM271.234 118.899H269.221V79.9752H271.234V118.899ZM271.234 77.9256H269.221V39.0041H271.234V77.9256ZM271.234 36.9566H269.221V-0.947265H271.234V36.9566Z" fill="#484848" fill-opacity="0.08"/>
<path d="M313.51 814.388H311.497V776.483H313.51V814.388ZM313.51 774.436H311.497V735.513H313.51V774.436ZM313.51 733.463H311.497V694.544H313.51V733.463ZM313.51 692.494H311.497V653.57H313.51V692.494ZM313.51 651.523H311.497V612.599H313.51V651.523ZM313.51 610.552H311.497V571.628H313.51V610.552ZM313.51 569.581H311.497V530.657H313.51V569.581ZM313.51 528.608H311.497V489.688H313.51V528.608ZM313.51 487.639H311.497V448.715H313.51V487.639ZM313.51 446.667H311.497V407.744H313.51V446.667ZM313.51 405.696H311.497V366.773H313.51V405.696ZM313.51 364.725H311.497V325.802H313.51V364.725ZM313.51 323.754H311.497V284.831H313.51V323.754ZM313.51 282.783H311.497V243.86H313.51V282.783ZM313.51 241.812H311.497V202.888H313.51V241.812ZM313.51 200.839H311.497V161.917H313.51V200.839ZM313.51 159.87H311.497V120.946H313.51V159.87ZM313.51 118.899H311.497V79.9752H313.51V118.899ZM313.51 77.9256H311.497V39.0041H313.51V77.9256ZM313.51 36.9566H311.497V-0.947265H313.51V36.9566Z" fill="#484848" fill-opacity="0.08"/>
<path d="M353.774 814.388H351.761V776.483H353.774V814.388ZM353.774 774.436H351.761V735.513H353.774V774.436ZM353.774 733.463H351.761V694.544H353.774V733.463ZM353.774 692.494H351.761V653.57H353.774V692.494ZM353.774 651.523H351.761V612.599H353.774V651.523ZM353.774 610.552H351.761V571.628H353.774V610.552ZM353.774 569.581H351.761V530.657H353.774V569.581ZM353.774 528.608H351.761V489.688H353.774V528.608ZM353.774 487.639H351.761V448.715H353.774V487.639ZM353.774 446.667H351.761V407.744H353.774V446.667ZM353.774 405.696H351.761V366.773H353.774V405.696ZM353.774 364.725H351.761V325.802H353.774V364.725ZM353.774 323.754H351.761V284.831H353.774V323.754ZM353.774 282.783H351.761V243.86H353.774V282.783ZM353.774 241.812H351.761V202.888H353.774V241.812ZM353.774 200.839H351.761V161.917H353.774V200.839ZM353.774 159.87H351.761V120.946H353.774V159.87ZM353.774 118.899H351.761V79.9752H353.774V118.899ZM353.774 77.9256H351.761V39.0041H353.774V77.9256ZM353.774 36.9566H351.761V-0.947265H353.774V36.9566Z" fill="#484848" fill-opacity="0.08"/>
<path d="M597.368 39.3162H559.277V37.303H597.368V39.3162ZM557.219 39.3162H518.103V37.303H557.219V39.3162ZM516.044 39.3162H476.932V37.303H516.044V39.3162ZM474.872 39.3162H435.756V37.303H474.872V39.3162ZM433.699 39.3162H394.583V37.303H433.699V39.3162ZM392.525 39.3162H353.41V37.303H392.525V39.3162ZM351.352 39.3162H312.236V37.303H351.352V39.3162ZM310.177 39.3162H271.065V37.303H310.177V39.3162ZM269.005 39.3162H229.889V37.303H269.005V39.3162ZM227.832 39.3162H188.716V37.303H227.832V39.3162ZM186.658 39.3162H147.543V37.303H186.658V39.3162ZM145.485 39.3162H106.369V37.303H145.485V39.3162ZM104.312 39.3162H65.1958V37.303H104.312V39.3162ZM63.1381 39.3162H24.0224V37.303H63.1381V39.3162ZM21.9647 39.3162H-17.1511V37.303H21.9647V39.3162ZM-19.2108 39.3162H-58.3245V37.303H-19.2108V39.3162ZM-60.3821 39.3162H-99.4975V37.303H-60.3821V39.3162V39.3162ZM-101.556 39.3162H-140.671V37.303H-101.556V39.3162V39.3162ZM-142.73 39.3162H-181.844V37.303H-142.73V39.3162V39.3162ZM-183.903 39.3162H-221.993V37.303H-183.903V39.3162" fill="#484848" fill-opacity="0.08"/>
<path d="M597.368 79.5796H559.277V77.5664H597.368V79.5796ZM557.219 79.5796H518.103V77.5664H557.219V79.5796ZM516.044 79.5796H476.932V77.5664H516.044V79.5796ZM474.872 79.5796H435.756V77.5664H474.872V79.5796ZM433.699 79.5796H394.583V77.5664H433.699V79.5796ZM392.525 79.5796H353.41V77.5664H392.525V79.5796ZM351.352 79.5796H312.236V77.5664H351.352V79.5796ZM310.177 79.5796H271.065V77.5664H310.177V79.5796ZM269.005 79.5796H229.889V77.5664H269.005V79.5796ZM227.832 79.5796H188.716V77.5664H227.832V79.5796ZM186.658 79.5796H147.543V77.5664H186.658V79.5796ZM145.485 79.5796H106.369V77.5664H145.485V79.5796ZM104.312 79.5796H65.1958V77.5664H104.312V79.5796ZM63.1381 79.5796H24.0224V77.5664H63.1381V79.5796ZM21.9647 79.5796H-17.1511V77.5664H21.9647V79.5796ZM-19.2108 79.5796H-58.3245V77.5664H-19.2108V79.5796ZM-60.3821 79.5796H-99.4975V77.5664H-60.3821V79.5796V79.5796ZM-101.556 79.5796H-140.671V77.5664H-101.556V79.5796V79.5796ZM-142.73 79.5796H-181.844V77.5664H-142.73V79.5796V79.5796ZM-183.903 79.5796H-221.993V77.5664H-183.903V79.5796" fill="#484848" fill-opacity="0.08"/>
<path d="M21.6005 79.5796H23.6136V77.5664H21.6005V79.5796Z" fill="#6D6D6D" fill-opacity="0.04"/>
<path d="M61.8639 79.5796H63.8771V77.5664H61.8639V79.5796Z" fill="#6D6D6D" fill-opacity="0.04"/>
<path d="M104.141 79.5796H106.154V77.5664H104.141V79.5796Z" fill="#6D6D6D" fill-opacity="0.04"/>
<path d="M145.411 79.5796H147.424V77.5664H145.411V79.5796Z" fill="#6D6D6D" fill-opacity="0.04"/>
<path d="M185.674 79.5796H189.7V77.5664H185.674V79.5796Z" fill="#A4A4A4" fill-opacity="0.06"/>
<path d="M227.951 79.5796H229.964V77.5664H227.951V79.5796Z" fill="#6D6D6D" fill-opacity="0.04"/>
<path d="M269.221 79.5796H271.234V77.5664H269.221V79.5796Z" fill="#6D6D6D" fill-opacity="0.04"/>
<path d="M311.497 79.5796H313.51V77.5664H311.497V79.5796Z" fill="#6D6D6D" fill-opacity="0.04"/>
<path d="M351.761 79.5796H353.774V77.5664H351.761V79.5796Z" fill="#6D6D6D" fill-opacity="0.04"/>
<path d="M597.368 120.85H559.277V118.836H597.368V120.85ZM557.219 120.85H518.103V118.836H557.219V120.85ZM516.044 120.85H476.932V118.836H516.044V120.85ZM474.872 120.85H435.756V118.836H474.872V120.85ZM433.699 120.85H394.583V118.836H433.699V120.85ZM392.525 120.85H353.41V118.836H392.525V120.85ZM351.352 120.85H312.236V118.836H351.352V120.85ZM310.177 120.85H271.065V118.836H310.177V120.85ZM269.005 120.85H229.889V118.836H269.005V120.85ZM227.832 120.85H188.716V118.836H227.832V120.85ZM186.658 120.85H147.543V118.836H186.658V120.85ZM145.485 120.85H106.369V118.836H145.485V120.85ZM104.312 120.85H65.1958V118.836H104.312V120.85ZM63.1381 120.85H24.0224V118.836H63.1381V120.85ZM21.9647 120.85H-17.1511V118.836H21.9647V120.85ZM-19.2108 120.85H-58.3245V118.836H-19.2108V120.85ZM-60.3821 120.85H-99.4975V118.836H-60.3821V120.85V120.85ZM-101.556 120.85H-140.671V118.836H-101.556V120.85V120.85ZM-142.73 120.85H-181.844V118.836H-142.73V120.85V120.85ZM-183.903 120.85H-221.993V118.836H-183.903V120.85" fill="#484848" fill-opacity="0.08"/>
<path d="M21.6005 120.85H23.6136V118.836H21.6005V120.85Z" fill="#6D6D6D" fill-opacity="0.04"/>
<path d="M61.8639 120.85H63.8771V118.836H61.8639V120.85Z" fill="#6D6D6D" fill-opacity="0.04"/>
<path d="M104.141 120.85H106.154V118.836H104.141V120.85Z" fill="#6D6D6D" fill-opacity="0.04"/>
<path d="M145.411 120.85H147.424V118.836H145.411V120.85Z" fill="#6D6D6D" fill-opacity="0.04"/>
<path d="M185.674 120.85H189.7V118.836H185.674V120.85Z" fill="#A4A4A4" fill-opacity="0.06"/>
<path d="M227.951 120.85H229.964V118.836H227.951V120.85Z" fill="#6D6D6D" fill-opacity="0.04"/>
<path d="M269.221 120.85H271.234V118.836H269.221V120.85Z" fill="#6D6D6D" fill-opacity="0.04"/>
<path d="M311.497 120.85H313.51V118.836H311.497V120.85Z" fill="#6D6D6D" fill-opacity="0.04"/>
<path d="M351.761 120.85H353.774V118.836H351.761V120.85Z" fill="#6D6D6D" fill-opacity="0.04"/>
<path d="M597.368 162.12H559.277V160.106H597.368V162.12ZM557.219 162.12H518.103V160.106H557.219V162.12ZM516.044 162.12H476.932V160.106H516.044V162.12ZM474.872 162.12H435.756V160.106H474.872V162.12ZM433.699 162.12H394.583V160.106H433.699V162.12ZM392.525 162.12H353.41V160.106H392.525V162.12ZM351.352 162.12H312.236V160.106H351.352V162.12ZM310.177 162.12H271.065V160.106H310.177V162.12ZM269.005 162.12H229.889V160.106H269.005V162.12ZM227.832 162.12H188.716V160.106H227.832V162.12ZM186.658 162.12H147.543V160.106H186.658V162.12ZM145.485 162.12H106.369V160.106H145.485V162.12ZM104.312 162.12H65.1958V160.106H104.312V162.12ZM63.1381 162.12H24.0224V160.106H63.1381V162.12ZM21.9647 162.12H-17.1511V160.106H21.9647V162.12ZM-19.2108 162.12H-58.3245V160.106H-19.2108V162.12ZM-60.3821 162.12H-99.4975V160.106H-60.3821V162.12V162.12ZM-101.556 162.12H-140.671V160.106H-101.556V162.12V162.12ZM-142.73 162.12H-181.844V160.106H-142.73V162.12V162.12ZM-183.903 162.12H-221.993V160.106H-183.903V162.12" fill="#484848" fill-opacity="0.08"/>
<path d="M21.6005 162.12H23.6136V160.106H21.6005V162.12Z" fill="#6D6D6D" fill-opacity="0.04"/>
<path d="M61.8639 162.12H63.8771V160.106H61.8639V162.12Z" fill="#6D6D6D" fill-opacity="0.04"/>
<path d="M104.141 162.12H106.154V160.106H104.141V162.12Z" fill="#6D6D6D" fill-opacity="0.04"/>
<path d="M145.411 162.12H147.424V160.106H145.411V162.12Z" fill="#6D6D6D" fill-opacity="0.04"/>
<path d="M185.674 162.12H189.7V160.106H185.674V162.12Z" fill="#A4A4A4" fill-opacity="0.06"/>
<path d="M227.951 162.12H229.964V160.106H227.951V162.12Z" fill="#6D6D6D" fill-opacity="0.04"/>
<path d="M269.221 162.12H271.234V160.106H269.221V162.12Z" fill="#6D6D6D" fill-opacity="0.04"/>
<path d="M311.497 162.12H313.51V160.106H311.497V162.12Z" fill="#6D6D6D" fill-opacity="0.04"/>
<path d="M351.761 162.12H353.774V160.106H351.761V162.12Z" fill="#6D6D6D" fill-opacity="0.04"/>
<path d="M597.368 202.383H559.277V200.37H597.368V202.383ZM557.219 202.383H518.103V200.37H557.219V202.383ZM516.044 202.383H476.932V200.37H516.044V202.383ZM474.872 202.383H435.756V200.37H474.872V202.383ZM433.699 202.383H394.583V200.37H433.699V202.383ZM392.525 202.383H353.41V200.37H392.525V202.383ZM351.352 202.383H312.236V200.37H351.352V202.383ZM310.177 202.383H271.065V200.37H310.177V202.383ZM269.005 202.383H229.889V200.37H269.005V202.383ZM227.832 202.383H188.716V200.37H227.832V202.383ZM186.658 202.383H147.543V200.37H186.658V202.383ZM145.485 202.383H106.369V200.37H145.485V202.383ZM104.312 202.383H65.1958V200.37H104.312V202.383ZM63.1381 202.383H24.0224V200.37H63.1381V202.383ZM21.9647 202.383H-17.1511V200.37H21.9647V202.383ZM-19.2108 202.383H-58.3245V200.37H-19.2108V202.383ZM-60.3821 202.383H-99.4975V200.37H-60.3821V202.383V202.383ZM-101.556 202.383H-140.671V200.37H-101.556V202.383V202.383ZM-142.73 202.383H-181.844V200.37H-142.73V202.383V202.383ZM-183.903 202.383H-221.993V200.37H-183.903V202.383" fill="#8D8D8D" fill-opacity="0.12"/>
<path d="M21.6005 202.383H23.6136V200.37H21.6005V202.383Z" fill="#A4A4A4" fill-opacity="0.06"/>
<path d="M61.8639 202.383H63.8771V200.37H61.8639V202.383Z" fill="#A4A4A4" fill-opacity="0.06"/>
<path d="M104.141 202.383H106.154V200.37H104.141V202.383Z" fill="#A4A4A4" fill-opacity="0.06"/>
<path d="M145.411 202.383H147.424V200.37H145.411V202.383Z" fill="#A4A4A4" fill-opacity="0.06"/>
<path d="M185.674 202.383H189.7V200.37H185.674V202.383Z" fill="#C6C6C6" fill-opacity="0.19"/>
<path d="M227.951 202.383H229.964V200.37H227.951V202.383Z" fill="#A4A4A4" fill-opacity="0.06"/>
<path d="M269.221 202.383H271.234V200.37H269.221V202.383Z" fill="#A4A4A4" fill-opacity="0.06"/>
<path d="M311.497 202.383H313.51V200.37H311.497V202.383Z" fill="#A4A4A4" fill-opacity="0.06"/>
<path d="M351.761 202.383H353.774V200.37H351.761V202.383Z" fill="#A4A4A4" fill-opacity="0.06"/>
<path d="M597.368 243.653H559.277V241.64H597.368V243.653ZM557.219 243.653H518.103V241.64H557.219V243.653ZM516.044 243.653H476.932V241.64H516.044V243.653ZM474.872 243.653H435.756V241.64H474.872V243.653ZM433.699 243.653H394.583V241.64H433.699V243.653ZM392.525 243.653H353.41V241.64H392.525V243.653ZM351.352 243.653H312.236V241.64H351.352V243.653ZM310.177 243.653H271.065V241.64H310.177V243.653ZM269.005 243.653H229.889V241.64H269.005V243.653ZM227.832 243.653H188.716V241.64H227.832V243.653ZM186.658 243.653H147.543V241.64H186.658V243.653ZM145.485 243.653H106.369V241.64H145.485V243.653ZM104.312 243.653H65.1958V241.64H104.312V243.653ZM63.1381 243.653H24.0224V241.64H63.1381V243.653ZM21.9647 243.653H-17.1511V241.64H21.9647V243.653ZM-19.2108 243.653H-58.3245V241.64H-19.2108V243.653ZM-60.3821 243.653H-99.4975V241.64H-60.3821V243.653V243.653ZM-101.556 243.653H-140.671V241.64H-101.556V243.653V243.653ZM-142.73 243.653H-181.844V241.64H-142.73V243.653V243.653ZM-183.903 243.653H-221.993V241.64H-183.903V243.653" fill="#484848" fill-opacity="0.08"/>
<path d="M21.6005 243.653H23.6136V241.64H21.6005V243.653Z" fill="#6D6D6D" fill-opacity="0.04"/>
<path d="M61.8639 243.653H63.8771V241.64H61.8639V243.653Z" fill="#6D6D6D" fill-opacity="0.04"/>
<path d="M104.141 243.653H106.154V241.64H104.141V243.653Z" fill="#6D6D6D" fill-opacity="0.04"/>
<path d="M145.411 243.653H147.424V241.64H145.411V243.653Z" fill="#6D6D6D" fill-opacity="0.04"/>
<path d="M185.674 243.653H189.7V241.64H185.674V243.653Z" fill="#A4A4A4" fill-opacity="0.06"/>
<path d="M227.951 243.653H229.964V241.64H227.951V243.653Z" fill="#6D6D6D" fill-opacity="0.04"/>
<path d="M269.221 243.653H271.234V241.64H269.221V243.653Z" fill="#6D6D6D" fill-opacity="0.04"/>
<path d="M311.497 243.653H313.51V241.64H311.497V243.653Z" fill="#6D6D6D" fill-opacity="0.04"/>
<path d="M351.761 243.653H353.774V241.64H351.761V243.653Z" fill="#6D6D6D" fill-opacity="0.04"/>
<path d="M597.368 284.923H559.277V282.91H597.368V284.923ZM557.219 284.923H518.103V282.91H557.219V284.923ZM516.044 284.923H476.932V282.91H516.044V284.923ZM474.872 284.923H435.756V282.91H474.872V284.923ZM433.699 284.923H394.583V282.91H433.699V284.923ZM392.525 284.923H353.41V282.91H392.525V284.923ZM351.352 284.923H312.236V282.91H351.352V284.923ZM310.177 284.923H271.065V282.91H310.177V284.923ZM269.005 284.923H229.889V282.91H269.005V284.923ZM227.832 284.923H188.716V282.91H227.832V284.923ZM186.658 284.923H147.543V282.91H186.658V284.923ZM145.485 284.923H106.369V282.91H145.485V284.923ZM104.312 284.923H65.1958V282.91H104.312V284.923ZM63.1381 284.923H24.0224V282.91H63.1381V284.923ZM21.9647 284.923H-17.1511V282.91H21.9647V284.923ZM-19.2108 284.923H-58.3245V282.91H-19.2108V284.923ZM-60.3821 284.923H-99.4975V282.91H-60.3821V284.923V284.923ZM-101.556 284.923H-140.671V282.91H-101.556V284.923V284.923ZM-142.73 284.923H-181.844V282.91H-142.73V284.923V284.923ZM-183.903 284.923H-221.993V282.91H-183.903V284.923" fill="#484848" fill-opacity="0.08"/>
<path d="M21.6005 284.923H23.6136V282.91H21.6005V284.923Z" fill="#6D6D6D" fill-opacity="0.04"/>
<path d="M61.8639 284.923H63.8771V282.91H61.8639V284.923Z" fill="#6D6D6D" fill-opacity="0.04"/>
<path d="M104.141 284.923H106.154V282.91H104.141V284.923Z" fill="#6D6D6D" fill-opacity="0.04"/>
<path d="M145.411 284.923H147.424V282.91H145.411V284.923Z" fill="#6D6D6D" fill-opacity="0.04"/>
<path d="M185.674 284.923H189.7V282.91H185.674V284.923Z" fill="#A4A4A4" fill-opacity="0.06"/>
<path d="M227.951 284.923H229.964V282.91H227.951V284.923Z" fill="#6D6D6D" fill-opacity="0.04"/>
<path d="M269.221 284.923H271.234V282.91H269.221V284.923Z" fill="#6D6D6D" fill-opacity="0.04"/>
<path d="M311.497 284.923H313.51V282.91H311.497V284.923Z" fill="#6D6D6D" fill-opacity="0.04"/>
<path d="M351.761 284.923H353.774V282.91H351.761V284.923Z" fill="#6D6D6D" fill-opacity="0.04"/>
<path d="M597.368 326.193H559.277V324.18H597.368V326.193ZM557.219 326.193H518.103V324.18H557.219V326.193ZM516.044 326.193H476.932V324.18H516.044V326.193ZM474.872 326.193H435.756V324.18H474.872V326.193ZM433.699 326.193H394.583V324.18H433.699V326.193ZM392.525 326.193H353.41V324.18H392.525V326.193ZM351.352 326.193H312.236V324.18H351.352V326.193ZM310.177 326.193H271.065V324.18H310.177V326.193ZM269.005 326.193H229.889V324.18H269.005V326.193ZM227.832 326.193H188.716V324.18H227.832V326.193ZM186.658 326.193H147.543V324.18H186.658V326.193ZM145.485 326.193H106.369V324.18H145.485V326.193ZM104.312 326.193H65.1958V324.18H104.312V326.193ZM63.1381 326.193H24.0224V324.18H63.1381V326.193ZM21.9647 326.193H-17.1511V324.18H21.9647V326.193ZM-19.2108 326.193H-58.3245V324.18H-19.2108V326.193ZM-60.3821 326.193H-99.4975V324.18H-60.3821V326.193V326.193ZM-101.556 326.193H-140.671V324.18H-101.556V326.193V326.193ZM-142.73 326.193H-181.844V324.18H-142.73V326.193V326.193ZM-183.903 326.193H-221.993V324.18H-183.903V326.193" fill="#484848" fill-opacity="0.08"/>
<path d="M21.6005 326.193H23.6136V324.18H21.6005V326.193Z" fill="#6D6D6D" fill-opacity="0.04"/>
<path d="M61.8639 326.193H63.8771V324.18H61.8639V326.193Z" fill="#6D6D6D" fill-opacity="0.04"/>
<path d="M104.141 326.193H106.154V324.18H104.141V326.193Z" fill="#6D6D6D" fill-opacity="0.04"/>
<path d="M145.411 326.193H147.424V324.18H145.411V326.193Z" fill="#6D6D6D" fill-opacity="0.04"/>
<path d="M185.674 326.193H189.7V324.18H185.674V326.193Z" fill="#A4A4A4" fill-opacity="0.06"/>
<path d="M227.951 326.193H229.964V324.18H227.951V326.193Z" fill="#6D6D6D" fill-opacity="0.04"/>
<path d="M269.221 326.193H271.234V324.18H269.221V326.193Z" fill="#6D6D6D" fill-opacity="0.04"/>
<path d="M311.497 326.193H313.51V324.18H311.497V326.193Z" fill="#6D6D6D" fill-opacity="0.04"/>
<path d="M351.761 326.193H353.774V324.18H351.761V326.193Z" fill="#6D6D6D" fill-opacity="0.04"/>
<path d="M597.368 366.457H559.277V364.443H597.368V366.457ZM557.219 366.457H518.103V364.443H557.219V366.457ZM516.044 366.457H476.932V364.443H516.044V366.457ZM474.872 366.457H435.756V364.443H474.872V366.457ZM433.699 366.457H394.583V364.443H433.699V366.457ZM392.525 366.457H353.41V364.443H392.525V366.457ZM351.352 366.457H312.236V364.443H351.352V366.457ZM310.177 366.457H271.065V364.443H310.177V366.457ZM269.005 366.457H229.889V364.443H269.005V366.457ZM227.832 366.457H188.716V364.443H227.832V366.457ZM186.658 366.457H147.543V364.443H186.658V366.457ZM145.485 366.457H106.369V364.443H145.485V366.457ZM104.312 366.457H65.1958V364.443H104.312V366.457ZM63.1381 366.457H24.0224V364.443H63.1381V366.457ZM21.9647 366.457H-17.1511V364.443H21.9647V366.457ZM-19.2108 366.457H-58.3245V364.443H-19.2108V366.457ZM-60.3821 366.457H-99.4975V364.443H-60.3821V366.457V366.457ZM-101.556 366.457H-140.671V364.443H-101.556V366.457V366.457ZM-142.73 366.457H-181.844V364.443H-142.73V366.457V366.457ZM-183.903 366.457H-221.993V364.443H-183.903V366.457" fill="#484848" fill-opacity="0.08"/>
<path d="M21.6005 366.457H23.6136V364.443H21.6005V366.457Z" fill="#6D6D6D" fill-opacity="0.04"/>
<path d="M61.8639 366.457H63.8771V364.443H61.8639V366.457Z" fill="#6D6D6D" fill-opacity="0.04"/>
<path d="M104.141 366.457H106.154V364.443H104.141V366.457Z" fill="#6D6D6D" fill-opacity="0.04"/>
<path d="M145.411 366.457H147.424V364.443H145.411V366.457Z" fill="#6D6D6D" fill-opacity="0.04"/>
<path d="M185.674 366.457H189.7V364.443H185.674V366.457Z" fill="#A4A4A4" fill-opacity="0.06"/>
<path d="M227.951 366.457H229.964V364.443H227.951V366.457Z" fill="#6D6D6D" fill-opacity="0.04"/>
<path d="M269.221 366.457H271.234V364.443H269.221V366.457Z" fill="#6D6D6D" fill-opacity="0.04"/>
<path d="M311.497 366.457H313.51V364.443H311.497V366.457Z" fill="#6D6D6D" fill-opacity="0.04"/>
<path d="M351.761 366.457H353.774V364.443H351.761V366.457Z" fill="#6D6D6D" fill-opacity="0.04"/>
<path d="M597.368 408.733H559.277V406.72H597.368V408.733ZM557.219 408.733H518.103V406.72H557.219V408.733ZM516.044 408.733H476.932V406.72H516.044V408.733ZM474.872 408.733H435.756V406.72H474.872V408.733ZM433.699 408.733H394.583V406.72H433.699V408.733ZM392.525 408.733H353.41V406.72H392.525V408.733ZM351.352 408.733H312.236V406.72H351.352V408.733ZM310.177 408.733H271.065V406.72H310.177V408.733ZM269.005 408.733H229.889V406.72H269.005V408.733ZM227.832 408.733H188.716V406.72H227.832V408.733ZM186.658 408.733H147.543V406.72H186.658V408.733ZM145.485 408.733H106.369V406.72H145.485V408.733ZM104.312 408.733H65.1958V406.72H104.312V408.733ZM63.1381 408.733H24.0224V406.72H63.1381V408.733ZM21.9647 408.733H-17.1511V406.72H21.9647V408.733ZM-19.2108 408.733H-58.3245V406.72H-19.2108V408.733ZM-60.3821 408.733H-99.4975V406.72H-60.3821V408.733V408.733ZM-101.556 408.733H-140.671V406.72H-101.556V408.733V408.733ZM-142.73 408.733H-181.844V406.72H-142.73V408.733V408.733ZM-183.903 408.733H-221.993V406.72H-183.903V408.733" fill="#8D8D8D" fill-opacity="0.12"/>
<path d="M21.6005 408.733H23.6136V406.72H21.6005V408.733Z" fill="#A4A4A4" fill-opacity="0.06"/>
<path d="M61.8639 408.733H63.8771V406.72H61.8639V408.733Z" fill="#A4A4A4" fill-opacity="0.06"/>
<path d="M104.141 408.733H106.154V406.72H104.141V408.733Z" fill="#A4A4A4" fill-opacity="0.06"/>
<path d="M145.411 408.733H147.424V406.72H145.411V408.733Z" fill="#A4A4A4" fill-opacity="0.06"/>
<path d="M185.674 408.733H189.7V406.72H185.674V408.733Z" fill="#C6C6C6" fill-opacity="0.19"/>
<path d="M227.951 408.733H229.964V406.72H227.951V408.733Z" fill="#A4A4A4" fill-opacity="0.06"/>
<path d="M269.221 408.733H271.234V406.72H269.221V408.733Z" fill="#A4A4A4" fill-opacity="0.06"/>
<path d="M311.497 408.733H313.51V406.72H311.497V408.733Z" fill="#A4A4A4" fill-opacity="0.06"/>
<path d="M351.761 408.733H353.774V406.72H351.761V408.733Z" fill="#A4A4A4" fill-opacity="0.06"/>
<path d="M597.368 448.997H559.277V446.984H597.368V448.997V448.997ZM557.219 448.997H518.103V446.984H557.219V448.997ZM516.044 448.997H476.932V446.984H516.044V448.997ZM474.872 448.997H435.756V446.984H474.872V448.997ZM433.699 448.997H394.583V446.984H433.699V448.997ZM392.525 448.997H353.41V446.984H392.525V448.997ZM351.352 448.997H312.236V446.984H351.352V448.997ZM310.177 448.997H271.065V446.984H310.177V448.997ZM269.005 448.997H229.889V446.984H269.005V448.997ZM227.832 448.997H188.716V446.984H227.832V448.997ZM186.658 448.997H147.543V446.984H186.658V448.997ZM145.485 448.997H106.369V446.984H145.485V448.997ZM104.312 448.997H65.1958V446.984H104.312V448.997ZM63.1381 448.997H24.0224V446.984H63.1381V448.997ZM21.9647 448.997H-17.1511V446.984H21.9647V448.997ZM-19.2108 448.997H-58.3245V446.984H-19.2108V448.997ZM-60.3821 448.997H-99.4975V446.984H-60.3821V448.997V448.997ZM-101.556 448.997H-140.671V446.984H-101.556V448.997V448.997ZM-142.73 448.997H-181.844V446.984H-142.73V448.997V448.997ZM-183.903 448.997H-221.993V446.984H-183.903V448.997" fill="#484848" fill-opacity="0.08"/>
<path d="M21.6005 448.997H23.6136V446.984H21.6005V448.997Z" fill="#6D6D6D" fill-opacity="0.04"/>
<path d="M61.8639 448.997H63.8771V446.984H61.8639V448.997Z" fill="#6D6D6D" fill-opacity="0.04"/>
<path d="M104.141 448.997H106.154V446.984H104.141V448.997Z" fill="#6D6D6D" fill-opacity="0.04"/>
<path d="M145.411 448.997H147.424V446.984H145.411V448.997Z" fill="#6D6D6D" fill-opacity="0.04"/>
<path d="M185.674 448.997H189.7V446.984H185.674V448.997Z" fill="#A4A4A4" fill-opacity="0.06"/>
<path d="M227.951 448.997H229.964V446.984H227.951V448.997Z" fill="#6D6D6D" fill-opacity="0.04"/>
<path d="M269.221 448.997H271.234V446.984H269.221V448.997Z" fill="#6D6D6D" fill-opacity="0.04"/>
<path d="M311.497 448.997H313.51V446.984H311.497V448.997Z" fill="#6D6D6D" fill-opacity="0.04"/>
<path d="M351.761 448.997H353.774V446.984H351.761V448.997Z" fill="#6D6D6D" fill-opacity="0.04"/>
<path d="M597.368 489.26H559.277V487.247H597.368V489.26ZM557.219 489.26H518.103V487.247H557.219V489.26ZM516.044 489.26H476.932V487.247H516.044V489.26ZM474.872 489.26H435.756V487.247H474.872V489.26ZM433.699 489.26H394.583V487.247H433.699V489.26ZM392.525 489.26H353.41V487.247H392.525V489.26ZM351.352 489.26H312.236V487.247H351.352V489.26ZM310.177 489.26H271.065V487.247H310.177V489.26ZM269.005 489.26H229.889V487.247H269.005V489.26ZM227.832 489.26H188.716V487.247H227.832V489.26ZM186.658 489.26H147.543V487.247H186.658V489.26ZM145.485 489.26H106.369V487.247H145.485V489.26ZM104.312 489.26H65.1958V487.247H104.312V489.26ZM63.1381 489.26H24.0224V487.247H63.1381V489.26ZM21.9647 489.26H-17.1511V487.247H21.9647V489.26ZM-19.2108 489.26H-58.3245V487.247H-19.2108V489.26ZM-60.3821 489.26H-99.4975V487.247H-60.3821V489.26V489.26ZM-101.556 489.26H-140.671V487.247H-101.556V489.26V489.26ZM-142.73 489.26H-181.844V487.247H-142.73V489.26V489.26ZM-183.903 489.26H-221.993V487.247H-183.903V489.26" fill="#484848" fill-opacity="0.08"/>
<path d="M21.6005 489.26H23.6136V487.247H21.6005V489.26Z" fill="#6D6D6D" fill-opacity="0.04"/>
<path d="M61.8639 489.26H63.8771V487.247H61.8639V489.26Z" fill="#6D6D6D" fill-opacity="0.04"/>
<path d="M104.141 489.26H106.154V487.247H104.141V489.26Z" fill="#6D6D6D" fill-opacity="0.04"/>
<path d="M145.411 489.26H147.424V487.247H145.411V489.26Z" fill="#6D6D6D" fill-opacity="0.04"/>
<path d="M185.674 489.26H189.7V487.247H185.674V489.26Z" fill="#A4A4A4" fill-opacity="0.06"/>
<path d="M227.951 489.26H229.964V487.247H227.951V489.26Z" fill="#6D6D6D" fill-opacity="0.04"/>
<path d="M269.221 489.26H271.234V487.247H269.221V489.26Z" fill="#6D6D6D" fill-opacity="0.04"/>
<path d="M311.497 489.26H313.51V487.247H311.497V489.26Z" fill="#6D6D6D" fill-opacity="0.04"/>
<path d="M351.761 489.26H353.774V487.247H351.761V489.26Z" fill="#6D6D6D" fill-opacity="0.04"/>
<path d="M597.368 531.537H559.277V529.524H597.368V531.537ZM557.219 531.537H518.103V529.524H557.219V531.537ZM516.044 531.537H476.932V529.524H516.044V531.537ZM474.872 531.537H435.756V529.524H474.872V531.537ZM433.699 531.537H394.583V529.524H433.699V531.537ZM392.525 531.537H353.41V529.524H392.525V531.537ZM351.352 531.537H312.236V529.524H351.352V531.537ZM310.177 531.537H271.065V529.524H310.177V531.537ZM269.005 531.537H229.889V529.524H269.005V531.537ZM227.832 531.537H188.716V529.524H227.832V531.537ZM186.658 531.537H147.543V529.524H186.658V531.537ZM145.485 531.537H106.369V529.524H145.485V531.537ZM104.312 531.537H65.1958V529.524H104.312V531.537ZM63.1381 531.537H24.0224V529.524H63.1381V531.537ZM21.9647 531.537H-17.1511V529.524H21.9647V531.537ZM-19.2108 531.537H-58.3245V529.524H-19.2108V531.537ZM-60.3821 531.537H-99.4975V529.524H-60.3821V531.537V531.537ZM-101.556 531.537H-140.671V529.524H-101.556V531.537V531.537ZM-142.73 531.537H-181.844V529.524H-142.73V531.537V531.537ZM-183.903 531.537H-221.993V529.524H-183.903V531.537" fill="#484848" fill-opacity="0.08"/>
<path d="M21.6005 531.537H23.6136V529.524H21.6005V531.537Z" fill="#6D6D6D" fill-opacity="0.04"/>
<path d="M61.8639 531.537H63.8771V529.524H61.8639V531.537Z" fill="#6D6D6D" fill-opacity="0.04"/>
<path d="M104.141 531.537H106.154V529.524H104.141V531.537Z" fill="#6D6D6D" fill-opacity="0.04"/>
<path d="M145.411 531.537H147.424V529.524H145.411V531.537Z" fill="#6D6D6D" fill-opacity="0.04"/>
<path d="M185.674 531.537H189.7V529.524H185.674V531.537Z" fill="#A4A4A4" fill-opacity="0.06"/>
<path d="M227.951 531.537H229.964V529.524H227.951V531.537Z" fill="#6D6D6D" fill-opacity="0.04"/>
<path d="M269.221 531.537H271.234V529.524H269.221V531.537Z" fill="#6D6D6D" fill-opacity="0.04"/>
<path d="M311.497 531.537H313.51V529.524H311.497V531.537Z" fill="#6D6D6D" fill-opacity="0.04"/>
<path d="M351.761 531.537H353.774V529.524H351.761V531.537Z" fill="#6D6D6D" fill-opacity="0.04"/>
<path d="M597.368 571.8H559.277V569.787H597.368V571.8ZM557.219 571.8H518.103V569.787H557.219V571.8ZM516.044 571.8H476.932V569.787H516.044V571.8ZM474.872 571.8H435.756V569.787H474.872V571.8ZM433.699 571.8H394.583V569.787H433.699V571.8ZM392.525 571.8H353.41V569.787H392.525V571.8ZM351.352 571.8H312.236V569.787H351.352V571.8ZM310.177 571.8H271.065V569.787H310.177V571.8ZM269.005 571.8H229.889V569.787H269.005V571.8ZM227.832 571.8H188.716V569.787H227.832V571.8ZM186.658 571.8H147.543V569.787H186.658V571.8ZM145.485 571.8H106.369V569.787H145.485V571.8ZM104.312 571.8H65.1958V569.787H104.312V571.8ZM63.1381 571.8H24.0224V569.787H63.1381V571.8ZM21.9647 571.8H-17.1511V569.787H21.9647V571.8ZM-19.2108 571.8H-58.3245V569.787H-19.2108V571.8ZM-60.3821 571.8H-99.4975V569.787H-60.3821V571.8V571.8ZM-101.556 571.8H-140.671V569.787H-101.556V571.8V571.8ZM-142.73 571.8H-181.844V569.787H-142.73V571.8V571.8ZM-183.903 571.8H-221.993V569.787H-183.903V571.8" fill="#484848" fill-opacity="0.08"/>
<path d="M21.6005 571.8H23.6136V569.787H21.6005V571.8Z" fill="#6D6D6D" fill-opacity="0.04"/>
<path d="M61.8639 571.8H63.8771V569.787H61.8639V571.8Z" fill="#6D6D6D" fill-opacity="0.04"/>
<path d="M104.141 571.8H106.154V569.787H104.141V571.8Z" fill="#6D6D6D" fill-opacity="0.04"/>
<path d="M145.411 571.8H147.424V569.787H145.411V571.8Z" fill="#6D6D6D" fill-opacity="0.04"/>
<path d="M185.674 571.8H189.7V569.787H185.674V571.8Z" fill="#A4A4A4" fill-opacity="0.06"/>
<path d="M227.951 571.8H229.964V569.787H227.951V571.8Z" fill="#6D6D6D" fill-opacity="0.04"/>
<path d="M269.221 571.8H271.234V569.787H269.221V571.8Z" fill="#6D6D6D" fill-opacity="0.04"/>
<path d="M311.497 571.8H313.51V569.787H311.497V571.8Z" fill="#6D6D6D" fill-opacity="0.04"/>
<path d="M351.761 571.8H353.774V569.787H351.761V571.8Z" fill="#6D6D6D" fill-opacity="0.04"/>
<path d="M597.368 612.064H559.277V610.05H597.368V612.064ZM557.219 612.064H518.103V610.05H557.219V612.064ZM516.044 612.064H476.932V610.05H516.044V612.064ZM474.872 612.064H435.756V610.05H474.872V612.064ZM433.699 612.064H394.583V610.05H433.699V612.064ZM392.525 612.064H353.41V610.05H392.525V612.064ZM351.352 612.064H312.236V610.05H351.352V612.064ZM310.177 612.064H271.065V610.05H310.177V612.064ZM269.005 612.064H229.889V610.05H269.005V612.064ZM227.832 612.064H188.716V610.05H227.832V612.064ZM186.658 612.064H147.543V610.05H186.658V612.064ZM145.485 612.064H106.369V610.05H145.485V612.064ZM104.312 612.064H65.1958V610.05H104.312V612.064ZM63.1381 612.064H24.0224V610.05H63.1381V612.064ZM21.9647 612.064H-17.1511V610.05H21.9647V612.064ZM-19.2108 612.064H-58.3245V610.05H-19.2108V612.064ZM-60.3821 612.064H-99.4975V610.05H-60.3821V612.064V612.064ZM-101.556 612.064H-140.671V610.05H-101.556V612.064V612.064ZM-142.73 612.064H-181.844V610.05H-142.73V612.064V612.064ZM-183.903 612.064H-221.993V610.05H-183.903V612.064" fill="#8D8D8D" fill-opacity="0.12"/>
<path d="M21.6005 612.064H23.6136V610.05H21.6005V612.064Z" fill="#A4A4A4" fill-opacity="0.06"/>
<path d="M61.8639 612.064H63.8771V610.05H61.8639V612.064Z" fill="#A4A4A4" fill-opacity="0.06"/>
<path d="M104.141 612.064H106.154V610.05H104.141V612.064Z" fill="#A4A4A4" fill-opacity="0.06"/>
<path d="M145.411 612.064H147.424V610.05H145.411V612.064Z" fill="#A4A4A4" fill-opacity="0.06"/>
<path d="M185.674 612.064H189.7V610.05H185.674V612.064Z" fill="#C6C6C6" fill-opacity="0.19"/>
<path d="M227.951 612.064H229.964V610.05H227.951V612.064Z" fill="#A4A4A4" fill-opacity="0.06"/>
<path d="M269.221 612.064H271.234V610.05H269.221V612.064Z" fill="#A4A4A4" fill-opacity="0.06"/>
<path d="M311.497 612.064H313.51V610.05H311.497V612.064Z" fill="#A4A4A4" fill-opacity="0.06"/>
<path d="M351.761 612.064H353.774V610.05H351.761V612.064Z" fill="#A4A4A4" fill-opacity="0.06"/>
<path d="M597.368 653.334H559.277V651.321H597.368V653.334ZM557.219 653.334H518.103V651.321H557.219V653.334ZM516.044 653.334H476.932V651.321H516.044V653.334ZM474.872 653.334H435.756V651.321H474.872V653.334ZM433.699 653.334H394.583V651.321H433.699V653.334ZM392.525 653.334H353.41V651.321H392.525V653.334ZM351.352 653.334H312.236V651.321H351.352V653.334ZM310.177 653.334H271.065V651.321H310.177V653.334ZM269.005 653.334H229.889V651.321H269.005V653.334ZM227.832 653.334H188.716V651.321H227.832V653.334ZM186.658 653.334H147.543V651.321H186.658V653.334ZM145.485 653.334H106.369V651.321H145.485V653.334ZM104.312 653.334H65.1958V651.321H104.312V653.334ZM63.1381 653.334H24.0224V651.321H63.1381V653.334ZM21.9647 653.334H-17.1511V651.321H21.9647V653.334ZM-19.2108 653.334H-58.3245V651.321H-19.2108V653.334ZM-60.3821 653.334H-99.4975V651.321H-60.3821V653.334V653.334ZM-101.556 653.334H-140.671V651.321H-101.556V653.334V653.334ZM-142.73 653.334H-181.844V651.321H-142.73V653.334V653.334ZM-183.903 653.334H-221.993V651.321H-183.903V653.334" fill="#484848" fill-opacity="0.08"/>
<path d="M21.6005 653.334H23.6136V651.321H21.6005V653.334Z" fill="#6D6D6D" fill-opacity="0.04"/>
<path d="M61.8639 653.334H63.8771V651.321H61.8639V653.334Z" fill="#6D6D6D" fill-opacity="0.04"/>
<path d="M104.141 653.334H106.154V651.321H104.141V653.334Z" fill="#6D6D6D" fill-opacity="0.04"/>
<path d="M145.411 653.334H147.424V651.321H145.411V653.334Z" fill="#6D6D6D" fill-opacity="0.04"/>
<path d="M185.674 653.334H189.7V651.321H185.674V653.334Z" fill="#A4A4A4" fill-opacity="0.06"/>
<path d="M227.951 653.334H229.964V651.321H227.951V653.334Z" fill="#6D6D6D" fill-opacity="0.04"/>
<path d="M269.221 653.334H271.234V651.321H269.221V653.334Z" fill="#6D6D6D" fill-opacity="0.04"/>
<path d="M311.497 653.334H313.51V651.321H311.497V653.334Z" fill="#6D6D6D" fill-opacity="0.04"/>
<path d="M351.761 653.334H353.774V651.321H351.761V653.334Z" fill="#6D6D6D" fill-opacity="0.04"/>
<path d="M597.368 694.604H559.277V692.591H597.368V694.604ZM557.219 694.604H518.103V692.591H557.219V694.604ZM516.044 694.604H476.932V692.591H516.044V694.604ZM474.872 694.604H435.756V692.591H474.872V694.604ZM433.699 694.604H394.583V692.591H433.699V694.604ZM392.525 694.604H353.41V692.591H392.525V694.604ZM351.352 694.604H312.236V692.591H351.352V694.604ZM310.177 694.604H271.065V692.591H310.177V694.604ZM269.005 694.604H229.889V692.591H269.005V694.604ZM227.832 694.604H188.716V692.591H227.832V694.604ZM186.658 694.604H147.543V692.591H186.658V694.604ZM145.485 694.604H106.369V692.591H145.485V694.604ZM104.312 694.604H65.1958V692.591H104.312V694.604ZM63.1381 694.604H24.0224V692.591H63.1381V694.604ZM21.9647 694.604H-17.1511V692.591H21.9647V694.604ZM-19.2108 694.604H-58.3245V692.591H-19.2108V694.604ZM-60.3821 694.604H-99.4975V692.591H-60.3821V694.604V694.604ZM-101.556 694.604H-140.671V692.591H-101.556V694.604ZM-142.73 694.604H-181.844V692.591H-142.73V694.604ZM-183.903 694.604H-221.993V692.591H-183.903V694.604" fill="#484848" fill-opacity="0.08"/>
<path d="M21.6005 694.604H23.6136V692.591H21.6005V694.604Z" fill="#6D6D6D" fill-opacity="0.04"/>
<path d="M61.8639 694.604H63.8771V692.591H61.8639V694.604Z" fill="#6D6D6D" fill-opacity="0.04"/>
<path d="M104.141 694.604H106.154V692.591H104.141V694.604Z" fill="#6D6D6D" fill-opacity="0.04"/>
<path d="M145.411 694.604H147.424V692.591H145.411V694.604Z" fill="#6D6D6D" fill-opacity="0.04"/>
<path d="M185.674 694.604H189.7V692.591H185.674V694.604Z" fill="#A4A4A4" fill-opacity="0.06"/>
<path d="M227.951 694.604H229.964V692.591H227.951V694.604Z" fill="#6D6D6D" fill-opacity="0.04"/>
<path d="M269.221 694.604H271.234V692.591H269.221V694.604Z" fill="#6D6D6D" fill-opacity="0.04"/>
<path d="M311.497 694.604H313.51V692.591H311.497V694.604Z" fill="#6D6D6D" fill-opacity="0.04"/>
<path d="M351.761 694.604H353.774V692.591H351.761V694.604Z" fill="#6D6D6D" fill-opacity="0.04"/>
<path d="M597.368 736.88H559.277V734.867H597.368V736.88V736.88ZM557.219 736.88H518.103V734.867H557.219V736.88ZM516.044 736.88H476.932V734.867H516.044V736.88ZM474.872 736.88H435.756V734.867H474.872V736.88ZM433.699 736.88H394.583V734.867H433.699V736.88ZM392.525 736.88H353.41V734.867H392.525V736.88ZM351.352 736.88H312.236V734.867H351.352V736.88ZM310.177 736.88H271.065V734.867H310.177V736.88ZM269.005 736.88H229.889V734.867H269.005V736.88ZM227.832 736.88H188.716V734.867H227.832V736.88ZM186.658 736.88H147.543V734.867H186.658V736.88ZM145.485 736.88H106.369V734.867H145.485V736.88ZM104.312 736.88H65.1958V734.867H104.312V736.88ZM63.1381 736.88H24.0224V734.867H63.1381V736.88ZM21.9647 736.88H-17.1511V734.867H21.9647V736.88ZM-19.2108 736.88H-58.3245V734.867H-19.2108V736.88ZM-60.3821 736.88H-99.4975V734.867H-60.3821V736.88V736.88ZM-101.556 736.88H-140.671V734.867H-101.556V736.88V736.88ZM-142.73 736.88H-181.844V734.867H-142.73V736.88V736.88ZM-183.903 736.88H-221.993V734.867H-183.903V736.88" fill="#484848" fill-opacity="0.08"/>
<path d="M21.6005 736.88H23.6136V734.867H21.6005V736.88Z" fill="#6D6D6D" fill-opacity="0.04"/>
<path d="M61.8639 736.88H63.8771V734.867H61.8639V736.88Z" fill="#6D6D6D" fill-opacity="0.04"/>
<path d="M104.141 736.88H106.154V734.867H104.141V736.88Z" fill="#6D6D6D" fill-opacity="0.04"/>
<path d="M145.411 736.88H147.424V734.867H145.411V736.88Z" fill="#6D6D6D" fill-opacity="0.04"/>
<path d="M185.674 736.88H189.7V734.867H185.674V736.88Z" fill="#A4A4A4" fill-opacity="0.06"/>
<path d="M227.951 736.88H229.964V734.867H227.951V736.88Z" fill="#6D6D6D" fill-opacity="0.04"/>
<path d="M269.221 736.88H271.234V734.867H269.221V736.88Z" fill="#6D6D6D" fill-opacity="0.04"/>
<path d="M311.497 736.88H313.51V734.867H311.497V736.88Z" fill="#6D6D6D" fill-opacity="0.04"/>
<path d="M351.761 736.88H353.774V734.867H351.761V736.88Z" fill="#6D6D6D" fill-opacity="0.04"/>
<path d="M597.368 777.144H559.277V775.131H597.368V777.144ZM557.219 777.144H518.103V775.131H557.219V777.144ZM516.044 777.144H476.932V775.131H516.044V777.144ZM474.872 777.144H435.756V775.131H474.872V777.144ZM433.699 777.144H394.583V775.131H433.699V777.144ZM392.525 777.144H353.41V775.131H392.525V777.144ZM351.352 777.144H312.236V775.131H351.352V777.144ZM310.177 777.144H271.065V775.131H310.177V777.144ZM269.005 777.144H229.889V775.131H269.005V777.144ZM227.832 777.144H188.716V775.131H227.832V777.144ZM186.658 777.144H147.543V775.131H186.658V777.144ZM145.485 777.144H106.369V775.131H145.485V777.144ZM104.312 777.144H65.1958V775.131H104.312V777.144ZM63.1381 777.144H24.0224V775.131H63.1381V777.144ZM21.9647 777.144H-17.1511V775.131H21.9647V777.144ZM-19.2108 777.144H-58.3245V775.131H-19.2108V777.144ZM-60.3821 777.144H-99.4975V775.131H-60.3821V777.144V777.144ZM-101.556 777.144H-140.671V775.131H-101.556V777.144V777.144ZM-142.73 777.144H-181.844V775.131H-142.73V777.144V777.144ZM-183.903 777.144H-221.993V775.131H-183.903V777.144" fill="#484848" fill-opacity="0.08"/>
<path d="M21.6005 777.144H23.6136V775.131H21.6005V777.144Z" fill="#6D6D6D" fill-opacity="0.04"/>
<path d="M61.8639 777.144H63.8771V775.131H61.8639V777.144Z" fill="#6D6D6D" fill-opacity="0.04"/>
<path d="M104.141 777.144H106.154V775.131H104.141V777.144Z" fill="#6D6D6D" fill-opacity="0.04"/>
<path d="M145.411 777.144H147.424V775.131H145.411V777.144Z" fill="#6D6D6D" fill-opacity="0.04"/>
<path d="M185.674 777.144H189.7V775.131H185.674V777.144Z" fill="#A4A4A4" fill-opacity="0.06"/>
<path d="M227.951 777.144H229.964V775.131H227.951V777.144Z" fill="#6D6D6D" fill-opacity="0.04"/>
<path d="M269.221 777.144H271.234V775.131H269.221V777.144Z" fill="#6D6D6D" fill-opacity="0.04"/>
<path d="M311.497 777.144H313.51V775.131H311.497V777.144Z" fill="#6D6D6D" fill-opacity="0.04"/>
<path d="M351.761 777.144H353.774V775.131H351.761V777.144Z" fill="#6D6D6D" fill-opacity="0.04"/>
<path d="M189.7 5.09216H185.674V-9.00004H189.7V5.09216Z" fill="white" fill-opacity="0.03"/>
<path d="M189.7 209.429H185.674V194.33H189.7V209.429Z" fill="white" fill-opacity="0.12"/>
<path d="M179.635 202.383V200.37H195.74V202.383H179.635Z" fill="white" fill-opacity="0.12"/>
<path d="M189.7 414.773H185.674V399.674H189.7V414.773Z" fill="white" fill-opacity="0.12"/>
<path d="M179.635 408.733V406.72H195.74V408.733H179.635Z" fill="white" fill-opacity="0.12"/>
<path d="M189.7 619.11H185.674V603.004H189.7V619.11Z" fill="white" fill-opacity="0.12"/>
<path d="M179.635 612.064V610.05H195.74V612.064H179.635Z" fill="white" fill-opacity="0.12"/>
<path d="M189.7 822.44H185.674V808.348H189.7V822.44Z" fill="white" fill-opacity="0.12"/>
<path d="M86.022 100.718H84.0088V98.7047H86.022V100.718Z" fill="white" fill-opacity="0.03"/>
<path d="M291.365 100.718H289.352V98.7047H291.365V100.718Z" fill="white" fill-opacity="0.03"/>
<path d="M86.022 306.062H84.0088V304.048H86.022V306.062Z" fill="white" fill-opacity="0.03"/>
<path d="M291.365 306.062H289.352V304.048H291.365V306.062Z" fill="white" fill-opacity="0.03"/>
<path d="M86.022 510.398H84.0088V508.385H86.022V510.398Z" fill="white" fill-opacity="0.03"/>
<path d="M291.365 510.398H289.352V508.385H291.365V510.398Z" fill="white" fill-opacity="0.03"/>
<path d="M86.022 714.735H84.0088V712.722H86.022V714.735Z" fill="white" fill-opacity="0.03"/>
<path d="M291.365 714.735H289.352V712.722H291.365V714.735Z" fill="white" fill-opacity="0.03"/>
</g>
<defs>
<radialGradient id="paint0_radial" cx="0" cy="0" r="1" gradientUnits="userSpaceOnUse" gradientTransform="translate(187.5 406) rotate(90) scale(406 187.5)">
<stop stop-color="#010304" stop-opacity="0.9"/>
<stop offset="1" stop-color="#070707"/>
</radialGradient>
<clipPath id="clip0">
<rect width="375" height="812" fill="white"/>
</clipPath>
</defs>
</svg>
