<svg width="17" height="17" viewBox="0 0 17 17" fill="none" xmlns="http://www.w3.org/2000/svg">
<path d="M3.10317 0C2.13175 0 1.34921 0.78254 1.34921 1.75397V12.1429C1.34921 12.3722 1.5246 12.5476 1.75397 12.5476C1.98333 12.5476 2.15873 12.3722 2.15873 12.1429V1.75397C2.15873 1.22778 2.57698 0.809524 3.10317 0.809524H13.7619C13.5865 1.07937 13.4921 1.40317 13.4921 1.75397V15.246C13.4921 15.7722 13.0738 16.1905 12.5476 16.1905C12.0214 16.1905 11.6032 15.7722 11.6032 15.246V13.8968C11.6032 13.6675 11.4278 13.4921 11.1984 13.4921H0.404762C0.175397 13.4921 0 13.6675 0 13.8968V15.246C0 16.2175 0.78254 17 1.75397 17H12.5476C13.519 17 14.3016 16.2175 14.3016 15.246V1.75397C14.3016 1.22778 14.7198 0.809524 15.246 0.809524C15.7722 0.809524 16.1905 1.22778 16.1905 1.75397V2.69841H15.246C15.0167 2.69841 14.8413 2.87381 14.8413 3.10317C14.8413 3.33254 15.0167 3.50794 15.246 3.50794H16.5952C16.8246 3.50794 17 3.33254 17 3.10317V1.75397C17 0.78254 16.2175 0 15.246 0H3.10317ZM6.20635 2.69841C5.97698 2.69841 5.80159 2.87381 5.80159 3.10317C5.80159 3.33254 5.97698 3.50794 6.20635 3.50794H9.44444C9.67381 3.50794 9.84921 3.33254 9.84921 3.10317C9.84921 2.87381 9.67381 2.69841 9.44444 2.69841H6.20635ZM4.45238 6.74603C4.22302 6.74603 4.04762 6.92143 4.04762 7.15079C4.04762 7.38016 4.22302 7.55556 4.45238 7.55556H11.1984C11.4278 7.55556 11.6032 7.38016 11.6032 7.15079C11.6032 6.92143 11.4278 6.74603 11.1984 6.74603H4.45238ZM4.47926 8.76984C4.24989 8.76984 4.0745 8.94524 4.0745 9.1746C4.0745 9.40397 4.24989 9.57937 4.47926 9.57937H9.20148C9.43085 9.57937 9.60624 9.40397 9.60624 9.1746C9.60624 8.94524 9.43085 8.76984 9.20148 8.76984H4.47926ZM11.1984 8.76984C11.0911 8.76984 10.9881 8.81249 10.9122 8.88839C10.8363 8.9643 10.7937 9.06725 10.7937 9.1746C10.7937 9.28195 10.8363 9.38491 10.9122 9.46081C10.9881 9.53672 11.0911 9.57937 11.1984 9.57937C11.3058 9.57937 11.4087 9.53672 11.4846 9.46081C11.5605 9.38491 11.6032 9.28195 11.6032 9.1746C11.6032 9.06725 11.5605 8.9643 11.4846 8.88839C11.4087 8.81249 11.3058 8.76984 11.1984 8.76984ZM0.809524 14.3016H10.7937V15.246C10.7937 15.5968 10.9016 15.9206 11.0635 16.1905H1.75397C1.22778 16.1905 0.809524 15.7722 0.809524 15.246V14.3016Z" fill="white"/>
</svg>
