<svg width="49" height="50" viewBox="0 0 49 50" fill="none" xmlns="http://www.w3.org/2000/svg">
<path d="M47 13.919L47 44.6207H33.3563H33.0536L32.8016 44.7886L31.3639 45.7471L1.12646 45.7471L1.12646 1L34.6193 1L47 13.919Z" stroke="white" stroke-width="2"/>
<path d="M0.126426 49H35.046M35.046 49H47.4368V47.8736H36.1724L35.046 49Z" stroke="white" stroke-width="2"/>
<path d="M16.5635 12C15.1349 12 13.9841 13.1968 13.9841 14.6825V30.5714C13.9841 30.9222 14.2421 31.1905 14.5794 31.1905C14.9167 31.1905 15.1746 30.9222 15.1746 30.5714V14.6825C15.1746 13.8778 15.7897 13.2381 16.5635 13.2381H32.2381C31.9802 13.6508 31.8413 14.146 31.8413 14.6825V35.3175C31.8413 36.1222 31.2262 36.7619 30.4524 36.7619C29.6786 36.7619 29.0635 36.1222 29.0635 35.3175V33.254C29.0635 32.9032 28.8056 32.6349 28.4683 32.6349H12.5952C12.2579 32.6349 12 32.9032 12 33.254V35.3175C12 36.8032 13.1508 38 14.5794 38H30.4524C31.881 38 33.0317 36.8032 33.0317 35.3175V14.6825C33.0317 13.8778 33.6468 13.2381 34.4206 13.2381C35.1944 13.2381 35.8095 13.8778 35.8095 14.6825V16.127H34.4206C34.0833 16.127 33.8254 16.3952 33.8254 16.746C33.8254 17.0968 34.0833 17.3651 34.4206 17.3651H36.4048C36.7421 17.3651 37 17.0968 37 16.746V14.6825C37 13.1968 35.8492 12 34.4206 12H16.5635ZM21.127 16.127C20.7897 16.127 20.5317 16.3952 20.5317 16.746C20.5317 17.0968 20.7897 17.3651 21.127 17.3651H25.8889C26.2262 17.3651 26.4841 17.0968 26.4841 16.746C26.4841 16.3952 26.2262 16.127 25.8889 16.127H21.127ZM18.5476 22.3175C18.2103 22.3175 17.9524 22.5857 17.9524 22.9365C17.9524 23.2873 18.2103 23.5556 18.5476 23.5556H28.4683C28.8056 23.5556 29.0635 23.2873 29.0635 22.9365C29.0635 22.5857 28.8056 22.3175 28.4683 22.3175H18.5476ZM18.5871 25.4127C18.2498 25.4127 17.9919 25.681 17.9919 26.0317C17.9919 26.3825 18.2498 26.6508 18.5871 26.6508H25.5316C25.8689 26.6508 26.1268 26.3825 26.1268 26.0317C26.1268 25.681 25.8689 25.4127 25.5316 25.4127H18.5871ZM28.4683 25.4127C28.3104 25.4127 28.159 25.4779 28.0474 25.594C27.9357 25.7101 27.873 25.8676 27.873 26.0317C27.873 26.1959 27.9357 26.3534 28.0474 26.4695C28.159 26.5856 28.3104 26.6508 28.4683 26.6508C28.6261 26.6508 28.7775 26.5856 28.8892 26.4695C29.0008 26.3534 29.0635 26.1959 29.0635 26.0317C29.0635 25.8676 29.0008 25.7101 28.8892 25.594C28.7775 25.4779 28.6261 25.4127 28.4683 25.4127ZM13.1905 33.873H27.873V35.3175C27.873 35.854 28.0317 36.3492 28.2698 36.7619H14.5794C13.8056 36.7619 13.1905 36.1222 13.1905 35.3175V33.873Z" fill="white"/>
</svg>
